ISO-10303-21;
HEADER;
FILE_DESCRIPTION( ( '' ), ' ' );
FILE_NAME( '/vol/tmp/translate-8579754438183730235/5ae5839f3947920fcf80d878.step', '2018-04-29T08:34:40', ( '' ), ( '' ), ' ', ' ', ' ' );
FILE_SCHEMA( ( 'AUTOMOTIVE_DESIGN { 1 0 10303 214 1 1 1 1 }' ) );
ENDSEC;
DATA;
/* PRODUCT_CATEGORY_RELATIONSHIP Section - 1 root entities */
#1 = PRODUCT_CATEGORY_RELATIONSHIP( 'NONE', 'NONE', #2, #3 );
#2 = PRODUCT_CATEGORY( 'part', 'NONE' );
#3 = PRODUCT_RELATED_PRODUCT_CATEGORY( 'detail','', ( #4 ) );
#4 = PRODUCT( 'Part 1', 'Part 1', 'PART-Part 1-DESC', ( #5 ) );
#5 = PRODUCT_CONTEXT( '', #6,'mechanical' );
#6 = APPLICATION_CONTEXT( 'core data for automotive mechanical design processes' );
#7 = APPLICATION_PROTOCOL_DEFINITION( 'international standard', 'automotive_design', 2001, #6 );
/* MECHANICAL_DESIGN_GEOMETRIC_PRESENTATION_REPRESENTATION Section - 13 STYLED_ITEM, 1 COMPLEX_ENTITY */
#8 = MECHANICAL_DESIGN_GEOMETRIC_PRESENTATION_REPRESENTATION('', ( #ID_1, #ID_2, #ID_3, #ID_4, #ID_5, #ID_6, #ID_7, #ID_8, #ID_9, #ID_10, #ID_11, #ID_12, #ID_13 ), #ID_14 );
#9=COLOUR_RGB(, 0.5, 0.5, 0.5 );
/* BEGIN STYLED_ITEM 1 */
/* ID_1 = 10 */
#10 = STYLED_ITEM( '', ( #11 ), #17 );
#11 = PRESENTATION_STYLE_ASSIGNMENT( ( #12 ) );
#12 = SURFACE_STYLE_USAGE(.BOTH., #13 );
#13 = SURFACE_SIDE_STYLE( '', ( #14 ) );
#14 = SURFACE_STYLE_FILL_AREA( #15 );
#15 = FILL_AREA_STYLE( '', ( #16 ) );
#16 = FILL_AREA_STYLE_COLOUR( '', #9 );
#17 = ADVANCED_FACE( '', ( #18 ), #29,.T. );
#18 = FACE_OUTER_BOUND( '', #19,.T. );
#19 = EDGE_LOOP( '', ( #20 ) );
#20 = ORIENTED_EDGE( '', *, *, #21,.T. );
#21 = EDGE_CURVE( '', #22, #22, #24,.T. );
#22 = VERTEX_POINT( '', #23 );
#23 = CARTESIAN_POINT( '', ( 0.001250, 0.000000, 0.001000 ) );
#24 = CIRCLE( '', #25, 0.001250 );
#25 = AXIS2_PLACEMENT_3D( '', #26, #27, #28 );
#26 = CARTESIAN_POINT( '', ( 0.000000, 0.000000, 0.001000 ) );
#27 = DIRECTION( '', ( 0.000000, 0.000000, 1.000000 ) );
#28 = DIRECTION( '', ( 1.000000, 0.000000, 0.000000 ) );
#29 = PLANE( '', #30 );
#30 = AXIS2_PLACEMENT_3D( '', #31, #32, #33 );
#31 = CARTESIAN_POINT( '', ( 0.000000, 0.000000, 0.001000 ) );
#32 = DIRECTION( '', ( 0.000000, 0.000000, 1.000000 ) );
#33 = DIRECTION( '', ( 1.000000, 0.000000, 0.000000 ) );
/* END STYLED_ITEM 1 */
/* BEGIN STYLED_ITEM 2 */
/* ID_2 = 34 */
#34 = STYLED_ITEM( '', ( #35 ), #41 );
#35 = PRESENTATION_STYLE_ASSIGNMENT( ( #36 ) );
#36 = SURFACE_STYLE_USAGE(.BOTH., #37 );
#37 = SURFACE_SIDE_STYLE( '', ( #38 ) );
#38 = SURFACE_STYLE_FILL_AREA( #39 );
#39 = FILL_AREA_STYLE( '', ( #40 ) );
#40 = FILL_AREA_STYLE_COLOUR( '', #9 );
#41 = ADVANCED_FACE( '', ( #42 ), #76,.T. );
#42 = FACE_OUTER_BOUND( '', #43,.T. );
#43 = EDGE_LOOP( '', ( #44, #54, #62, #70 ) );
#44 = ORIENTED_EDGE( '', *, *, #45,.F. );
#45 = EDGE_CURVE( '', #46, #48, #50,.T. );
#46 = VERTEX_POINT( '', #47 );
#47 = CARTESIAN_POINT( '', ( 0.001155, 0.000718, 0.000000 ) );
#48 = VERTEX_POINT( '', #49 );
#49 = CARTESIAN_POINT( '', ( 0.001155, -0.000718, 0.000000 ) );
#50 = LINE( '', #51, #52 );
#51 = CARTESIAN_POINT( '', ( 0.001155, 0.000000, 0.000000 ) );
#52 = VECTOR( '', #53, 1.000000 );
#53 = DIRECTION( '', ( 0.000000, -1.000000, 0.000000 ) );
#54 = ORIENTED_EDGE( '', *, *, #55,.F. );
#55 = EDGE_CURVE( '', #56, #46, #58,.T. );
#56 = VERTEX_POINT( '', #57 );
#57 = CARTESIAN_POINT( '', ( 0.001155, 0.000718, 0.001000 ) );
#58 = LINE( '', #59, #60 );
#59 = CARTESIAN_POINT( '', ( 0.001155, 0.000718, 0.001000 ) );
#60 = VECTOR( '', #61, 1.000000 );
#61 = DIRECTION( '', ( 0.000000, 0.000000, -1.000000 ) );
#62 = ORIENTED_EDGE( '', *, *, #63,.T. );
#63 = EDGE_CURVE( '', #56, #64, #66,.T. );
#64 = VERTEX_POINT( '', #65 );
#65 = CARTESIAN_POINT( '', ( 0.001155, -0.000718, 0.001000 ) );
#66 = LINE( '', #67, #68 );
#67 = CARTESIAN_POINT( '', ( 0.001155, 0.000000, 0.001000 ) );
#68 = VECTOR( '', #69, 1.000000 );
#69 = DIRECTION( '', ( 0.000000, -1.000000, 0.000000 ) );
#70 = ORIENTED_EDGE( '', *, *, #71,.T. );
#71 = EDGE_CURVE( '', #64, #48, #72,.T. );
#72 = LINE( '', #73, #74 );
#73 = CARTESIAN_POINT( '', ( 0.001155, -0.000718, 0.001000 ) );
#74 = VECTOR( '', #75, 1.000000 );
#75 = DIRECTION( '', ( 0.000000, 0.000000, -1.000000 ) );
#76 = PLANE( '', #77 );
#77 = AXIS2_PLACEMENT_3D( '', #78, #79, #80 );
#78 = CARTESIAN_POINT( '', ( 0.001155, 0.000000, 0.001000 ) );
#79 = DIRECTION( '', ( 1.000000, 0.000000, 0.000000 ) );
#80 = DIRECTION( '', ( 0.000000, 0.000000, -1.000000 ) );
/* END STYLED_ITEM 2 */
/* BEGIN STYLED_ITEM 3 */
/* ID_3 = 81 */
#81 = STYLED_ITEM( '', ( #82 ), #88 );
#82 = PRESENTATION_STYLE_ASSIGNMENT( ( #83 ) );
#83 = SURFACE_STYLE_USAGE(.BOTH., #84 );
#84 = SURFACE_SIDE_STYLE( '', ( #85 ) );
#85 = SURFACE_STYLE_FILL_AREA( #86 );
#86 = FILL_AREA_STYLE( '', ( #87 ) );
#87 = FILL_AREA_STYLE_COLOUR( '', #9 );
#88 = ADVANCED_FACE( '', ( #89 ), #114,.T. );
#89 = FACE_OUTER_BOUND( '', #90,.T. );
#90 = EDGE_LOOP( '', ( #91, #99, #107, #113 ) );
#91 = ORIENTED_EDGE( '', *, *, #92,.F. );
#92 = EDGE_CURVE( '', #93, #46, #95,.T. );
#93 = VERTEX_POINT( '', #94 );
#94 = CARTESIAN_POINT( '', ( 2.672752E-20, 0.001435, 0.000000 ) );
#95 = LINE( '', #96, #97 );
#96 = CARTESIAN_POINT( '', ( 0.000000, 0.001435, 0.000000 ) );
#97 = VECTOR( '', #98, 1.000000 );
#98 = DIRECTION( '', ( 0.866025, -0.500000, 0.000000 ) );
#99 = ORIENTED_EDGE( '', *, *, #100,.F. );
#100 = EDGE_CURVE( '', #101, #93, #103,.T. );
#101 = VERTEX_POINT( '', #102 );
#102 = CARTESIAN_POINT( '', ( 2.672752E-20, 0.001435, 0.001000 ) );
#103 = LINE( '', #104, #105 );
#104 = CARTESIAN_POINT( '', ( 2.672752E-20, 0.001435, 0.001000 ) );
#105 = VECTOR( '', #106, 1.000000 );
#106 = DIRECTION( '', ( 0.000000, 0.000000, -1.000000 ) );
#107 = ORIENTED_EDGE( '', *, *, #108,.T. );
#108 = EDGE_CURVE( '', #101, #56, #109,.T. );
#109 = LINE( '', #110, #111 );
#110 = CARTESIAN_POINT( '', ( 0.000000, 0.001435, 0.001000 ) );
#111 = VECTOR( '', #112, 1.000000 );
#112 = DIRECTION( '', ( 0.866025, -0.500000, 0.000000 ) );
#113 = ORIENTED_EDGE( '', *, *, #55,.T. );
#114 = PLANE( '', #115 );
#115 = AXIS2_PLACEMENT_3D( '', #116, #117, #118 );
#116 = CARTESIAN_POINT( '', ( 0.000000, 0.001435, 0.001000 ) );
#117 = DIRECTION( '', ( 0.500000, 0.866025, 0.000000 ) );
#118 = DIRECTION( '', ( -0.866025, 0.500000, 0.000000 ) );
/* END STYLED_ITEM 3 */
/* BEGIN STYLED_ITEM 4 */
/* ID_4 = 119 */
#119 = STYLED_ITEM( '', ( #120 ), #126 );
#120 = PRESENTATION_STYLE_ASSIGNMENT( ( #121 ) );
#121 = SURFACE_STYLE_USAGE(.BOTH., #122 );
#122 = SURFACE_SIDE_STYLE( '', ( #123 ) );
#123 = SURFACE_STYLE_FILL_AREA( #124 );
#124 = FILL_AREA_STYLE( '', ( #125 ) );
#125 = FILL_AREA_STYLE_COLOUR( '', #9 );
#126 = ADVANCED_FACE( '', ( #127 ), #152,.T. );
#127 = FACE_OUTER_BOUND( '', #128,.T. );
#128 = EDGE_LOOP( '', ( #129, #137, #145, #151 ) );
#129 = ORIENTED_EDGE( '', *, *, #130,.F. );
#130 = EDGE_CURVE( '', #131, #93, #133,.T. );
#131 = VERTEX_POINT( '', #132 );
#132 = CARTESIAN_POINT( '', ( -0.001155, 0.000718, 0.000000 ) );
#133 = LINE( '', #134, #135 );
#134 = CARTESIAN_POINT( '', ( -0.001155, 0.000718, 0.000000 ) );
#135 = VECTOR( '', #136, 1.000000 );
#136 = DIRECTION( '', ( 0.866025, 0.500000, 0.000000 ) );
#137 = ORIENTED_EDGE( '', *, *, #138,.F. );
#138 = EDGE_CURVE( '', #139, #131, #141,.T. );
#139 = VERTEX_POINT( '', #140 );
#140 = CARTESIAN_POINT( '', ( -0.001155, -0.000718, 0.000000 ) );
#141 = LINE( '', #142, #143 );
#142 = CARTESIAN_POINT( '', ( -0.001155, 0.000000, 0.000000 ) );
#143 = VECTOR( '', #144, 1.000000 );
#144 = DIRECTION( '', ( 0.000000, 1.000000, 0.000000 ) );
#145 = ORIENTED_EDGE( '', *, *, #146,.T. );
#146 = EDGE_CURVE( '', #139, #101, #147,.T. );
#147 = LINE( '', #148, #149 );
#148 = CARTESIAN_POINT( '', ( -0.001155, -0.000718, 0.000000 ) );
#149 = VECTOR( '', #150, 1.000000 );
#150 = DIRECTION( '', ( 0.866025, 0.500000, 0.000000 ) );
#151 = ORIENTED_EDGE( '', *, *, #100,.T. );
#152 = PLANE( '', #153 );
#153 = AXIS2_PLACEMENT_3D( '', #154, #155, #156 );
#154 = CARTESIAN_POINT( '', ( -0.001155, 0.000718, 0.000000 ) );
#155 = DIRECTION( '', ( -0.500000, 0.866025, 0.000000 ) );
#156 = DIRECTION( '', ( -0.866025, -0.500000, 0.000000 ) );
/* END STYLED_ITEM 4 */
/* BEGIN STYLED_ITEM 5 */
/* ID_5 = 157 */
#157 = STYLED_ITEM( '', ( #158 ), #164 );
#158 = PRESENTATION_STYLE_ASSIGNMENT( ( #159 ) );
#159 = SURFACE_STYLE_USAGE(.BOTH., #160 );
#160 = SURFACE_SIDE_STYLE( '', ( #161 ) );
#161 = SURFACE_STYLE_FILL_AREA( #162 );
#162 = FILL_AREA_STYLE( '', ( #163 ) );
#163 = FILL_AREA_STYLE_COLOUR( '', #9 );
#164 = ADVANCED_FACE( '', ( #165, #176 ), #187,.T. );
#165 = FACE_OUTER_BOUND( '', #166,.T. );
#166 = EDGE_LOOP( '', ( #167 ) );
#167 = ORIENTED_EDGE( '', *, *, #168,.T. );
#168 = EDGE_CURVE( '', #169, #169, #171,.T. );
#169 = VERTEX_POINT( '', #170 );
#170 = CARTESIAN_POINT( '', ( -0.002750, 0.000000, 0.003000 ) );
#171 = CIRCLE( '', #172, 0.002750 );
#172 = AXIS2_PLACEMENT_3D( '', #173, #174, #175 );
#173 = CARTESIAN_POINT( '', ( 0.000000, 0.000000, 0.003000 ) );
#174 = DIRECTION( '', ( 0.000000, 0.000000, -1.000000 ) );
#175 = DIRECTION( '', ( -1.000000, 0.000000, 0.000000 ) );
#176 = FACE_OUTER_BOUND( '', #177,.T. );
#177 = EDGE_LOOP( '', ( #178 ) );
#178 = ORIENTED_EDGE( '', *, *, #179,.F. );
#179 = EDGE_CURVE( '', #180, #180, #182,.T. );
#180 = VERTEX_POINT( '', #181 );
#181 = CARTESIAN_POINT( '', ( -0.002750, 0.000000, 0.001000 ) );
#182 = CIRCLE( '', #183, 0.002750 );
#183 = AXIS2_PLACEMENT_3D( '', #184, #185, #186 );
#184 = CARTESIAN_POINT( '', ( 0.000000, 0.000000, 0.001000 ) );
#185 = DIRECTION( '', ( 0.000000, 0.000000, -1.000000 ) );
#186 = DIRECTION( '', ( -1.000000, 0.000000, 0.000000 ) );
#187 = CYLINDRICAL_SURFACE( '', #188, 0.002750 );
#188 = AXIS2_PLACEMENT_3D( '', #189, #190, #191 );
#189 = CARTESIAN_POINT( '', ( 0.000000, 0.000000, 0.003000 ) );
#190 = DIRECTION( '', ( -0.000000, -0.000000, 1.000000 ) );
#191 = DIRECTION( '', ( -1.000000, 0.000000, 0.000000 ) );
/* END STYLED_ITEM 5 */
/* BEGIN STYLED_ITEM 6 */
/* ID_6 = 192 */
#192 = STYLED_ITEM( '', ( #193 ), #199 );
#193 = PRESENTATION_STYLE_ASSIGNMENT( ( #194 ) );
#194 = SURFACE_STYLE_USAGE(.BOTH., #195 );
#195 = SURFACE_SIDE_STYLE( '', ( #196 ) );
#196 = SURFACE_STYLE_FILL_AREA( #197 );
#197 = FILL_AREA_STYLE( '', ( #198 ) );
#198 = FILL_AREA_STYLE_COLOUR( '', #9 );
#199 = ADVANCED_FACE( '', ( #200 ), #211,.T. );
#200 = FACE_OUTER_BOUND( '', #201,.T. );
#201 = EDGE_LOOP( '', ( #202 ) );
#202 = ORIENTED_EDGE( '', *, *, #203,.T. );
#203 = EDGE_CURVE( '', #204, #204, #206,.T. );
#204 = VERTEX_POINT( '', #205 );
#205 = CARTESIAN_POINT( '', ( 0.001250, 0.000000, 0.003000 ) );
#206 = CIRCLE( '', #207, 0.001250 );
#207 = AXIS2_PLACEMENT_3D( '', #208, #209, #210 );
#208 = CARTESIAN_POINT( '', ( 0.000000, 0.000000, 0.003000 ) );
#209 = DIRECTION( '', ( 0.000000, 0.000000, 1.000000 ) );
#210 = DIRECTION( '', ( 1.000000, 0.000000, 0.000000 ) );
#211 = PLANE( '', #212 );
#212 = AXIS2_PLACEMENT_3D( '', #213, #214, #215 );
#213 = CARTESIAN_POINT( '', ( 0.000000, 0.000000, 0.003000 ) );
#214 = DIRECTION( '', ( 0.000000, 0.000000, 1.000000 ) );
#215 = DIRECTION( '', ( 1.000000, 0.000000, 0.000000 ) );
/* END STYLED_ITEM 6 */
/* BEGIN STYLED_ITEM 7 */
/* ID_7 = 216 */
#216 = STYLED_ITEM( '', ( #217 ), #223 );
#217 = PRESENTATION_STYLE_ASSIGNMENT( ( #218 ) );
#218 = SURFACE_STYLE_USAGE(.BOTH., #219 );
#219 = SURFACE_SIDE_STYLE( '', ( #220 ) );
#220 = SURFACE_STYLE_FILL_AREA( #221 );
#221 = FILL_AREA_STYLE( '', ( #222 ) );
#222 = FILL_AREA_STYLE_COLOUR( '', #9 );
#223 = ADVANCED_FACE( '', ( #224 ), #249,.T. );
#224 = FACE_OUTER_BOUND( '', #225,.T. );
#225 = EDGE_LOOP( '', ( #226, #234, #242, #248 ) );
#226 = ORIENTED_EDGE( '', *, *, #227,.F. );
#227 = EDGE_CURVE( '', #228, #131, #230,.T. );
#228 = VERTEX_POINT( '', #229 );
#229 = CARTESIAN_POINT( '', ( -2.168404E-20, -0.001435, 0.000000 ) );
#230 = LINE( '', #231, #232 );
#231 = CARTESIAN_POINT( '', ( -2.168404E-20, -0.001435, 0.000000 ) );
#232 = VECTOR( '', #233, 1.000000 );
#233 = DIRECTION( '', ( -0.866025, 0.500000, 0.000000 ) );
#234 = ORIENTED_EDGE( '', *, *, #235,.F. );
#235 = EDGE_CURVE( '', #236, #228, #238,.T. );
#236 = VERTEX_POINT( '', #237 );
#237 = CARTESIAN_POINT( '', ( -2.168404E-20, -0.001435, 0.001000 ) );
#238 = LINE( '', #239, #240 );
#239 = CARTESIAN_POINT( '', ( -2.168404E-20, -0.001435, 0.001000 ) );
#240 = VECTOR( '', #241, 1.000000 );
#241 = DIRECTION( '', ( 0.000000, 0.000000, -1.000000 ) );
#242 = ORIENTED_EDGE( '', *, *, #243,.T. );
#243 = EDGE_CURVE( '', #236, #101, #244,.T. );
#244 = LINE( '', #245, #246 );
#245 = CARTESIAN_POINT( '', ( -2.168404E-20, -0.001435, 0.001000 ) );
#246 = VECTOR( '', #247, 1.000000 );
#247 = DIRECTION( '', ( -0.866025, 0.500000, 0.000000 ) );
#248 = ORIENTED_EDGE( '', *, *, #146,.F. );
#249 = PLANE( '', #250 );
#250 = AXIS2_PLACEMENT_3D( '', #251, #252, #253 );
#251 = CARTESIAN_POINT( '', ( -2.168404E-20, -0.001435, 0.001000 ) );
#252 = DIRECTION( '', ( -0.500000, -0.866025, 0.000000 ) );
#253 = DIRECTION( '', ( 0.866025, -0.500000, 0.000000 ) );
/* END STYLED_ITEM 7 */
/* BEGIN STYLED_ITEM 8 */
/* ID_8 = 254 */
#254 = STYLED_ITEM( '', ( #255 ), #261 );
#255 = PRESENTATION_STYLE_ASSIGNMENT( ( #256 ) );
#256 = SURFACE_STYLE_USAGE(.BOTH., #257 );
#257 = SURFACE_SIDE_STYLE( '', ( #258 ) );
#258 = SURFACE_STYLE_FILL_AREA( #259 );
#259 = FILL_AREA_STYLE( '', ( #260 ) );
#260 = FILL_AREA_STYLE_COLOUR( '', #9 );
#261 = ADVANCED_FACE( '', ( #262 ), #273,.F. );
#262 = FACE_OUTER_BOUND( '', #263,.T. );
#263 = EDGE_LOOP( '', ( #264 ) );
#264 = ORIENTED_EDGE( '', *, *, #265,.F. );
#265 = EDGE_CURVE( '', #266, #266, #268,.T. );
#266 = VERTEX_POINT( '', #267 );
#267 = CARTESIAN_POINT( '', ( 0.001250, 0.000000, 0.000000 ) );
#268 = CIRCLE( '', #269, 0.001250 );
#269 = AXIS2_PLACEMENT_3D( '', #270, #271, #272 );
#270 = CARTESIAN_POINT( '', ( 0.000000, 0.000000, 0.000000 ) );
#271 = DIRECTION( '', ( 0.000000, 0.000000, 1.000000 ) );
#272 = DIRECTION( '', ( 1.000000, 0.000000, 0.000000 ) );
#273 = PLANE( '', #274 );
#274 = AXIS2_PLACEMENT_3D( '', #275, #276, #277 );
#275 = CARTESIAN_POINT( '', ( 0.000000, 0.000000, 0.000000 ) );
#276 = DIRECTION( '', ( 0.000000, 0.000000, 1.000000 ) );
#277 = DIRECTION( '', ( 1.000000, 0.000000, 0.000000 ) );
/* END STYLED_ITEM 8 */
/* BEGIN STYLED_ITEM 9 */
/* ID_9 = 278 */
#278 = STYLED_ITEM( '', ( #279 ), #285 );
#279 = PRESENTATION_STYLE_ASSIGNMENT( ( #280 ) );
#280 = SURFACE_STYLE_USAGE(.BOTH., #281 );
#281 = SURFACE_SIDE_STYLE( '', ( #282 ) );
#282 = SURFACE_STYLE_FILL_AREA( #283 );
#283 = FILL_AREA_STYLE( '', ( #284 ) );
#284 = FILL_AREA_STYLE_COLOUR( '', #9 );
#285 = ADVANCED_FACE( '', ( #286 ), #297,.F. );
#286 = FACE_OUTER_BOUND( '', #287,.T. );
#287 = EDGE_LOOP( '', ( #288, #289, #290, #296 ) );
#288 = ORIENTED_EDGE( '', *, *, #130,.T. );
#289 = ORIENTED_EDGE( '', *, *, #92,.T. );
#290 = ORIENTED_EDGE( '', *, *, #291,.F. );
#291 = EDGE_CURVE( '', #228, #93, #292,.T. );
#292 = LINE( '', #293, #294 );
#293 = CARTESIAN_POINT( '', ( 0.000000, -0.001435, 0.000000 ) );
#294 = VECTOR( '', #295, 1.000000 );
#295 = DIRECTION( '', ( 0.866025, 0.500000, 0.000000 ) );
#296 = ORIENTED_EDGE( '', *, *, #227,.T. );
#297 = PLANE( '', #298 );
#298 = AXIS2_PLACEMENT_3D( '', #299, #300, #301 );
#299 = CARTESIAN_POINT( '', ( 0.000000, 0.000000, 0.000000 ) );
#300 = DIRECTION( '', ( 0.000000, 0.000000, 1.000000 ) );
#301 = DIRECTION( '', ( 1.000000, 0.000000, 0.000000 ) );
/* END STYLED_ITEM 9 */
/* BEGIN STYLED_ITEM 10 */
/* ID_10 = 302 */
#302 = STYLED_ITEM( '', ( #303 ), #309 );
#303 = PRESENTATION_STYLE_ASSIGNMENT( ( #304 ) );
#304 = SURFACE_STYLE_USAGE(.BOTH., #305 );
#305 = SURFACE_SIDE_STYLE( '', ( #306 ) );
#306 = SURFACE_STYLE_FILL_AREA( #307 );
#307 = FILL_AREA_STYLE( '', ( #308 ) );
#308 = FILL_AREA_STYLE_COLOUR( '', #9 );
#309 = ADVANCED_FACE( '', ( #310 ), #321,.F. );
#310 = FACE_OUTER_BOUND( '', #311,.T. );
#311 = EDGE_LOOP( '', ( #312, #313, #314, #320 ) );
#312 = ORIENTED_EDGE( '', *, *, #291,.T. );
#313 = ORIENTED_EDGE( '', *, *, #92,.F. );
#314 = ORIENTED_EDGE( '', *, *, #315,.F. );
#315 = EDGE_CURVE( '', #236, #228, #316,.T. );
#316 = LINE( '', #317, #318 );
#317 = CARTESIAN_POINT( '', ( 0.000000, -0.001435, 0.001000 ) );
#318 = VECTOR( '', #319, 1.000000 );
#319 = DIRECTION( '', ( 0.000000, 0.000000, -1.000000 ) );
#320 = ORIENTED_EDGE( '', *, *, #235,.T. );
#321 = PLANE( '', #322 );
#322 = AXIS2_PLACEMENT_3D( '', #323, #324, #325 );
#323 = CARTESIAN_POINT( '', ( 0.000000, -0.001435, 0.001000 ) );
#324 = DIRECTION( '', ( -0.500000, 0.866025, 0.000000 ) );
#325 = DIRECTION( '', ( -0.866025, -0.500000, 0.000000 ) );
/* END STYLED_ITEM 10 */
/* BEGIN STYLED_ITEM 11 */
/* ID_11 = 326 */
#326 = STYLED_ITEM( '', ( #327 ), #333 );
#327 = PRESENTATION_STYLE_ASSIGNMENT( ( #328 ) );
#328 = SURFACE_STYLE_USAGE(.BOTH., #329 );
#329 = SURFACE_SIDE_STYLE( '', ( #330 ) );
#330 = SURFACE_STYLE_FILL_AREA( #331 );
#331 = FILL_AREA_STYLE( '', ( #332 ) );
#332 = FILL_AREA_STYLE_COLOUR( '', #9 );
#333 = ADVANCED_FACE( '', ( #334, #337 ), #340,.T. );
#334 = FACE_BOUND( '', #335,.T. );
#335 = EDGE_LOOP( '', ( #336 ) );
#336 = ORIENTED_EDGE( '', *, *, #21,.F. );
#337 = FACE_OUTER_BOUND( '', #338,.T. );
#338 = EDGE_LOOP( '', ( #339 ) );
#339 = ORIENTED_EDGE( '', *, *, #168,.F. );
#340 = CONICAL_SURFACE( '', #341, 0.002750, 0.785398 );
#341 = AXIS2_PLACEMENT_3D( '', #342, #343, #344 );
#342 = CARTESIAN_POINT( '', ( 0.000000, 0.000000, 0.003000 ) );
#343 = DIRECTION( '', ( -0.000000, -0.000000, 1.000000 ) );
#344 = DIRECTION( '', ( 1.000000, 0.000000, 0.000000 ) );
/* END STYLED_ITEM 11 */
/* BEGIN STYLED_ITEM 12 */
/* ID_12 = 345 */
#345 = STYLED_ITEM( '', ( #346 ), #352 );
#346 = PRESENTATION_STYLE_ASSIGNMENT( ( #347 ) );
#347 = SURFACE_STYLE_USAGE(.BOTH., #348 );
#348 = SURFACE_SIDE_STYLE( '', ( #349 ) );
#349 = SURFACE_STYLE_FILL_AREA( #350 );
#350 = FILL_AREA_STYLE( '', ( #351 ) );
#351 = FILL_AREA_STYLE_COLOUR( '', #9 );
#352 = ADVANCED_FACE( '', ( #353 ), #364,.T. );
#353 = FACE_OUTER_BOUND( '', #354,.T. );
#354 = EDGE_LOOP( '', ( #355, #356, #357, #363 ) );
#355 = ORIENTED_EDGE( '', *, *, #108,.F. );
#356 = ORIENTED_EDGE( '', *, *, #243,.F. );
#357 = ORIENTED_EDGE( '', *, *, #358,.T. );
#358 = EDGE_CURVE( '', #236, #64, #359,.T. );
#359 = LINE( '', #360, #361 );
#360 = CARTESIAN_POINT( '', ( -0.001155, -0.000718, 0.001000 ) );
#361 = VECTOR( '', #362, 1.000000 );
#362 = DIRECTION( '', ( 0.866025, -0.500000, 0.000000 ) );
#363 = ORIENTED_EDGE( '', *, *, #63,.F. );
#364 = PLANE( '', #365 );
#365 = AXIS2_PLACEMENT_3D( '', #366, #367, #368 );
#366 = CARTESIAN_POINT( '', ( 0.000000, 0.000000, 0.001000 ) );
#367 = DIRECTION( '', ( 0.000000, 0.000000, 1.000000 ) );
#368 = DIRECTION( '', ( 1.000000, 0.000000, 0.000000 ) );
/* END STYLED_ITEM 12 */
/* BEGIN STYLED_ITEM 13 */
/* ID_13 = 369 */
#369 = STYLED_ITEM( '', ( #370 ), #376 );
#370 = PRESENTATION_STYLE_ASSIGNMENT( ( #371 ) );
#371 = SURFACE_STYLE_USAGE(.BOTH., #372 );
#372 = SURFACE_SIDE_STYLE( '', ( #373 ) );
#373 = SURFACE_STYLE_FILL_AREA( #374 );
#374 = FILL_AREA_STYLE( '', ( #375 ) );
#375 = FILL_AREA_STYLE_COLOUR( '', #9 );
#376 = ADVANCED_FACE( '', ( #377, #380 ), #383,.T. );
#377 = FACE_OUTER_BOUND( '', #378,.T. );
#378 = EDGE_LOOP( '', ( #379 ) );
#379 = ORIENTED_EDGE( '', *, *, #203,.F. );
#380 = FACE_OUTER_BOUND( '', #381,.T. );
#381 = EDGE_LOOP( '', ( #382 ) );
#382 = ORIENTED_EDGE( '', *, *, #265,.T. );
#383 = CYLINDRICAL_SURFACE( '', #384, 0.001250 );
#384 = AXIS2_PLACEMENT_3D( '', #385, #386, #387 );
#385 = CARTESIAN_POINT( '', ( 0.000000, 0.000000, 0.003000 ) );
#386 = DIRECTION( '', ( -0.000000, -0.000000, 1.000000 ) );
#387 = DIRECTION( '', ( -1.000000, 0.000000, 0.000000 ) );
/* END STYLED_ITEM 13 */
/* BEGIN COMPLEX_ENTITY 1 */
/* ID_14 = 388 */
#388 =  ( GEOMETRIC_REPRESENTATION_CONTEXT( 3 )GLOBAL_UNCERTAINTY_ASSIGNED_CONTEXT( ( #389 ) )GLOBAL_UNIT_ASSIGNED_CONTEXT( ( #390, #394, #396 ) )REPRESENTATION_CONTEXT( 'NONE', 'WORKSPACE' ) );
#389 = UNCERTAINTY_MEASURE_WITH_UNIT( LENGTH_MEASURE( 1.000000E-17 ), #390, '', '' );
#390 =  ( CONVERSION_BASED_UNIT( 'METRE', #391 )LENGTH_UNIT(  )NAMED_UNIT( #393 ) );
#391 = LENGTH_MEASURE_WITH_UNIT( LENGTH_MEASURE( 1.000000 ), #392 );
#392 =  ( LENGTH_UNIT(  )NAMED_UNIT( #393 )SI_UNIT( $,.METRE. ) );
#393 = DIMENSIONAL_EXPONENTS( 1.000000, 0.000000, 0.000000, 0.000000, 0.000000, 0.000000, 0.000000 );
#394 =  ( NAMED_UNIT( #395 )PLANE_ANGLE_UNIT(  )SI_UNIT( $,.RADIAN. ) );
#395 = DIMENSIONAL_EXPONENTS( 0.000000, 0.000000, 0.000000, 0.000000, 0.000000, 0.000000, 0.000000 );
#396 =  ( NAMED_UNIT( #395 )SI_UNIT( $,.STERADIAN. )SOLID_ANGLE_UNIT(  ) );
/* END COMPLEX_ENTITY 1 */
/* SHAPE_DEFINITION_REPRESENTATION Section - 1 subtrees */
/* BEGIN SHAPE_DEFINITION_REPRESENTATION 1 */
#397 = SHAPE_DEFINITION_REPRESENTATION( #398, #402 );
#398 = PRODUCT_DEFINITION_SHAPE( 'NONE', 'NONE', #399 );
#399 = PRODUCT_DEFINITION( 'NONE', 'NONE', #400, #401 );
#400 = PRODUCT_DEFINITION_FORMATION_WITH_SPECIFIED_SOURCE('', 'NONE', #4,.NOT_KNOWN. );
#401 = PRODUCT_DEFINITION_CONTEXT( '', #6, 'design' );
#402 = ADVANCED_BREP_SHAPE_REPRESENTATION( 'Part 1', ( #403, #405 ), #388 );
#403 = MANIFOLD_SOLID_BREP( 'Part 1', #404 );
#404 = CLOSED_SHELL( '', ( #41, #352, #285, #88, #126, #223, #309, #164, #333, #376, #199, #261, #17 ) );
#405 = AXIS2_PLACEMENT_3D( '', #406, #407, #408 );
#406 = CARTESIAN_POINT( '', ( 0.000000, 0.000000, 0.000000 ) );
#407 = DIRECTION( '', ( 0.000000, 0.000000, 1.000000 ) );
#408 = DIRECTION( '', ( 1.000000, 0.000000, 0.000000 ) );
/* END SHAPE_DEFINITION_REPRESENTATION 1 */
ENDSEC;
END-ISO-10303-21;