ISO-10303-21;
HEADER;
FILE_DESCRIPTION( ( '' ), ' ' );
FILE_NAME( '/vol/tmp/translate-8579754438183730235/5ae5839f3947920fcf80d878.step', '2018-04-29T08:34:40', ( '' ), ( '' ), ' ', ' ', ' ' );
FILE_SCHEMA( ( 'AUTOMOTIVE_DESIGN { 1 0 10303 214 1 1 1 1 }' ) );
ENDSEC;
DATA;
/* PRODUCT_CATEGORY_RELATIONSHIP Section - 1 root entities */
#1 = PRODUCT_CATEGORY_RELATIONSHIP( 'NONE', 'NONE', #2, #3 );
#2 = PRODUCT_CATEGORY( 'part', 'NONE' );
#3 = PRODUCT_RELATED_PRODUCT_CATEGORY( 'detail', ' ', ( #4 ) );
#4 = PRODUCT( 'Part 1', 'Part 1', 'PART-Part 1-DESC', ( #5 ) );
#5 = PRODUCT_CONTEXT( '', #6, 'mechanical' );
#6 = APPLICATION_CONTEXT( 'core data for automotive mechanical design processes' );
#7 = APPLICATION_PROTOCOL_DEFINITION( 'international standard', 'automotive_design', 2001, #6 );
/* MECHANICAL_DESIGN_GEOMETRIC_PRESENTATION_REPRESENTATION Section - 10 STYLED_ITEM, 1 COMPLEX_ENTITY */
#8 = MECHANICAL_DESIGN_GEOMETRIC_PRESENTATION_REPRESENTATION( ' ', ( #ID_1, #ID_2, #ID_3, #ID_4, #ID_5, #ID_6, #ID_7, #ID_8, #ID_9, #ID_10 ), #ID_11 );
#9=COLOUR_RGB( , 0.5, 0.5, 0.5 );
/* BEGIN STYLED_ITEM 1 */
/* ID_1 = 10 */
#10 = STYLED_ITEM( '', ( #11 ), #17 );
#11 = PRESENTATION_STYLE_ASSIGNMENT( ( #12 ) );
#12 = SURFACE_STYLE_USAGE( .BOTH., #13 );
#13 = SURFACE_SIDE_STYLE( '', ( #14 ) );
#14 = SURFACE_STYLE_FILL_AREA( #15 );
#15 = FILL_AREA_STYLE( '', ( #16 ) );
#16 = FILL_AREA_STYLE_COLOUR( '', #9 );
#17 = ADVANCED_FACE( '', ( #18 ), #52, .T. );
#18 = FACE_OUTER_BOUND( '', #19, .T. );
#19 = EDGE_LOOP( '', ( #20, #30, #38, #46 ) );
#20 = ORIENTED_EDGE( '', *, *, #21, .F. );
#21 = EDGE_CURVE( '', #22, #24, #26, .T. );
#22 = VERTEX_POINT( '', #23 );
#23 = CARTESIAN_POINT( '', ( -0.001432, 0.000000, 0.002500 ) );
#24 = VERTEX_POINT( '', #25 );
#25 = CARTESIAN_POINT( '', ( -0.002864, 0.000000, 1.592041E-18 ) );
#26 = LINE( '', #27, #28 );
#27 = CARTESIAN_POINT( '', ( -0.002148, 0.000000, 0.001250 ) );
#28 = VECTOR( '', #29, 1.000000 );
#29 = DIRECTION( '', ( -0.577350, 0.000000, -0.816327 ) );
#30 = ORIENTED_EDGE( '', *, *, #31, .F. );
#31 = EDGE_CURVE( '', #32, #22, #34, .T. );
#32 = VERTEX_POINT( '', #33 );
#33 = CARTESIAN_POINT( '', ( -0.001432, -0.002000, 0.002500 ) );
#34 = LINE( '', #35, #36 );
#35 = CARTESIAN_POINT( '', ( -0.001432, -0.002000, 0.002500 ) );
#36 = VECTOR( '', #37, 1.000000 );
#37 = DIRECTION( '', ( 0.000000, 1.000000, 0.000000 ) );
#38 = ORIENTED_EDGE( '', *, *, #39, .T. );
#39 = EDGE_CURVE( '', #32, #40, #42, .T. );
#40 = VERTEX_POINT( '', #41 );
#41 = CARTESIAN_POINT( '', ( -0.002864, -0.002000, 1.592041E-18 ) );
#42 = LINE( '', #43, #44 );
#43 = CARTESIAN_POINT( '', ( -0.002148, -0.002000, 0.001250 ) );
#44 = VECTOR( '', #45, 1.000000 );
#45 = DIRECTION( '', ( -0.577350, 0.000000, -0.816327 ) );
#46 = ORIENTED_EDGE( '', *, *, #47, .T. );
#47 = EDGE_CURVE( '', #40, #24, #48, .T. );
#48 = LINE( '', #49, #50 );
#49 = CARTESIAN_POINT( '', ( -0.002864, -0.002000, 1.592041E-18 ) );
#50 = VECTOR( '', #51, 1.000000 );
#51 = DIRECTION( '', ( 0.000000, 1.000000, 0.000000 ) );
#52 = PLANE( '', #53 );
#53 = AXIS2_PLACEMENT_3D( '', #54, #55, #56 );
#54 = CARTESIAN_POINT( '', ( -0.002148, -0.002000, 0.001250 ) );
#55 = DIRECTION( '', ( 0.816327, 0.000000, -0.577350 ) );
#56 = DIRECTION( '', ( -0.577350, 0.000000, -0.816327 ) );
/* END STYLED_ITEM 1 */
/* BEGIN STYLED_ITEM 2 */
/* ID_2 = 57 */
#57 = STYLED_ITEM( '', ( #58 ), #64 );
#58 = PRESENTATION_STYLE_ASSIGNMENT( ( #59 ) );
#59 = SURFACE_STYLE_USAGE( .BOTH., #60 );
#60 = SURFACE_SIDE_STYLE( '', ( #61 ) );
#61 = SURFACE_STYLE_FILL_AREA( #62 );
#62 = FILL_AREA_STYLE( '', ( #63 ) );
#63 = FILL_AREA_STYLE_COLOUR( '', #9 );
#64 = ADVANCED_FACE( '', ( #65 ), #90, .T. );
#65 = FACE_OUTER_BOUND( '', #66, .T. );
#66 = EDGE_LOOP( '', ( #67, #75, #83, #89 ) );
#67 = ORIENTED_EDGE( '', *, *, #68, .F. );
#68 = EDGE_CURVE( '', #69, #22, #71, .T. );
#69 = VERTEX_POINT( '', #70 );
#70 = CARTESIAN_POINT( '', ( 0.001432, 0.000000, 0.002500 ) );
#71 = LINE( '', #72, #73 );
#72 = CARTESIAN_POINT( '', ( 0.000000, 0.000000, 0.002500 ) );
#73 = VECTOR( '', #74, 1.000000 );
#74 = DIRECTION( '', ( -1.000000, 0.000000, 0.000000 ) );
#75 = ORIENTED_EDGE( '', *, *, #76, .F. );
#76 = EDGE_CURVE( '', #77, #69, #79, .T. );
#77 = VERTEX_POINT( '', #78 );
#78 = CARTESIAN_POINT( '', ( 0.001432, -0.002000, 0.002500 ) );
#79 = LINE( '', #80, #81 );
#80 = CARTESIAN_POINT( '', ( 0.001432, -0.002000, 0.002500 ) );
#81 = VECTOR( '', #82, 1.000000 );
#82 = DIRECTION( '', ( 0.000000, 1.000000, 0.000000 ) );
#83 = ORIENTED_EDGE( '', *, *, #84, .T. );
#84 = EDGE_CURVE( '', #77, #32, #85, .T. );
#85 = LINE( '', #86, #87 );
#86 = CARTESIAN_POINT( '', ( 0.000000, -0.002000, 0.002500 ) );
#87 = VECTOR( '', #88, 1.000000 );
#88 = DIRECTION( '', ( -1.000000, 0.000000, 0.000000 ) );
#89 = ORIENTED_EDGE( '', *, *, #31, .T. );
#90 = PLANE( '', #91 );
#91 = AXIS2_PLACEMENT_3D( '', #92, #93, #94 );
#92 = CARTESIAN_POINT( '', ( 0.000000, -0.002000, 0.002500 ) );
#93 = DIRECTION( '', ( 0.000000, 0.000000, -1.000000 ) );
#94 = DIRECTION( '', ( -1.000000, 0.000000, 0.000000 ) );
/* END STYLED_ITEM 2 */
/* BEGIN STYLED_ITEM 3 */
/* ID_3 = 95 */
#95 = STYLED_ITEM( '', ( #96 ), #102 );
#96 = PRESENTATION_STYLE_ASSIGNMENT( ( #97 ) );
#97 = SURFACE_STYLE_USAGE( .BOTH., #98 );
#98 = SURFACE_SIDE_STYLE( '', ( #99 ) );
#99 = SURFACE_STYLE_FILL_AREA( #100 );
#100 = FILL_AREA_STYLE( '', ( #101 ) );
#101 = FILL_AREA_STYLE_COLOUR( '', #9 );
#102 = ADVANCED_FACE( '', ( #103 ), #137, .T. );
#103 = FACE_OUTER_BOUND( '', #104, .T. );
#104 = EDGE_LOOP( '', ( #105, #115, #123, #131 ) );
#105 = ORIENTED_EDGE( '', *, *, #106, .F. );
#106 = EDGE_CURVE( '', #107, #109, #111, .T. );
#107 = VERTEX_POINT( '', #108 );
#108 = CARTESIAN_POINT( '', ( 0.002864, 0.000000, -5.080668E-18 ) );
#109 = VERTEX_POINT( '', #110 );
#110 = CARTESIAN_POINT( '', ( 0.001432, 0.000000, -0.002500 ) );
#111 = LINE( '', #112, #113 );
#112 = CARTESIAN_POINT( '', ( 0.002148, 0.000000, -0.001250 ) );
#113 = VECTOR( '', #114, 1.000000 );
#114 = DIRECTION( '', ( -0.577350, 0.000000, 0.816327 ) );
#115 = ORIENTED_EDGE( '', *, *, #116, .F. );
#116 = EDGE_CURVE( '', #117, #107, #119, .T. );
#117 = VERTEX_POINT( '', #118 );
#118 = CARTESIAN_POINT( '', ( 0.002864, -0.002000, -5.080668E-18 ) );
#119 = LINE( '', #120, #121 );
#120 = CARTESIAN_POINT( '', ( 0.002864, -0.002000, -5.080668E-18 ) );
#121 = VECTOR( '', #122, 1.000000 );
#122 = DIRECTION( '', ( 0.000000, 1.000000, 0.000000 ) );
#123 = ORIENTED_EDGE( '', *, *, #124, .T. );
#124 = EDGE_CURVE( '', #117, #125, #127, .T. );
#125 = VERTEX_POINT( '', #126 );
#126 = CARTESIAN_POINT( '', ( 0.001432, -0.002000, -0.002500 ) );
#127 = LINE( '', #128, #129 );
#128 = CARTESIAN_POINT( '', ( 0.002148, -0.002000, -0.001250 ) );
#129 = VECTOR( '', #130, 1.000000 );
#130 = DIRECTION( '', ( -0.577350, 0.000000, 0.816327 ) );
#131 = ORIENTED_EDGE( '', *, *, #132, .T. );
#132 = EDGE_CURVE( '', #125, #109, #133, .T. );
#133 = LINE( '', #134, #135 );
#134 = CARTESIAN_POINT( '', ( 0.001432, -0.002000, -0.002500 ) );
#135 = VECTOR( '', #136, 1.000000 );
#136 = DIRECTION( '', ( 0.000000, 1.000000, 0.000000 ) );
#137 = PLANE( '', #138 );
#138 = AXIS2_PLACEMENT_3D( '', #139, #140, #141 );
#139 = CARTESIAN_POINT( '', ( 0.002148, -0.002000, -0.001250 ) );
#140 = DIRECTION( '', ( -0.816327, 0.000000, -0.577350 ) );
#141 = DIRECTION( '', ( -0.577350, 0.000000, 0.816327 ) );
/* END STYLED_ITEM 3 */
/* BEGIN STYLED_ITEM 4 */
/* ID_4 = 142 */
#142 = STYLED_ITEM( '', ( #143 ), #149 );
#143 = PRESENTATION_STYLE_ASSIGNMENT( ( #144 ) );
#144 = SURFACE_STYLE_USAGE( .BOTH., #145 );
#145 = SURFACE_SIDE_STYLE( '', ( #146 ) );
#146 = SURFACE_STYLE_FILL_AREA( #147 );
#147 = FILL_AREA_STYLE( '', ( #148 ) );
#148 = FILL_AREA_STYLE_COLOUR( '', #9 );
#149 = ADVANCED_FACE( '', ( #150 ), #175, .T. );
#150 = FACE_OUTER_BOUND( '', #151, .T. );
#151 = EDGE_LOOP( '', ( #152, #160, #161, #169 ) );
#152 = ORIENTED_EDGE( '', *, *, #153, .F. );
#153 = EDGE_CURVE( '', #24, #154, #156, .T. );
#154 = VERTEX_POINT( '', #155 );
#155 = CARTESIAN_POINT( '', ( -0.001432, 0.000000, -0.002500 ) );
#156 = LINE( '', #157, #158 );
#157 = CARTESIAN_POINT( '', ( -0.002148, 0.000000, -0.001250 ) );
#158 = VECTOR( '', #159, 1.000000 );
#159 = DIRECTION( '', ( 0.577350, 0.000000, -0.816327 ) );
#160 = ORIENTED_EDGE( '', *, *, #47, .F. );
#161 = ORIENTED_EDGE( '', *, *, #162, .T. );
#162 = EDGE_CURVE( '', #40, #163, #165, .T. );
#163 = VERTEX_POINT( '', #164 );
#164 = CARTESIAN_POINT( '', ( -0.001432, -0.002000, -0.002500 ) );
#165 = LINE( '', #166, #167 );
#166 = CARTESIAN_POINT( '', ( -0.002148, -0.002000, -0.001250 ) );
#167 = VECTOR( '', #168, 1.000000 );
#168 = DIRECTION( '', ( 0.577350, 0.000000, -0.816327 ) );
#169 = ORIENTED_EDGE( '', *, *, #170, .T. );
#170 = EDGE_CURVE( '', #163, #154, #171, .T. );
#171 = LINE( '', #172, #173 );
#172 = CARTESIAN_POINT( '', ( -0.001432, -0.002000, -0.002500 ) );
#173 = VECTOR( '', #174, 1.000000 );
#174 = DIRECTION( '', ( 0.000000, 1.000000, 0.000000 ) );
#175 = PLANE( '', #176 );
#176 = AXIS2_PLACEMENT_3D( '', #177, #178, #179 );
#177 = CARTESIAN_POINT( '', ( -0.002148, -0.002000, -0.001250 ) );
#178 = DIRECTION( '', ( 0.816327, 0.000000, 0.577350 ) );
#179 = DIRECTION( '', ( 0.577350, 0.000000, -0.816327 ) );
/* END STYLED_ITEM 4 */
/* BEGIN STYLED_ITEM 5 */
/* ID_5 = 180 */
#180 = STYLED_ITEM( '', ( #181 ), #187 );
#181 = PRESENTATION_STYLE_ASSIGNMENT( ( #182 ) );
#182 = SURFACE_STYLE_USAGE( .BOTH., #183 );
#183 = SURFACE_SIDE_STYLE( '', ( #184 ) );
#184 = SURFACE_STYLE_FILL_AREA( #185 );
#185 = FILL_AREA_STYLE( '', ( #186 ) );
#186 = FILL_AREA_STYLE_COLOUR( '', #9 );
#187 = ADVANCED_FACE( '', ( #188 ), #213, .T. );
#188 = FACE_OUTER_BOUND( '', #189, .T. );
#189 = EDGE_LOOP( '', ( #190, #198, #199, #207 ) );
#190 = ORIENTED_EDGE( '', *, *, #191, .F. );
#191 = EDGE_CURVE( '', #109, #192, #194, .T. );
#192 = VERTEX_POINT( '', #193 );
#193 = CARTESIAN_POINT( '', ( -0.001432, 0.000000, -0.002500 ) );
#194 = LINE( '', #195, #196 );
#195 = CARTESIAN_POINT( '', ( 0.000000, 0.000000, -0.002500 ) );
#196 = VECTOR( '', #197, 1.000000 );
#197 = DIRECTION( '', ( -1.000000, 0.000000, 0.000000 ) );
#198 = ORIENTED_EDGE( '', *, *, #132, .F. );
#199 = ORIENTED_EDGE( '', *, *, #200, .T. );
#200 = EDGE_CURVE( '', #125, #201, #203, .T. );
#201 = VERTEX_POINT( '', #202 );
#202 = CARTESIAN_POINT( '', ( -0.001432, -0.002000, -0.002500 ) );
#203 = LINE( '', #204, #205 );
#204 = CARTESIAN_POINT( '', ( 0.000000, -0.002000, -0.002500 ) );
#205 = VECTOR( '', #206, 1.000000 );
#206 = DIRECTION( '', ( -1.000000, 0.000000, 0.000000 ) );
#207 = ORIENTED_EDGE( '', *, *, #208, .T. );
#208 = EDGE_CURVE( '', #201, #192, #209, .T. );
#209 = LINE( '', #210, #211 );
#210 = CARTESIAN_POINT( '', ( -0.001432, -0.002000, -0.002500 ) );
#211 = VECTOR( '', #212, 1.000000 );
#212 = DIRECTION( '', ( 0.000000, 1.000000, 0.000000 ) );
#213 = PLANE( '', #214 );
#214 = AXIS2_PLACEMENT_3D( '', #215, #216, #217 );
#215 = CARTESIAN_POINT( '', ( 0.000000, -0.002000, -0.002500 ) );
#216 = DIRECTION( '', ( 0.000000, 0.000000, -1.000000 ) );
#217 = DIRECTION( '', ( -1.000000, 0.000000, 0.000000 ) );
/* END STYLED_ITEM 5 */
/* BEGIN STYLED_ITEM 6 */
/* ID_6 = 218 */
#218 = STYLED_ITEM( '', ( #219 ), #225 );
#219 = PRESENTATION_STYLE_ASSIGNMENT( ( #220 ) );
#220 = SURFACE_STYLE_USAGE( .BOTH., #221 );
#221 = SURFACE_SIDE_STYLE( '', ( #222 ) );
#222 = SURFACE_STYLE_FILL_AREA( #223 );
#223 = FILL_AREA_STYLE( '', ( #224 ) );
#224 = FILL_AREA_STYLE_COLOUR( '', #9 );
#225 = ADVANCED_FACE( '', ( #226 ), #237, .T. );
#226 = FACE_OUTER_BOUND( '', #227, .T. );
#227 = EDGE_LOOP( '', ( #228, #234, #235, #236 ) );
#228 = ORIENTED_EDGE( '', *, *, #229, .F. );
#229 = EDGE_CURVE( '', #154, #69, #230, .T. );
#230 = LINE( '', #231, #232 );
#231 = CARTESIAN_POINT( '', ( 0.001432, 0.000000, 1.735738E-18 ) );
#232 = VECTOR( '', #233, 1.000000 );
#233 = DIRECTION( '', ( 0.000000, 0.000000, 1.000000 ) );
#234 = ORIENTED_EDGE( '', *, *, #170, .F. );
#235 = ORIENTED_EDGE( '', *, *, #200, .F. );
#236 = ORIENTED_EDGE( '', *, *, #124, .F. );
#237 = PLANE( '', #238 );
#238 = AXIS2_PLACEMENT_3D( '', #239, #240, #241 );
#239 = CARTESIAN_POINT( '', ( 0.000000, -0.002000, -1.084202E-18 ) );
#240 = DIRECTION( '', ( 0.000000, -1.000000, 0.000000 ) );
#241 = DIRECTION( '', ( 1.000000, 0.000000, 0.000000 ) );
/* END STYLED_ITEM 6 */
/* BEGIN STYLED_ITEM 7 */
/* ID_7 = 242 */
#242 = STYLED_ITEM( '', ( #243 ), #249 );
#243 = PRESENTATION_STYLE_ASSIGNMENT( ( #244 ) );
#244 = SURFACE_STYLE_USAGE( .BOTH., #245 );
#245 = SURFACE_SIDE_STYLE( '', ( #246 ) );
#246 = SURFACE_STYLE_FILL_AREA( #247 );
#247 = FILL_AREA_STYLE( '', ( #248 ) );
#248 = FILL_AREA_STYLE_COLOUR( '', #9 );
#249 = ADVANCED_FACE( '', ( #250 ), #267, .T. );
#250 = FACE_OUTER_BOUND( '', #251, .T. );
#251 = EDGE_LOOP( '', ( #252, #253, #261, #266 ) );
#252 = ORIENTED_EDGE( '', *, *, #84, .F. );
#253 = ORIENTED_EDGE( '', *, *, #254, .F. );
#254 = EDGE_CURVE( '', #255, #77, #257, .T. );
#255 = VERTEX_POINT( '', #256 );
#256 = CARTESIAN_POINT( '', ( 0.002864, -0.002000, -5.080668E-18 ) );
#257 = LINE( '', #258, #259 );
#258 = CARTESIAN_POINT( '', ( 0.002148, -0.002000, 0.001250 ) );
#259 = VECTOR( '', #260, 1.000000 );
#260 = DIRECTION( '', ( -0.577350, 0.000000, 0.816327 ) );
#261 = ORIENTED_EDGE( '', *, *, #262, .F. );
#262 = EDGE_CURVE( '', #117, #255, #263, .T. );
#263 = CIRCLE( '', #264, 0.002500 );
#264 = AXIS2_PLACEMENT_3D( '', #265, #266, #267 );
#265 = CARTESIAN_POINT( '', ( 0.000000, -0.002000, 0.000000 ) );
#266 = DIRECTION( '', ( 0.000000, -1.000000, 0.000000 ) );
#267 = PLANE( '', #268 );
#268 = AXIS2_PLACEMENT_3D( '', #269, #270, #271 );
#269 = CARTESIAN_POINT( '', ( 0.000000, -0.002000, -1.084202E-18 ) );
#270 = DIRECTION( '', ( 0.000000, -1.000000, 0.000000 ) );
#271 = DIRECTION( '', ( 1.000000, 0.000000, 0.000000 ) );
/* END STYLED_ITEM 7 */
/* BEGIN STYLED_ITEM 8 */
/* ID_8 = 272 */
#272 = STYLED_ITEM( '', ( #273 ), #279 );
#273 = PRESENTATION_STYLE_ASSIGNMENT( ( #274 ) );
#274 = SURFACE_STYLE_USAGE( .BOTH., #275 );
#275 = SURFACE_SIDE_STYLE( '', ( #276 ) );
#276 = SURFACE_STYLE_FILL_AREA( #277 );
#277 = FILL_AREA_STYLE( '', ( #278 ) );
#278 = FILL_AREA_STYLE_COLOUR( '', #9 );
#279 = ADVANCED_FACE( '', ( #280, #291 ), #302, .T. );
#280 = FACE_OUTER_BOUND( '', #281, .T. );
#281 = EDGE_LOOP( '', ( #282 ) );
#282 = ORIENTED_EDGE( '', *, *, #283, .F. );
#283 = EDGE_CURVE( '', #284, #284, #286, .T. );
#284 = VERTEX_POINT( '', #285 );
#285 = CARTESIAN_POINT( '', ( 0.002500, 0.000000, 0.000000 ) );
#286 = CIRCLE( '', #287, 0.002500 );
#287 = AXIS2_PLACEMENT_3D( '', #288, #289, #290 );
#288 = CARTESIAN_POINT( '', ( 0.000000, 0.000000, 0.000000 ) );
#289 = DIRECTION( '', ( 0.000000, -1.000000, 0.000000 ) );
#290 = DIRECTION( '', ( 1.000000, 0.000000, 0.000000 ) );
#291 = FACE_OUTER_BOUND( '', #292, .T. );
#292 = EDGE_LOOP( '', ( #293, #294, #295, #296 ) );
#293 = ORIENTED_EDGE( '', *, *, #208, .F. );
#294 = ORIENTED_EDGE( '', *, *, #20, .T. );
#295 = ORIENTED_EDGE( '', *, *, #21, .T. );
#296 = ORIENTED_EDGE( '', *, *, #297, .F. );
#297 = EDGE_CURVE( '', #192, #24, #298, .T. );
#298 = CIRCLE( '', #299, 0.002500 );
#299 = AXIS2_PLACEMENT_3D( '', #300, #301, #302 );
#300 = CARTESIAN_POINT( '', ( 0.000000, 0.000000, 0.000000 ) );
#301 = DIRECTION( '', ( 0.000000, -1.000000, 0.000000 ) );
#302 = PLANE( '', #303 );
#303 = AXIS2_PLACEMENT_3D( '', #304, #305, #306 );
#304 = CARTESIAN_POINT( '', ( 0.000000, 0.000000, -1.084202E-18 ) );
#305 = DIRECTION( '', ( 0.000000, -1.000000, 0.000000 ) );
#306 = DIRECTION( '', ( 1.000000, 0.000000, 0.000000 ) );
/* END STYLED_ITEM 8 */
/* BEGIN STYLED_ITEM 9 */
/* ID_9 = 307 */
#307 = STYLED_ITEM( '', ( #308 ), #314 );
#308 = PRESENTATION_STYLE_ASSIGNMENT( ( #309 ) );
#309 = SURFACE_STYLE_USAGE( .BOTH., #310 );
#310 = SURFACE_SIDE_STYLE( '', ( #311 ) );
#311 = SURFACE_STYLE_FILL_AREA( #312 );
#312 = FILL_AREA_STYLE( '', ( #313 ) );
#313 = FILL_AREA_STYLE_COLOUR( '', #9 );
#314 = ADVANCED_FACE( '', ( #315 ), #321, .T. );
#315 = FACE_OUTER_BOUND( '', #316, .T. );
#316 = EDGE_LOOP( '', ( #317, #318, #319, #320 ) );
#317 = ORIENTED_EDGE( '', *, *, #76, .T. );
#318 = ORIENTED_EDGE( '', *, *, #68, .T. );
#319 = ORIENTED_EDGE( '', *, *, #229, .T. );
#320 = ORIENTED_EDGE( '', *, *, #191, .T. );
#321 = PLANE( '', #322 );
#322 = AXIS2_PLACEMENT_3D( '', #323, #324, #325 );
#323 = CARTESIAN_POINT( '', ( 0.000000, 0.000000, 0.000000 ) );
#324 = DIRECTION( '', ( 0.000000, -1.000000, 0.000000 ) );
#325 = DIRECTION( '', ( 1.000000, 0.000000, 0.000000 ) );
/* END STYLED_ITEM 9 */
/* BEGIN STYLED_ITEM 10 */
/* ID_10 = 326 */
#326 = STYLED_ITEM( '', ( #327 ), #333 );
#327 = PRESENTATION_STYLE_ASSIGNMENT( ( #328 ) );
#328 = SURFACE_STYLE_USAGE( .BOTH., #329 );
#329 = SURFACE_SIDE_STYLE( '', ( #330 ) );
#330 = SURFACE_STYLE_FILL_AREA( #331 );
#331 = FILL_AREA_STYLE( '', ( #332 ) );
#332 = FILL_AREA_STYLE_COLOUR( '', #9 );
#333 = ADVANCED_FACE( '', ( #334, #337 ), #340, .T. );
#334 = FACE_OUTER_BOUND( '', #335, .T. );
#335 = EDGE_LOOP( '', ( #336 ) );
#336 = ORIENTED_EDGE( '', *, *, #283, .T. );
#337 = FACE_OUTER_BOUND( '', #338, .T. );
#338 = EDGE_LOOP( '', ( #339 ) );
#339 = ORIENTED_EDGE( '', *, *, #254, .T. );
#340 = CYLINDRICAL_SURFACE( '', #341, 0.002500 );
#341 = AXIS2_PLACEMENT_3D( '', #342, #343, #344 );
#342 = CARTESIAN_POINT( '', ( 0.000000, 0.000000, 0.000000 ) );
#343 = DIRECTION( '', ( -0.000000, 1.000000, -0.000000 ) );
#344 = DIRECTION( '', ( 0.000000, 0.000000, -1.000000 ) );
/* END STYLED_ITEM 10 */
/* BEGIN COMPLEX_ENTITY 1 */
/* ID_11 = 345 */
#345 =  ( GEOMETRIC_REPRESENTATION_CONTEXT( 3 )GLOBAL_UNCERTAINTY_ASSIGNED_CONTEXT( ( #346 ) )GLOBAL_UNIT_ASSIGNED_CONTEXT( ( #347, #351, #353 ) )REPRESENTATION_CONTEXT( 'NONE', 'WORKSPACE' ) );
#346 = UNCERTAINTY_MEASURE_WITH_UNIT( LENGTH_MEASURE( 1.000000E-17 ), #347, '', '' );
#347 =  ( CONVERSION_BASED_UNIT( 'METRE', #348 )LENGTH_UNIT(  )NAMED_UNIT( #350 ) );
#348 = LENGTH_MEASURE_WITH_UNIT( LENGTH_MEASURE( 1.000000 ), #349 );
#349 =  ( LENGTH_UNIT(  )NAMED_UNIT( #350 )SI_UNIT( $, .METRE. ) );
#350 = DIMENSIONAL_EXPONENTS( 1.000000, 0.000000, 0.000000, 0.000000, 0.000000, 0.000000, 0.000000 );
#351 =  ( NAMED_UNIT( #352 )PLANE_ANGLE_UNIT(  )SI_UNIT( $, .RADIAN. ) );
#352 = DIMENSIONAL_EXPONENTS( 0.000000, 0.000000, 0.000000, 0.000000, 0.000000, 0.000000, 0.000000 );
#353 =  ( NAMED_UNIT( #352 )SI_UNIT( $, .STERADIAN. )SOLID_ANGLE_UNIT(  ) );
/* END COMPLEX_ENTITY 1 */
/* SHAPE_DEFINITION_REPRESENTATION Section - 1 subtrees */
/* BEGIN SHAPE_DEFINITION_REPRESENTATION 1 */
#354 = SHAPE_DEFINITION_REPRESENTATION( #355, #359 );
#355 = PRODUCT_DEFINITION_SHAPE( 'NONE', 'NONE', #356 );
#356 = PRODUCT_DEFINITION( 'NONE', 'NONE', #357, #358 );
#357 = PRODUCT_DEFINITION_FORMATION_WITH_SPECIFIED_SOURCE( ' ', 'NONE', #4, .NOT_KNOWN. );
#358 = PRODUCT_DEFINITION_CONTEXT( '', #6, 'design' );
#359 = ADVANCED_BREP_SHAPE_REPRESENTATION( 'Part 1', ( #360, #362 ), #345 );
#360 = MANIFOLD_SOLID_BREP( 'Part 1', #361 );
#361 = CLOSED_SHELL( '', ( #333, #249, #102, #149, #279, #17, #64, #187, #225, #314 ) );
#362 = AXIS2_PLACEMENT_3D( '', #363, #364, #365 );
#363 = CARTESIAN_POINT( '', ( 0.000000, 0.000000, 0.000000 ) );
#364 = DIRECTION( '', ( 0.000000, 0.000000, 1.000000 ) );
#365 = DIRECTION( '', ( 1.000000, 0.000000, 0.000000 ) );
/* END SHAPE_DEFINITION_REPRESENTATION 1 */
ENDSEC;
END-ISO-10303-21;