ISO-10303-21;
HEADER;
FILE_DESCRIPTION( ( '' ), ' ' );
FILE_NAME( '/vol/tmp/translate-8579754438183730235/5ae5839f3947920fcf80d878.step', '2018-04-29T08:34:40', ( '' ), ( '' ), ' ', ' ', ' ' );
FILE_SCHEMA( ( 'AUTOMOTIVE_DESIGN { 1 0 10303 214 1 1 1 1 }' ) );
ENDSEC;
DATA;
/* PRODUCT_CATEGORY_RELATIONSHIP Section - 1 root entities */
#1 = PRODUCT_CATEGORY_RELATIONSHIP( 'NONE', 'NONE', #2, #3 );
#2 = PRODUCT_CATEGORY( 'part', 'NONE' );
#3 = PRODUCT_RELATED_PRODUCT_CATEGORY( 'detail', ' ', ( #4 ) );
#4 = PRODUCT( 'Part 1', 'Part 1', 'PART-Part 1-DESC', ( #5 ) );
#5 = PRODUCT_CONTEXT( '', #6, 'mechanical' );
#6 = APPLICATION_CONTEXT( 'core data for automotive mechanical design processes' );
#7 = APPLICATION_PROTOCOL_DEFINITION( 'international standard', 'automotive_design', 2001, #6 );
/* MECHANICAL_DESIGN_GEOMETRIC_PRESENTATION_REPRESENTATION Section - 5 STYLED_ITEM, 1 COMPLEX_ENTITY */
#8 = MECHANICAL_DESIGN_GEOMETRIC_PRESENTATION_REPRESENTATION( ' ', ( #ID_1, #ID_2, #ID_3, #ID_4, #ID_5 ), #ID_6 );
#9=COLOUR_RGB( , 0.5, 0.5, 0.5 );
/* BEGIN STYLED_ITEM 1 */
/* ID_1 = 10 */
#10 = STYLED_ITEM( '', ( #11 ), #17 );
#11 = PRESENTATION_STYLE_ASSIGNMENT( ( #12 ) );
#12 = SURFACE_STYLE_USAGE( .BOTH., #13 );
#13 = SURFACE_SIDE_STYLE( '', ( #14 ) );
#14 = SURFACE_STYLE_FILL_AREA( #15 );
#15 = FILL_AREA_STYLE( '', ( #16 ) );
#16 = FILL_AREA_STYLE_COLOUR( '', #9 );
#17 = ADVANCED_FACE( '', ( #18, #29 ), #40, .T. );
#18 = FACE_OUTER_BOUND( '', #19, .T. );
#19 = EDGE_LOOP( '', ( #20 ) );
#20 = ORIENTED_EDGE( '', *, *, #21, .F. );
#21 = EDGE_CURVE( '', #22, #22, #24, .T. );
#22 = VERTEX_POINT( '', #23 );
#23 = CARTESIAN_POINT( '', ( 0.000000, 0.000000, -0.002750 ) );
#24 = CIRCLE( '', #25, 0.002750 );
#25 = AXIS2_PLACEMENT_3D( '', #26, #27, #28 );
#26 = CARTESIAN_POINT( '', ( 0.000000, 0.000000, 0.000000 ) );
#27 = DIRECTION( '', ( 1.000000, 0.000000, 0.000000 ) );
#28 = DIRECTION( '', ( 0.000000, 0.000000, -1.000000 ) );
#29 = FACE_OUTER_BOUND( '', #30, .T. );
#30 = EDGE_LOOP( '', ( #31 ) );
#31 = ORIENTED_EDGE( '', *, *, #32, .T. );
#32 = EDGE_CURVE( '', #33, #33, #35, .T. );
#33 = VERTEX_POINT( '', #34 );
#34 = CARTESIAN_POINT( '', ( 0.000000, 0.000400, -0.002750 ) );
#35 = CIRCLE( '', #36, 0.002750 );
#36 = AXIS2_PLACEMENT_3D( '', #37, #38, #39 );
#37 = CARTESIAN_POINT( '', ( 0.000000, 0.000400, 0.000000 ) );
#38 = DIRECTION( '', ( 1.000000, 0.000000, 0.000000 ) );
#39 = DIRECTION( '', ( 0.000000, 0.000000, -1.000000 ) );
#40 = CYLINDRICAL_SURFACE( '', #41, 0.002750 );
#41 = AXIS2_PLACEMENT_3D( '', #42, #43, #44 );
#42 = CARTESIAN_POINT( '', ( 0.000000, 0.000400, 0.000000 ) );
#43 = DIRECTION( '', ( -1.000000, -0.000000, -0.000000 ) );
#44 = DIRECTION( '', ( 0.000000, 0.000000, -1.000000 ) );
/* END STYLED_ITEM 1 */
/* BEGIN STYLED_ITEM 2 */
/* ID_2 = 45 */
#45 = STYLED_ITEM( '', ( #46 ), #52 );
#46 = PRESENTATION_STYLE_ASSIGNMENT( ( #47 ) );
#47 = SURFACE_STYLE_USAGE( .BOTH., #48 );
#48 = SURFACE_SIDE_STYLE( '', ( #49 ) );
#49 = SURFACE_STYLE_FILL_AREA( #50 );
#50 = FILL_AREA_STYLE( '', ( #51 ) );
#51 = FILL_AREA_STYLE_COLOUR( '', #9 );
#52 = ADVANCED_FACE( '', ( #53, #64 ), #67, .T. );
#53 = FACE_BOUND( '', #54, .T. );
#54 = EDGE_LOOP( '', ( #55 ) );
#55 = ORIENTED_EDGE( '', *, *, #56, .F. );
#56 = EDGE_CURVE( '', #57, #57, #59, .T. );
#57 = VERTEX_POINT( '', #58 );
#58 = CARTESIAN_POINT( '', ( 0.000000, 0.002750, -0.001350 ) );
#59 = CIRCLE( '', #60, 0.001350 );
#60 = AXIS2_PLACEMENT_3D( '', #61, #62, #63 );
#61 = CARTESIAN_POINT( '', ( 0.000000, 0.002750, 0.000000 ) );
#62 = DIRECTION( '', ( 1.000000, 0.000000, 0.000000 ) );
#63 = DIRECTION( '', ( 0.000000, 0.000000, -1.000000 ) );
#64 = FACE_OUTER_BOUND( '', #65, .T. );
#65 = EDGE_LOOP( '', ( #66 ) );
#66 = ORIENTED_EDGE( '', *, *, #32, .F. );
#67 = CONICAL_SURFACE( '', #68, 0.002750, 0.785398 );
#68 = AXIS2_PLACEMENT_3D( '', #69, #70, #71 );
#69 = CARTESIAN_POINT( '', ( 0.000000, 0.000400, 0.000000 ) );
#70 = DIRECTION( '', ( -1.000000, 0.000000, -0.000000 ) );
#71 = DIRECTION( '', ( 0.000000, 0.000000, 1.000000 ) );
/* END STYLED_ITEM 2 */
/* BEGIN STYLED_ITEM 3 */
/* ID_3 = 72 */
#72 = STYLED_ITEM( '', ( #73 ), #79 );
#73 = PRESENTATION_STYLE_ASSIGNMENT( ( #74 ) );
#74 = SURFACE_STYLE_USAGE( .BOTH., #75 );
#75 = SURFACE_SIDE_STYLE( '', ( #76 ) );
#76 = SURFACE_STYLE_FILL_AREA( #77 );
#77 = FILL_AREA_STYLE( '', ( #78 ) );
#78 = FILL_AREA_STYLE_COLOUR( '', #9 );
#79 = ADVANCED_FACE( '', ( #80, #91 ), #94, .F. );
#80 = FACE_BOUND( '', #81, .T. );
#81 = EDGE_LOOP( '', ( #82 ) );
#82 = ORIENTED_EDGE( '', *, *, #83, .T. );
#83 = EDGE_CURVE( '', #84, #84, #86, .T. );
#84 = VERTEX_POINT( '', #85 );
#85 = CARTESIAN_POINT( '', ( 0.000000, 0.000000, -0.001350 ) );
#86 = CIRCLE( '', #87, 0.001350 );
#87 = AXIS2_PLACEMENT_3D( '', #88, #89, #90 );
#88 = CARTESIAN_POINT( '', ( 0.000000, 0.000000, 0.000000 ) );
#89 = DIRECTION( '', ( 1.000000, 0.000000, 0.000000 ) );
#90 = DIRECTION( '', ( 0.000000, 0.000000, -1.000000 ) );
#91 = FACE_OUTER_BOUND( '', #92, .T. );
#92 = EDGE_LOOP( '', ( #93 ) );
#93 = ORIENTED_EDGE( '', *, *, #21, .T. );
#94 = PLANE( '', #95 );
#95 = AXIS2_PLACEMENT_3D( '', #96, #97, #98 );
#96 = CARTESIAN_POINT( '', ( 0.000000, 0.000000, 0.000000 ) );
#97 = DIRECTION( '', ( -1.000000, 0.000000, 0.000000 ) );
#98 = DIRECTION( '', ( 0.000000, 0.000000, 1.000000 ) );
/* END STYLED_ITEM 3 */
/* BEGIN STYLED_ITEM 4 */
/* ID_4 = 99 */
#99 = STYLED_ITEM( '', ( #100 ), #106 );
#100 = PRESENTATION_STYLE_ASSIGNMENT( ( #101 ) );
#101 = SURFACE_STYLE_USAGE( .BOTH., #102 );
#102 = SURFACE_SIDE_STYLE( '', ( #103 ) );
#103 = SURFACE_STYLE_FILL_AREA( #104 );
#104 = FILL_AREA_STYLE( '', ( #105 ) );
#105 = FILL_AREA_STYLE_COLOUR( '', #9 );
#106 = ADVANCED_FACE( '', ( #107, #110 ), #121, .F. );
#107 = FACE_OUTER_BOUND( '', #108, .T. );
#108 = EDGE_LOOP( '', ( #109 ) );
#109 = ORIENTED_EDGE( '', *, *, #56, .T. );
#110 = FACE_OUTER_BOUND( '', #111, .T. );
#111 = EDGE_LOOP( '', ( #112 ) );
#112 = ORIENTED_EDGE( '', *, *, #113, .F. );
#113 = EDGE_CURVE( '', #114, #114, #116, .T. );
#114 = VERTEX_POINT( '', #115 );
#115 = CARTESIAN_POINT( '', ( 0.000000, 0.000400, -0.001350 ) );
#116 = CIRCLE( '', #117, 0.001350 );
#117 = AXIS2_PLACEMENT_3D( '', #118, #119, #120 );
#118 = CARTESIAN_POINT( '', ( 0.000000, 0.000400, 0.000000 ) );
#119 = DIRECTION( '', ( 1.000000, 0.000000, 0.000000 ) );
#120 = DIRECTION( '', ( 0.000000, 0.000000, -1.000000 ) );
#121 = CYLINDRICAL_SURFACE( '', #122, 0.001350 );
#122 = AXIS2_PLACEMENT_3D( '', #123, #124, #125 );
#123 = CARTESIAN_POINT( '', ( 0.000000, 0.000400, 0.000000 ) );
#124 = DIRECTION( '', ( -1.000000, -0.000000, -0.000000 ) );
#125 = DIRECTION( '', ( 0.000000, 0.000000, -1.000000 ) );
/* END STYLED_ITEM 4 */
/* BEGIN STYLED_ITEM 5 */
/* ID_5 = 126 */
#126 = STYLED_ITEM( '', ( #127 ), #133 );
#127 = PRESENTATION_STYLE_ASSIGNMENT( ( #128 ) );
#128 = SURFACE_STYLE_USAGE( .BOTH., #129 );
#129 = SURFACE_SIDE_STYLE( '', ( #130 ) );
#130 = SURFACE_STYLE_FILL_AREA( #131 );
#131 = FILL_AREA_STYLE( '', ( #132 ) );
#132 = FILL_AREA_STYLE_COLOUR( '', #9 );
#133 = ADVANCED_FACE( '', ( #134, #137 ), #140, .F. );
#134 = FACE_BOUND( '', #135, .T. );
#135 = EDGE_LOOP( '', ( #136 ) );
#136 = ORIENTED_EDGE( '', *, *, #113, .T. );
#137 = FACE_OUTER_BOUND( '', #138, .T. );
#138 = EDGE_LOOP( '', ( #139 ) );
#139 = ORIENTED_EDGE( '', *, *, #83, .F. );
#140 = PLANE( '', #141 );
#141 = AXIS2_PLACEMENT_3D( '', #142, #143, #144 );
#142 = CARTESIAN_POINT( '', ( 0.000000, 0.000000, 0.000000 ) );
#143 = DIRECTION( '', ( 1.000000, 0.000000, 0.000000 ) );
#144 = DIRECTION( '', ( 0.000000, 0.000000, -1.000000 ) );
/* END STYLED_ITEM 5 */
/* BEGIN COMPLEX_ENTITY 1 */
/* ID_6 = 145 */
#145 =  ( GEOMETRIC_REPRESENTATION_CONTEXT( 3 )GLOBAL_UNCERTAINTY_ASSIGNED_CONTEXT( ( #146 ) )GLOBAL_UNIT_ASSIGNED_CONTEXT( ( #147, #151, #153 ) )REPRESENTATION_CONTEXT( 'NONE', 'WORKSPACE' ) );
#146 = UNCERTAINTY_MEASURE_WITH_UNIT( LENGTH_MEASURE( 1.000000E-17 ), #147, '', '' );
#147 =  ( CONVERSION_BASED_UNIT( 'METRE', #148 )LENGTH_UNIT(  )NAMED_UNIT( #150 ) );
#148 = LENGTH_MEASURE_WITH_UNIT( LENGTH_MEASURE( 1.000000 ), #149 );
#149 =  ( LENGTH_UNIT(  )NAMED_UNIT( #150 )SI_UNIT( $, .METRE. ) );
#150 = DIMENSIONAL_EXPONENTS( 1.000000, 0.000000, 0.000000, 0.000000, 0.000000, 0.000000, 0.000000 );
#151 =  ( NAMED_UNIT( #152 )PLANE_ANGLE_UNIT(  )SI_UNIT( $, .RADIAN. ) );
#152 = DIMENSIONAL_EXPONENTS( 0.000000, 0.000000, 0.000000, 0.000000, 0.000000, 0.000000, 0.000000 );
#153 =  ( NAMED_UNIT( #152 )SI_UNIT( $, .STERADIAN. )SOLID_ANGLE_UNIT(  ) );
/* END COMPLEX_ENTITY 1 */
/* SHAPE_DEFINITION_REPRESENTATION Section - 1 subtrees */
/* BEGIN SHAPE_DEFINITION_REPRESENTATION 1 */
#154 = SHAPE_DEFINITION_REPRESENTATION( #155, #159 );
#155 = PRODUCT_DEFINITION_SHAPE( 'NONE', 'NONE', #156 );
#156 = PRODUCT_DEFINITION( 'NONE', 'NONE', #157, #158 );
#157 = PRODUCT_DEFINITION_FORMATION_WITH_SPECIFIED_SOURCE( ' ', 'NONE', #4, .NOT_KNOWN. );
#158 = PRODUCT_DEFINITION_CONTEXT( '', #6, 'design' );
#159 = ADVANCED_BREP_SHAPE_REPRESENTATION( 'Part 1', ( #160, #162 ), #145 );
#160 = MANIFOLD_SOLID_BREP( 'Part 1', #161 );
#161 = CLOSED_SHELL( '', ( #106, #133, #79, #17, #52 ) );
#162 = AXIS2_PLACEMENT_3D( '', #163, #164, #165 );
#163 = CARTESIAN_POINT( '', ( 0.000000, 0.000000, 0.000000 ) );
#164 = DIRECTION( '', ( 0.000000, 0.000000, 1.000000 ) );
#165 = DIRECTION( '', ( 1.000000, 0.000000, 0.000000 ) );
/* END SHAPE_DEFINITION_REPRESENTATION 1 */
ENDSEC;
END-ISO-10303-21;