ISO-10303-21;
HEADER;
FILE_DESCRIPTION( ( '' ), ' ' );
FILE_NAME( '/vol/tmp/translate-8579754438183730235/5ae5839f3947920fcf80d878.step', '2018-04-29T08:34:40', ( '' ), ( '' ), ' ', ' ', ' ' );
FILE_SCHEMA( ( 'AUTOMOTIVE_DESIGN { 1 0 10303 214 1 1 1 1 }' ) );
ENDSEC;
DATA;
/* PRODUCT_CATEGORY_RELATIONSHIP Section - 1 root entities */
#1 = PRODUCT_CATEGORY_RELATIONSHIP( 'NONE', 'NONE', #2, #3 );
#2 = PRODUCT_CATEGORY( 'part', 'NONE' );
#3 = PRODUCT_RELATED_PRODUCT_CATEGORY( 'detail', ' ', ( #4 ) );
#4 = PRODUCT( 'Part 1', 'Part 1', 'PART-Part 1-DESC', ( #5 ) );
#5 = PRODUCT_CONTEXT( '', #6, 'mechanical' );
#6 = APPLICATION_CONTEXT( 'core data for automotive mechanical design processes' );
#7 = APPLICATION_PROTOCOL_DEFINITION( 'international standard', 'automotive_design', 2001, #6 );
/* MECHANICAL_DESIGN_GEOMETRIC_PRESENTATION_REPRESENTATION Section - 11 STYLED_ITEM, 1 COMPLEX_ENTITY */
#8 = MECHANICAL_DESIGN_GEOMETRIC_PRESENTATION_REPRESENTATION( ' ', ( #ID_1, #ID_2, #ID_3, #ID_4, #ID_5, #ID_6, #ID_7, #ID_8, #ID_9, #ID_10, #ID_11 ), #ID_12 );
#9=COLOUR_RGB( , 0.5, 0.5, 0.5 );
/* BEGIN STYLED_ITEM 1 */
/* ID_1 = 10 */
#10 = STYLED_ITEM( '', ( #11 ), #17 );
#11 = PRESENTATION_STYLE_ASSIGNMENT( ( #12 ) );
#12 = SURFACE_STYLE_USAGE( .BOTH., #13 );
#13 = SURFACE_SIDE_STYLE( '', ( #14 ) );
#14 = SURFACE_STYLE_FILL_AREA( #15 );
#15 = FILL_AREA_STYLE( '', ( #16 ) );
#16 = FILL_AREA_STYLE_COLOUR( '', #9 );
#17 = ADVANCED_FACE( '', ( #18 ), #52, .F. );
#18 = FACE_OUTER_BOUND( '', #19, .T. );
#19 = EDGE_LOOP( '', ( #20, #30, #38, #46 ) );
#20 = ORIENTED_EDGE( '', *, *, #21, .T. );
#21 = EDGE_CURVE( '', #22, #24, #26, .T. );
#22 = VERTEX_POINT( '', #23 );
#23 = CARTESIAN_POINT( '', ( 0.000000, 0.000000, 0.000000 ) );
#24 = VERTEX_POINT( '', #25 );
#25 = CARTESIAN_POINT( '', ( 0.000000, 0.000000, 0.025400 ) );
#26 = LINE( '', #27, #28 );
#27 = CARTESIAN_POINT( '', ( 0.000000, 0.000000, 0.012700 ) );
#28 = VECTOR( '', #29, 1.000000 );
#29 = DIRECTION( '', ( 0.000000, 0.000000, 1.000000 ) );
#30 = ORIENTED_EDGE( '', *, *, #31, .F. );
#31 = EDGE_CURVE( '', #32, #24, #34, .T. );
#32 = VERTEX_POINT( '', #33 );
#33 = CARTESIAN_POINT( '', ( 0.000000, -0.025400, 0.025400 ) );
#34 = LINE( '', #35, #36 );
#35 = CARTESIAN_POINT( '', ( 0.000000, -0.025400, 0.025400 ) );
#36 = VECTOR( '', #37, 1.000000 );
#37 = DIRECTION( '', ( 0.000000, 1.000000, 0.000000 ) );
#38 = ORIENTED_EDGE( '', *, *, #39, .F. );
#39 = EDGE_CURVE( '', #40, #32, #42, .T. );
#40 = VERTEX_POINT( '', #41 );
#41 = CARTESIAN_POINT( '', ( 0.000000, -0.025400, 0.000000 ) );
#42 = LINE( '', #43, #44 );
#43 = CARTESIAN_POINT( '', ( 0.000000, -0.025400, 0.012700 ) );
#44 = VECTOR( '', #45, 1.000000 );
#45 = DIRECTION( '', ( 0.000000, 0.000000, 1.000000 ) );
#46 = ORIENTED_EDGE( '', *, *, #47, .T. );
#47 = EDGE_CURVE( '', #40, #22, #48, .T. );
#48 = LINE( '', #49, #50 );
#49 = CARTESIAN_POINT( '', ( 0.000000, -0.025400, 0.000000 ) );
#50 = VECTOR( '', #51, 1.000000 );
#51 = DIRECTION( '', ( 0.000000, 1.000000, 0.000000 ) );
#52 = PLANE( '', #53 );
#53 = AXIS2_PLACEMENT_3D( '', #54, #55, #56 );
#54 = CARTESIAN_POINT( '', ( 0.000000, -0.025400, 0.012700 ) );
#55 = DIRECTION( '', ( -1.000000, 0.000000, 0.000000 ) );
#56 = DIRECTION( '', ( 0.000000, 0.000000, 1.000000 ) );
/* END STYLED_ITEM 1 */
/* BEGIN STYLED_ITEM 2 */
/* ID_2 = 57 */
#57 = STYLED_ITEM( '', ( #58 ), #64 );
#58 = PRESENTATION_STYLE_ASSIGNMENT( ( #59 ) );
#59 = SURFACE_STYLE_USAGE( .BOTH., #60 );
#60 = SURFACE_SIDE_STYLE( '', ( #61 ) );
#61 = SURFACE_STYLE_FILL_AREA( #62 );
#62 = FILL_AREA_STYLE( '', ( #63 ) );
#63 = FILL_AREA_STYLE_COLOUR( '', #9 );
#64 = ADVANCED_FACE( '', ( #65 ), #99, .T. );
#65 = FACE_OUTER_BOUND( '', #66, .T. );
#66 = EDGE_LOOP( '', ( #67, #77, #85, #93 ) );
#67 = ORIENTED_EDGE( '', *, *, #68, .F. );
#68 = EDGE_CURVE( '', #69, #71, #73, .T. );
#69 = VERTEX_POINT( '', #70 );
#70 = CARTESIAN_POINT( '', ( 0.025400, 0.000000, 0.000000 ) );
#71 = VERTEX_POINT( '', #72 );
#72 = CARTESIAN_POINT( '', ( 0.025400, 0.000000, 0.025400 ) );
#73 = LINE( '', #74, #75 );
#74 = CARTESIAN_POINT( '', ( 0.025400, 0.000000, 0.012700 ) );
#75 = VECTOR( '', #76, 1.000000 );
#76 = DIRECTION( '', ( -1.836970E-16, 0.000000, 1.000000 ) );
#77 = ORIENTED_EDGE( '', *, *, #78, .F. );
#78 = EDGE_CURVE( '', #79, #69, #81, .T. );
#79 = VERTEX_POINT( '', #80 );
#80 = CARTESIAN_POINT( '', ( 0.025400, -0.025400, 0.000000 ) );
#81 = LINE( '', #82, #83 );
#82 = CARTESIAN_POINT( '', ( 0.025400, -0.025400, 0.000000 ) );
#83 = VECTOR( '', #84, 1.000000 );
#84 = DIRECTION( '', ( 0.000000, 1.000000, 0.000000 ) );
#85 = ORIENTED_EDGE( '', *, *, #86, .T. );
#86 = EDGE_CURVE( '', #79, #87, #89, .T. );
#87 = VERTEX_POINT( '', #88 );
#88 = CARTESIAN_POINT( '', ( 0.025400, -0.025400, 0.025400 ) );
#89 = LINE( '', #90, #91 );
#90 = CARTESIAN_POINT( '', ( 0.025400, -0.025400, 0.012700 ) );
#91 = VECTOR( '', #92, 1.000000 );
#92 = DIRECTION( '', ( -1.836970E-16, 0.000000, 1.000000 ) );
#93 = ORIENTED_EDGE( '', *, *, #94, .T. );
#94 = EDGE_CURVE( '', #87, #71, #95, .T. );
#95 = LINE( '', #96, #97 );
#96 = CARTESIAN_POINT( '', ( 0.025400, -0.025400, 0.025400 ) );
#97 = VECTOR( '', #98, 1.000000 );
#98 = DIRECTION( '', ( 0.000000, 1.000000, 0.000000 ) );
#99 = PLANE( '', #100 );
#100 = AXIS2_PLACEMENT_3D( '', #101, #102, #103 );
#101 = CARTESIAN_POINT( '', ( 0.025400, -0.025400, 0.012700 ) );
#102 = DIRECTION( '', ( -1.000000, 0.000000, -1.836970E-16 ) );
#103 = DIRECTION( '', ( -1.836970E-16, 0.000000, 1.000000 ) );
/* END STYLED_ITEM 2 */
/* BEGIN STYLED_ITEM 3 */
/* ID_3 = 104 */
#104 = STYLED_ITEM( '', ( #105 ), #111 );
#105 = PRESENTATION_STYLE_ASSIGNMENT( ( #106 ) );
#106 = SURFACE_STYLE_USAGE( .BOTH., #107 );
#107 = SURFACE_SIDE_STYLE( '', ( #108 ) );
#108 = SURFACE_STYLE_FILL_AREA( #109 );
#109 = FILL_AREA_STYLE( '', ( #110 ) );
#110 = FILL_AREA_STYLE_COLOUR( '', #9 );
#111 = ADVANCED_FACE( '', ( #112 ), #137, .F. );
#112 = FACE_OUTER_BOUND( '', #113, .T. );
#113 = EDGE_LOOP( '', ( #114, #122, #130, #136 ) );
#114 = ORIENTED_EDGE( '', *, *, #115, .T. );
#115 = EDGE_CURVE( '', #24, #116, #118, .T. );
#116 = VERTEX_POINT( '', #117 );
#117 = CARTESIAN_POINT( '', ( 0.050800, 0.000000, 0.025400 ) );
#118 = LINE( '', #119, #120 );
#119 = CARTESIAN_POINT( '', ( 0.0254001, 0.000000, 0.025400 ) );
#120 = VECTOR( '', #121, 1.000000 );
#121 = DIRECTION( '', ( 1.000000, 0.000000, 0.000000 ) );
#122 = ORIENTED_EDGE( '', *, *, #123, .F. );
#123 = EDGE_CURVE( '', #124, #116, #126, .T. );
#124 = VERTEX_POINT( '', #125 );
#125 = CARTESIAN_POINT( '', ( 0.050800, -0.025400, 0.025400 ) );
#126 = LINE( '', #127, #128 );
#127 = CARTESIAN_POINT( '', ( 0.050800, -0.025400, 0.025400 ) );
#128 = VECTOR( '', #129, 1.000000 );
#129 = DIRECTION( '', ( 0.000000, 1.000000, 0.000000 ) );
#130 = ORIENTED_EDGE( '', *, *, #131, .F. );
#131 = EDGE_CURVE( '', #32, #124, #132, .T. );
#132 = LINE( '', #133, #134 );
#133 = CARTESIAN_POINT( '', ( 0.0254001, -0.025400, 0.025400 ) );
#134 = VECTOR( '', #135, 1.000000 );
#135 = DIRECTION( '', ( 1.000000, 0.000000, 0.000000 ) );
#136 = ORIENTED_EDGE( '', *, *, #31, .T. );
#137 = PLANE( '', #138 );
#138 = AXIS2_PLACEMENT_3D( '', #139, #140, #141 );
#139 = CARTESIAN_POINT( '', ( 0.0254001, -0.025400, 0.025400 ) );
#140 = DIRECTION( '', ( 0.000000, 0.000000, 1.000000 ) );
#141 = DIRECTION( '', ( 1.000000, 0.000000, 0.000000 ) );
/* END STYLED_ITEM 3 */
/* BEGIN STYLED_ITEM 4 */
/* ID_4 = 142 */
#142 = STYLED_ITEM( '', ( #143 ), #149 );
#143 = PRESENTATION_STYLE_ASSIGNMENT( ( #144 ) );
#144 = SURFACE_STYLE_USAGE( .BOTH., #145 );
#145 = SURFACE_SIDE_STYLE( '', ( #146 ) );
#146 = SURFACE_STYLE_FILL_AREA( #147 );
#147 = FILL_AREA_STYLE( '', ( #148 ) );
#148 = FILL_AREA_STYLE_COLOUR( '', #9 );
#149 = ADVANCED_FACE( '', ( #150 ), #175, .T. );
#150 = FACE_OUTER_BOUND( '', #151, .T. );
#151 = EDGE_LOOP( '', ( #152, #160, #161, #169 ) );
#152 = ORIENTED_EDGE( '', *, *, #153, .F. );
#153 = EDGE_CURVE( '', #71, #154, #156, .T. );
#154 = VERTEX_POINT( '', #155 );
#155 = CARTESIAN_POINT( '', ( 0.050800, 0.000000, 0.025400 ) );
#156 = LINE( '', #157, #158 );
#157 = CARTESIAN_POINT( '', ( 0.0254001, 0.000000, 0.025400 ) );
#158 = VECTOR( '', #159, 1.000000 );
#159 = DIRECTION( '', ( 1.000000, 0.000000, 0.000000 ) );
#160 = ORIENTED_EDGE( '', *, *, #94, .F. );
#161 = ORIENTED_EDGE( '', *, *, #162, .T. );
#162 = EDGE_CURVE( '', #87, #163, #165, .T. );
#163 = VERTEX_POINT( '', #164 );
#164 = CARTESIAN_POINT( '', ( 0.050800, -0.025400, 0.025400 ) );
#165 = LINE( '', #166, #167 );
#166 = CARTESIAN_POINT( '', ( 0.0254001, -0.025400, 0.025400 ) );
#167 = VECTOR( '', #168, 1.000000 );
#168 = DIRECTION( '', ( 1.000000, 0.000000, 0.000000 ) );
#169 = ORIENTED_EDGE( '', *, *, #170, .T. );
#170 = EDGE_CURVE( '', #163, #154, #171, .T. );
#171 = LINE( '', #172, #173 );
#172 = CARTESIAN_POINT( '', ( 0.050800, -0.025400, 0.025400 ) );
#173 = VECTOR( '', #174, 1.000000 );
#174 = DIRECTION( '', ( 0.000000, 1.000000, 0.000000 ) );
#175 = PLANE( '', #176 );
#176 = AXIS2_PLACEMENT_3D( '', #177, #178, #179 );
#177 = CARTESIAN_POINT( '', ( 0.0254001, -0.025400, 0.025400 ) );
#178 = DIRECTION( '', ( 0.000000, 0.000000, 1.000000 ) );
#179 = DIRECTION( '', ( 1.000000, 0.000000, 0.000000 ) );
/* END STYLED_ITEM 4 */
/* BEGIN STYLED_ITEM 5 */
/* ID_5 = 180 */
#180 = STYLED_ITEM( '', ( #181 ), #187 );
#181 = PRESENTATION_STYLE_ASSIGNMENT( ( #182 ) );
#182 = SURFACE_STYLE_USAGE( .BOTH., #183 );
#183 = SURFACE_SIDE_STYLE( '', ( #184 ) );
#184 = SURFACE_STYLE_FILL_AREA( #185 );
#185 = FILL_AREA_STYLE( '', ( #186 ) );
#186 = FILL_AREA_STYLE_COLOUR( '', #9 );
#187 = ADVANCED_FACE( '', ( #188 ), #222, .T. );
#188 = FACE_OUTER_BOUND( '', #189, .T. );
#189 = EDGE_LOOP( '', ( #190, #200, #208, #216 ) );
#190 = ORIENTED_EDGE( '', *, *, #191, .F. );
#191 = EDGE_CURVE( '', #192, #194, #196, .T. );
#192 = VERTEX_POINT( '', #193 );
#193 = CARTESIAN_POINT( '', ( 0.006350, 0.000000, 0.006350 ) );
#194 = VERTEX_POINT( '', #195 );
#195 = CARTESIAN_POINT( '', ( 0.050800, 0.000000, 0.006350 ) );
#196 = LINE( '', #197, #198 );
#197 = CARTESIAN_POINT( '', ( 0.0254001, 0.000000, 0.006350 ) );
#198 = VECTOR( '', #199, 1.000000 );
#199 = DIRECTION( '', ( 1.000000, 0.000000, 0.000000 ) );
#200 = ORIENTED_EDGE( '', *, *, #201, .F. );
#201 = EDGE_CURVE( '', #202, #192, #204, .T. );
#202 = VERTEX_POINT( '', #203 );
#203 = CARTESIAN_POINT( '', ( 0.006350, -0.025400, 0.006350 ) );
#204 = LINE( '', #205, #206 );
#205 = CARTESIAN_POINT( '', ( 0.006350, -0.025400, 0.006350 ) );
#206 = VECTOR( '', #207, 1.000000 );
#207 = DIRECTION( '', ( 0.000000, 1.000000, 0.000000 ) );
#208 = ORIENTED_EDGE( '', *, *, #209, .T. );
#209 = EDGE_CURVE( '', #202, #210, #212, .T. );
#210 = VERTEX_POINT( '', #211 );
#211 = CARTESIAN_POINT( '', ( 0.050800, -0.025400, 0.006350 ) );
#212 = LINE( '', #213, #214 );
#213 = CARTESIAN_POINT( '', ( 0.0254001, -0.025400, 0.006350 ) );
#214 = VECTOR( '', #215, 1.000000 );
#215 = DIRECTION( '', ( 1.000000, 0.000000, 0.000000 ) );
#216 = ORIENTED_EDGE( '', *, *, #217, .T. );
#217 = EDGE_CURVE( '', #210, #194, #218, .T. );
#218 = LINE( '', #219, #220 );
#219 = CARTESIAN_POINT( '', ( 0.050800, -0.025400, 0.006350 ) );
#220 = VECTOR( '', #221, 1.000000 );
#221 = DIRECTION( '', ( 0.000000, 1.000000, 0.000000 ) );
#222 = PLANE( '', #223 );
#223 = AXIS2_PLACEMENT_3D( '', #224, #225, #226 );
#224 = CARTESIAN_POINT( '', ( 0.0254001, -0.025400, 0.006350 ) );
#225 = DIRECTION( '', ( 0.000000, 0.000000, 1.000000 ) );
#226 = DIRECTION( '', ( 1.000000, 0.000000, 0.000000 ) );
/* END STYLED_ITEM 5 */
/* BEGIN STYLED_ITEM 6 */
/* ID_6 = 227 */
#227 = STYLED_ITEM( '', ( #228 ), #234 );
#228 = PRESENTATION_STYLE_ASSIGNMENT( ( #229 ) );
#229 = SURFACE_STYLE_USAGE( .BOTH., #230 );
#230 = SURFACE_SIDE_STYLE( '', ( #231 ) );
#231 = SURFACE_STYLE_FILL_AREA( #232 );
#232 = FILL_AREA_STYLE( '', ( #233 ) );
#233 = FILL_AREA_STYLE_COLOUR( '', #9 );
#234 = ADVANCED_FACE( '', ( #235 ), #260, .F. );
#235 = FACE_OUTER_BOUND( '', #236, .T. );
#236 = EDGE_LOOP( '', ( #237, #245, #253, #259 ) );
#237 = ORIENTED_EDGE( '', *, *, #238, .T. );
#238 = EDGE_CURVE( '', #69, #239, #241, .T. );
#239 = VERTEX_POINT( '', #240 );
#240 = CARTESIAN_POINT( '', ( 0.050800, 0.000000, 0.000000 ) );
#241 = LINE( '', #242, #243 );
#242 = CARTESIAN_POINT( '', ( 0.0254001, 0.000000, 0.000000 ) );
#243 = VECTOR( '', #244, 1.000000 );
#244 = DIRECTION( '', ( 1.000000, 0.000000, 0.000000 ) );
#245 = ORIENTED_EDGE( '', *, *, #246, .F. );
#246 = EDGE_CURVE( '', #247, #239, #249, .T. );
#247 = VERTEX_POINT( '', #248 );
#248 = CARTESIAN_POINT( '', ( 0.050800, -0.025400, 0.000000 ) );
#249 = LINE( '', #250, #251 );
#250 = CARTESIAN_POINT( '', ( 0.050800, -0.025400, 0.000000 ) );
#251 = VECTOR( '', #252, 1.000000 );
#252 = DIRECTION( '', ( 0.000000, 1.000000, 0.000000 ) );
#253 = ORIENTED_EDGE( '', *, *, #254, .F. );
#254 = EDGE_CURVE( '', #79, #247, #255, .T. );
#255 = LINE( '', #256, #257 );
#256 = CARTESIAN_POINT( '', ( 0.0254001, -0.025400, 0.000000 ) );
#257 = VECTOR( '', #258, 1.000000 );
#258 = DIRECTION( '', ( 1.000000, 0.000000, 0.000000 ) );
#259 = ORIENTED_EDGE( '', *, *, #78, .T. );
#260 = PLANE( '', #261 );
#261 = AXIS2_PLACEMENT_3D( '', #262, #263, #264 );
#262 = CARTESIAN_POINT( '', ( 0.0254001, -0.025400, 0.000000 ) );
#263 = DIRECTION( '', ( 0.000000, 0.000000, 1.000000 ) );
#264 = DIRECTION( '', ( 1.000000, 0.000000, 0.000000 ) );
/* END STYLED_ITEM 6 */
/* BEGIN STYLED_ITEM 7 */
/* ID_7 = 265 */
#265 = STYLED_ITEM( '', ( #266 ), #272 );
#266 = PRESENTATION_STYLE_ASSIGNMENT( ( #267 ) );
#267 = SURFACE_STYLE_USAGE( .BOTH., #268 );
#268 = SURFACE_SIDE_STYLE( '', ( #269 ) );
#269 = SURFACE_STYLE_FILL_AREA( #270 );
#270 = FILL_AREA_STYLE( '', ( #271 ) );
#271 = FILL_AREA_STYLE_COLOUR( '', #9 );
#272 = ADVANCED_FACE( '', ( #273 ), #289, .F. );
#273 = FACE_OUTER_BOUND( '', #274, .T. );
#274 = EDGE_LOOP( '', ( #275, #281, #282, #288 ) );
#275 = ORIENTED_EDGE( '', *, *, #276, .T. );
#276 = EDGE_CURVE( '', #116, #154, #277, .T. );
#277 = LINE( '', #278, #279 );
#278 = CARTESIAN_POINT( '', ( 0.050800, 0.000000, 0.012700 ) );
#279 = VECTOR( '', #280, 1.000000 );
#280 = DIRECTION( '', ( -1.836970E-16, 0.000000, 1.000000 ) );
#281 = ORIENTED_EDGE( '', *, *, #170, .F. );
#282 = ORIENTED_EDGE( '', *, *, #283, .F. );
#283 = EDGE_CURVE( '', #124, #163, #284, .T. );
#284 = LINE( '', #285, #286 );
#285 = CARTESIAN_POINT( '', ( 0.050800, -0.025400, 0.012700 ) );
#286 = VECTOR( '', #287, 1.000000 );
#287 = DIRECTION( '', ( -1.836970E-16, 0.000000, 1.000000 ) );
#288 = ORIENTED_EDGE( '', *, *, #123, .T. );
#289 = PLANE( '', #290 );
#290 = AXIS2_PLACEMENT_3D( '', #291, #292, #293 );
#291 = CARTESIAN_POINT( '', ( 0.050800, -0.025400, 0.012700 ) );
#292 = DIRECTION( '', ( -1.000000, 0.000000, -1.836970E-16 ) );
#293 = DIRECTION( '', ( -1.836970E-16, 0.000000, 1.000000 ) );
/* END STYLED_ITEM 7 */
/* BEGIN STYLED_ITEM 8 */
/* ID_8 = 294 */
#294 = STYLED_ITEM( '', ( #295 ), #301 );
#295 = PRESENTATION_STYLE_ASSIGNMENT( ( #296 ) );
#296 = SURFACE_STYLE_USAGE( .BOTH., #297 );
#297 = SURFACE_SIDE_STYLE( '', ( #298 ) );
#298 = SURFACE_STYLE_FILL_AREA( #299 );
#299 = FILL_AREA_STYLE( '', ( #300 ) );
#300 = FILL_AREA_STYLE_COLOUR( '', #9 );
#301 = ADVANCED_FACE( '', ( #302 ), #318, .T. );
#302 = FACE_OUTER_BOUND( '', #303, .T. );
#303 = EDGE_LOOP( '', ( #304, #310, #311, #317 ) );
#304 = ORIENTED_EDGE( '', *, *, #305, .F. );
#305 = EDGE_CURVE( '', #22, #192, #306, .T. );
#306 = LINE( '', #307, #308 );
#307 = CARTESIAN_POINT( '', ( 0.006350, 0.000000, 0.012700 ) );
#308 = VECTOR( '', #309, 1.000000 );
#309 = DIRECTION( '', ( 0.000000, 0.000000, 1.000000 ) );
#310 = ORIENTED_EDGE( '', *, *, #47, .F. );
#311 = ORIENTED_EDGE( '', *, *, #312, .T. );
#312 = EDGE_CURVE( '', #40, #202, #313, .T. );
#313 = LINE( '', #314, #315 );
#314 = CARTESIAN_POINT( '', ( 0.006350, -0.025400, 0.012700 ) );
#315 = VECTOR( '', #316, 1.000000 );
#316 = DIRECTION( '', ( 0.000000, 0.000000, 1.000000 ) );
#317 = ORIENTED_EDGE( '', *, *, #201, .T. );
#318 = PLANE( '', #319 );
#319 = AXIS2_PLACEMENT_3D( '', #320, #321, #322 );
#320 = CARTESIAN_POINT( '', ( 0.006350, -0.025400, 0.012700 ) );
#321 = DIRECTION( '', ( -1.000000, 0.000000, 0.000000 ) );
#322 = DIRECTION( '', ( 0.000000, 0.000000, 1.000000 ) );
/* END STYLED_ITEM 8 */
/* BEGIN STYLED_ITEM 9 */
/* ID_9 = 323 */
#323 = STYLED_ITEM( '', ( #324 ), #330 );
#324 = PRESENTATION_STYLE_ASSIGNMENT( ( #325 ) );
#325 = SURFACE_STYLE_USAGE( .BOTH., #326 );
#326 = SURFACE_SIDE_STYLE( '', ( #327 ) );
#327 = SURFACE_STYLE_FILL_AREA( #328 );
#328 = FILL_AREA_STYLE( '', ( #329 ) );
#329 = FILL_AREA_STYLE_COLOUR( '', #9 );
#330 = ADVANCED_FACE( '', ( #331, #342 ), #348, .T. );
#331 = FACE_BOUND( '', #332, .T. );
#332 = EDGE_LOOP( '', ( #333, #334, #335, #336 ) );
#333 = ORIENTED_EDGE( '', *, *, #238, .F. );
#334 = ORIENTED_EDGE( '', *, *, #68, .T. );
#335 = ORIENTED_EDGE( '', *, *, #153, .T. );
#336 = ORIENTED_EDGE( '', *, *, #337, .F. );
#337 = EDGE_CURVE( '', #239, #154, #338, .T. );
#338 = LINE( '', #339, #340 );
#339 = CARTESIAN_POINT( '', ( 0.050800, 0.000000, 0.012700 ) );
#340 = VECTOR( '', #341, 1.000000 );
#341 = DIRECTION( '', ( -1.836970E-16, 0.000000, 1.000000 ) );
#342 = FACE_OUTER_BOUND( '', #343, .T. );
#343 = EDGE_LOOP( '', ( #344, #345, #346, #347 ) );
#344 = ORIENTED_EDGE( '', *, *, #305, .T. );
#345 = ORIENTED_EDGE( '', *, *, #191, .T. );
#346 = ORIENTED_EDGE( '', *, *, #217, .F. );
#347 = ORIENTED_EDGE( '', *, *, #283, .T. );
#348 = PLANE( '', #349 );
#349 = AXIS2_PLACEMENT_3D( '', #350, #351, #352 );
#350 = CARTESIAN_POINT( '', ( 0.025400, 0.000000, 0.012700 ) );
#351 = DIRECTION( '', ( 0.000000, -1.000000, 0.000000 ) );
#352 = DIRECTION( '', ( 1.000000, 0.000000, 0.000000 ) );
/* END STYLED_ITEM 9 */
/* BEGIN STYLED_ITEM 10 */
/* ID_10 = 353 */
#353 = STYLED_ITEM( '', ( #354 ), #360 );
#354 = PRESENTATION_STYLE_ASSIGNMENT( ( #355 ) );
#355 = SURFACE_STYLE_USAGE( .BOTH., #356 );
#356 = SURFACE_SIDE_STYLE( '', ( #357 ) );
#357 = SURFACE_STYLE_FILL_AREA( #358 );
#358 = FILL_AREA_STYLE( '', ( #359 ) );
#359 = FILL_AREA_STYLE_COLOUR( '', #9 );
#360 = ADVANCED_FACE( '', ( #361 ), #367, .T. );
#361 = FACE_OUTER_BOUND( '', #362, .T. );
#362 = EDGE_LOOP( '', ( #363, #364, #365, #366 ) );
#363 = ORIENTED_EDGE( '', *, *, #337, .T. );
#364 = ORIENTED_EDGE( '', *, *, #176, .F. );
#365 = ORIENTED_EDGE( '', *, *, #131, .T. );
#366 = ORIENTED_EDGE( '', *, *, #276, .F. );
#367 = PLANE( '', #368 );
#368 = AXIS2_PLACEMENT_3D( '', #369, #370, #371 );
#369 = CARTESIAN_POINT( '', ( 0.050800, -0.025400, 0.012700 ) );
#370 = DIRECTION( '', ( -1.000000, 0.000000, -1.836970E-16 ) );
#371 = DIRECTION( '', ( -1.836970E-16, 0.000000, 1.000000 ) );
/* END STYLED_ITEM 10 */
/* BEGIN STYLED_ITEM 11 */
/* ID_11 = 372 */
#372 = STYLED_ITEM( '', ( #373 ), #379 );
#373 = PRESENTATION_STYLE_ASSIGNMENT( ( #374 ) );
#374 = SURFACE_STYLE_USAGE( .BOTH., #375 );
#375 = SURFACE_SIDE_STYLE( '', ( #376 ) );
#376 = SURFACE_STYLE_FILL_AREA( #377 );
#377 = FILL_AREA_STYLE( '', ( #378 ) );
#378 = FILL_AREA_STYLE_COLOUR( '', #9 );
#379 = ADVANCED_FACE( '', ( #380 ), #386, .F. );
#380 = FACE_OUTER_BOUND( '', #381, .T. );
#381 = EDGE_LOOP( '', ( #382, #383, #384, #385 ) );
#382 = ORIENTED_EDGE( '', *, *, #312, .F. );
#383 = ORIENTED_EDGE( '', *, *, #39, .T. );
#384 = ORIENTED_EDGE( '', *, *, #16, .T. );
#385 = ORIENTED_EDGE( '', *, *, #86, .F. );
#386 = PLANE( '', #387 );
#387 = AXIS2_PLACEMENT_3D( '', #388, #389, #390 );
#388 = CARTESIAN_POINT( '', ( 0.025400, -0.025400, 0.012700 ) );
#389 = DIRECTION( '', ( 0.000000, -1.000000, 0.000000 ) );
#390 = DIRECTION( '', ( 1.000000, 0.000000, 0.000000 ) );
/* END STYLED_ITEM 11 */
/* BEGIN COMPLEX_ENTITY 1 */
/* ID_12 = 391 */
#391 =  ( GEOMETRIC_REPRESENTATION_CONTEXT( 3 )GLOBAL_UNCERTAINTY_ASSIGNED_CONTEXT( ( #392 ) )GLOBAL_UNIT_ASSIGNED_CONTEXT( ( #393, #397, #399 ) )REPRESENTATION_CONTEXT( 'NONE', 'WORKSPACE' ) );
#392 = UNCERTAINTY_MEASURE_WITH_UNIT( LENGTH_MEASURE( 1.000000E-17 ), #393, '', '' );
#393 =  ( CONVERSION_BASED_UNIT( 'METRE', #394 )LENGTH_UNIT(  )NAMED_UNIT( #396 ) );
#394 = LENGTH_MEASURE_WITH_UNIT( LENGTH_MEASURE( 1.000000 ), #395 );
#395 =  ( LENGTH_UNIT(  )NAMED_UNIT( #396 )SI_UNIT( $, .METRE. ) );
#396 = DIMENSIONAL_EXPONENTS( 1.000000, 0.000000, 0.000000, 0.000000, 0.000000, 0.000000, 0.000000 );
#397 =  ( NAMED_UNIT( #398 )PLANE_ANGLE_UNIT(  )SI_UNIT( $, .RADIAN. ) );
#398 = DIMENSIONAL_EXPONENTS( 0.000000, 0.000000, 0.000000, 0.000000, 0.000000, 0.000000, 0.000000 );
#399 =  ( NAMED_UNIT( #398 )SI_UNIT( $, .STERADIAN. )SOLID_ANGLE_UNIT(  ) );
/* END COMPLEX_ENTITY 1 */
/* SHAPE_DEFINITION_REPRESENTATION Section - 1 subtrees */
/* BEGIN SHAPE_DEFINITION_REPRESENTATION 1 */
#400 = SHAPE_DEFINITION_REPRESENTATION( #401, #405 );
#401 = PRODUCT_DEFINITION_SHAPE( 'NONE', 'NONE', #402 );
#402 = PRODUCT_DEFINITION( 'NONE', 'NONE', #403, #404 );
#403 = PRODUCT_DEFINITION_FORMATION_WITH_SPECIFIED_SOURCE( ' ', 'NONE', #4, .NOT_KNOWN. );
#404 = PRODUCT_DEFINITION_CONTEXT( '', #6, 'design' );
#405 = ADVANCED_BREP_SHAPE_REPRESENTATION( 'Part 1', ( #406, #408 ), #391 );
#406 = MANIFOLD_SOLID_BREP( 'Part 1', #407 );
#407 = CLOSED_SHELL( '', ( #330, #360, #111, #149, #64, #17, #379, #187, #234, #272, #301 ) );
#408 = AXIS2_PLACEMENT_3D( '', #409, #410, #411 );
#409 = CARTESIAN_POINT( '', ( 0.000000, 0.000000, 0.000000 ) );
#410 = DIRECTION( '', ( 0.000000, 0.000000, 1.000000 ) );
#411 = DIRECTION( '', ( 1.000000, 0.000000, 0.000000 ) );
/* END SHAPE_DEFINITION_REPRESENTATION 1 */
ENDSEC;
END-ISO-10303-21;