ISO-10303-21;
HEADER;
FILE_DESCRIPTION( ( '' ), ' ' );
FILE_NAME( '/vol/tmp/translate-8579754438183730235/5ae5839f3947920fcf80d878.step', '2018-04-29T08:34:40', ( '' ), ( '' ), ' ', ' ', ' ' );
FILE_SCHEMA( ( 'AUTOMOTIVE_DESIGN { 1 0 10303 214 1 1 1 1 }' ) );
ENDSEC;
DATA;
/* PRODUCT_CATEGORY_RELATIONSHIP Section - 1 root entities */
#1 = PRODUCT_CATEGORY_RELATIONSHIP( 'NONE', 'NONE', #2, #3 );
#2 = PRODUCT_CATEGORY( 'part', 'NONE' );
#3 = PRODUCT_RELATED_PRODUCT_CATEGORY( 'detail', ' ', ( #4 ) );
#4 = PRODUCT( 'Part 1', 'Part 1', 'PART-Part 1-DESC', ( #5 ) );
#5 = PRODUCT_CONTEXT( '', #6, 'mechanical' );
#6 = APPLICATION_CONTEXT( 'core data for automotive mechanical design processes' );
#7 = APPLICATION_PROTOCOL_DEFINITION( 'international standard', 'automotive_design', 2001, #6 );
/* MECHANICAL_DESIGN_GEOMETRIC_PRESENTATION_REPRESENTATION Section - 9 STYLED_ITEM, 1 COMPLEX_ENTITY */
#8 = MECHANICAL_DESIGN_GEOMETRIC_PRESENTATION_REPRESENTATION( ' ', ( #ID_1, #ID_2, #ID_3, #ID_4, #ID_5, #ID_6, #ID_7, #ID_8, #ID_9 ), #ID_10 );
#9=COLOUR_RGB( , 0.5, 0.5, 0.5 );
/* BEGIN STYLED_ITEM 1 */
/* ID_1 = 10 */
#10 = STYLED_ITEM( '', ( #11 ), #17 );
#11 = PRESENTATION_STYLE_ASSIGNMENT( ( #12 ) );
#12 = SURFACE_STYLE_USAGE( .BOTH., #13 );
#13 = SURFACE_SIDE_STYLE( '', ( #14 ) );
#14 = SURFACE_STYLE_FILL_AREA( #15 );
#15 = FILL_AREA_STYLE( '', ( #16 ) );
#16 = FILL_AREA_STYLE_COLOUR( '', #9 );
#17 = ADVANCED_FACE( '', ( #18, #29 ), #40, .F. );
#18 = FACE_OUTER_BOUND( '', #19, .T. );
#19 = EDGE_LOOP( '', ( #20 ) );
#20 = ORIENTED_EDGE( '', *, *, #21, .T. );
#21 = EDGE_CURVE( '', #22, #22, #24, .T. );
#22 = VERTEX_POINT( '', #23 );
#23 = CARTESIAN_POINT( '', ( 0.002540, 0.000000, 0.007938 ) );
#24 = CIRCLE( '', #25, 0.002540 );
#25 = AXIS2_PLACEMENT_3D( '', #26, #27, #28 );
#26 = CARTESIAN_POINT( '', ( 0.000000, 0.000000, 0.007938 ) );
#27 = DIRECTION( '', ( 0.000000, 0.000000, 1.000000 ) );
#28 = DIRECTION( '', ( 1.000000, 0.000000, 0.000000 ) );
#29 = FACE_OUTER_BOUND( '', #30, .T. );
#30 = EDGE_LOOP( '', ( #31 ) );
#31 = ORIENTED_EDGE( '', *, *, #32, .F. );
#32 = EDGE_CURVE( '', #33, #33, #35, .T. );
#33 = VERTEX_POINT( '', #34 );
#34 = CARTESIAN_POINT( '', ( 0.002540, 0.000000, 0.000000 ) );
#35 = CIRCLE( '', #36, 0.002540 );
#36 = AXIS2_PLACEMENT_3D( '', #37, #38, #39 );
#37 = CARTESIAN_POINT( '', ( 0.000000, 0.000000, 0.000000 ) );
#38 = DIRECTION( '', ( 0.000000, 0.000000, 1.000000 ) );
#39 = DIRECTION( '', ( 1.000000, 0.000000, 0.000000 ) );
#40 = CYLINDRICAL_SURFACE( '', #41, 0.002540 );
#41 = AXIS2_PLACEMENT_3D( '', #42, #43, #44 );
#42 = CARTESIAN_POINT( '', ( 0.000000, 0.000000, 0.007938 ) );
#43 = DIRECTION( '', ( -0.000000, -0.000000, 1.000000 ) );
#44 = DIRECTION( '', ( -1.000000, 0.000000, 0.000000 ) );
/* END STYLED_ITEM 1 */
/* BEGIN STYLED_ITEM 2 */
/* ID_2 = 45 */
#45 = STYLED_ITEM( '', ( #46 ), #52 );
#46 = PRESENTATION_STYLE_ASSIGNMENT( ( #47 ) );
#47 = SURFACE_STYLE_USAGE( .BOTH., #48 );
#48 = SURFACE_SIDE_STYLE( '', ( #49 ) );
#49 = SURFACE_STYLE_FILL_AREA( #50 );
#50 = FILL_AREA_STYLE( '', ( #51 ) );
#51 = FILL_AREA_STYLE_COLOUR( '', #9 );
#52 = ADVANCED_FACE( '', ( #53, #64 ), #75, .F. );
#53 = FACE_OUTER_BOUND( '', #54, .T. );
#54 = EDGE_LOOP( '', ( #55 ) );
#55 = ORIENTED_EDGE( '', *, *, #56, .T. );
#56 = EDGE_CURVE( '', #57, #57, #59, .T. );
#57 = VERTEX_POINT( '', #58 );
#58 = CARTESIAN_POINT( '', ( 0.010478, -0.003969, 0.003969 ) );
#59 = CIRCLE( '', #60, 0.002540 );
#60 = AXIS2_PLACEMENT_3D( '', #61, #62, #63 );
#61 = CARTESIAN_POINT( '', ( 0.007938, -0.003969, 0.003969 ) );
#62 = DIRECTION( '', ( 1.224647E-16, -1.000000, 0.000000 ) );
#63 = DIRECTION( '', ( 1.000000, 1.224647E-16, 0.000000 ) );
#64 = FACE_OUTER_BOUND( '', #65, .T. );
#65 = EDGE_LOOP( '', ( #66 ) );
#66 = ORIENTED_EDGE( '', *, *, #67, .T. );
#67 = EDGE_CURVE( '', #68, #68, #70, .F. );
#68 = VERTEX_POINT( '', #69 );
#69 = CARTESIAN_POINT( '', ( -0.007938, 0.003969, 0.001429 ) );
#70 = CIRCLE( '', #71, 0.002540 );
#71 = AXIS2_PLACEMENT_3D( '', #72, #73, #74 );
#72 = CARTESIAN_POINT( '', ( -0.007938, 0.003969, 0.003969 ) );
#73 = DIRECTION( '', ( 0.000000, -1.000000, 0.000000 ) );
#74 = DIRECTION( '', ( 0.000000, 0.000000, -1.000000 ) );
#75 = CYLINDRICAL_SURFACE( '', #76, 0.002540 );
#76 = AXIS2_PLACEMENT_3D( '', #77, #78, #79 );
#77 = CARTESIAN_POINT( '', ( -0.007938, 500.000000, 0.003969 ) );
#78 = DIRECTION( '', ( -1.224647E-16, 1.000000, -0.000000 ) );
#79 = DIRECTION( '', ( 1.000000, 1.224647E-16, 0.000000 ) );
/* END STYLED_ITEM 2 */
/* BEGIN STYLED_ITEM 3 */
/* ID_3 = 80 */
#80 = STYLED_ITEM( '', ( #81 ), #87 );
#81 = PRESENTATION_STYLE_ASSIGNMENT( ( #82 ) );
#82 = SURFACE_STYLE_USAGE( .BOTH., #83 );
#83 = SURFACE_SIDE_STYLE( '', ( #84 ) );
#84 = SURFACE_STYLE_FILL_AREA( #85 );
#85 = FILL_AREA_STYLE( '', ( #86 ) );
#86 = FILL_AREA_STYLE_COLOUR( '', #9 );
#87 = ADVANCED_FACE( '', ( #88, #124 ), #127, .T. );
#88 = FACE_OUTER_BOUND( '', #89, .T. );
#89 = EDGE_LOOP( '', ( #90, #101, #109, #118 ) );
#90 = ORIENTED_EDGE( '', *, *, #91, .F. );
#91 = EDGE_CURVE( '', #92, #94, #96, .T. );
#92 = VERTEX_POINT( '', #93 );
#93 = CARTESIAN_POINT( '', ( 0.007938, 0.003969, 0.007938 ) );
#94 = VERTEX_POINT( '', #95 );
#95 = CARTESIAN_POINT( '', ( -0.007938, 0.003969, 0.007938 ) );
#96 = CIRCLE( '', #97, 0.003969 );
#97 = AXIS2_PLACEMENT_3D( '', #98, #99, #100 );
#98 = CARTESIAN_POINT( '', ( 0.000000, 0.003969, 0.007938 ) );
#99 = DIRECTION( '', ( 0.000000, -1.000000, 0.000000 ) );
#100 = DIRECTION( '', ( 1.000000, 0.000000, 0.000000 ) );
#101 = ORIENTED_EDGE( '', *, *, #102, .F. );
#102 = EDGE_CURVE( '', #103, #92, #105, .F. );
#103 = VERTEX_POINT( '', #104 );
#104 = CARTESIAN_POINT( '', ( 0.007938, -0.003969, 0.007938 ) );
#105 = LINE( '', #106, #107 );
#106 = CARTESIAN_POINT( '', ( 0.007938, 0.003969, 0.007938 ) );
#107 = VECTOR( '', #108, 1.000000 );
#108 = DIRECTION( '', ( 6.123234E-17, -1.000000, 0.000000 ) );
#109 = ORIENTED_EDGE( '', *, *, #110, .F. );
#110 = EDGE_CURVE( '', #111, #103, #113, .F. );
#111 = VERTEX_POINT( '', #112 );
#112 = CARTESIAN_POINT( '', ( -0.007938, -0.003969, 0.007938 ) );
#113 = CIRCLE( '', #114, 0.003969 );
#114 = AXIS2_PLACEMENT_3D( '', #115, #116, #117 );
#115 = CARTESIAN_POINT( '', ( 0.000000, -0.003969, 0.007938 ) );
#116 = DIRECTION( '', ( 0.000000, 0.000000, 1.000000 ) );
#117 = DIRECTION( '', ( 1.000000, 0.000000, 0.000000 ) );
#118 = ORIENTED_EDGE( '', *, *, #119, .F. );
#119 = EDGE_CURVE( '', #94, #111, #120, .T. );
#120 = LINE( '', #121, #122 );
#121 = CARTESIAN_POINT( '', ( -0.007938, -2.983415E-18, 0.007938 ) );
#122 = VECTOR( '', #123, 1.000000 );
#123 = DIRECTION( '', ( 6.123234E-17, -1.000000, 0.000000 ) );
#124 = FACE_BOUND( '', #125, .T. );
#125 = EDGE_LOOP( '', ( #126 ) );
#126 = ORIENTED_EDGE( '', *, *, #21, .F. );
#127 = PLANE( '', #128 );
#128 = AXIS2_PLACEMENT_3D( '', #129, #130, #131 );
#129 = CARTESIAN_POINT( '', ( 0.000000, -3.469447E-18, 0.007938 ) );
#130 = DIRECTION( '', ( 0.000000, 0.000000, 1.000000 ) );
#131 = DIRECTION( '', ( 1.000000, 0.000000, 0.000000 ) );
/* END STYLED_ITEM 3 */
/* BEGIN STYLED_ITEM 4 */
/* ID_4 = 132 */
#132 = STYLED_ITEM( '', ( #133 ), #139 );
#133 = PRESENTATION_STYLE_ASSIGNMENT( ( #134 ) );
#134 = SURFACE_STYLE_USAGE( .BOTH., #135 );
#135 = SURFACE_SIDE_STYLE( '', ( #136 ) );
#136 = SURFACE_STYLE_FILL_AREA( #137 );
#137 = FILL_AREA_STYLE( '', ( #138 ) );
#138 = FILL_AREA_STYLE_COLOUR( '', #9 );
#139 = ADVANCED_FACE( '', ( #140, #143 ), #154, .F. );
#140 = FACE_OUTER_BOUND( '', #141, .T. );
#141 = EDGE_LOOP( '', ( #142 ) );
#142 = ORIENTED_EDGE( '', *, *, #67, .F. );
#143 = FACE_OUTER_BOUND( '', #144, .T. );
#144 = EDGE_LOOP( '', ( #145 ) );
#145 = ORIENTED_EDGE( '', *, *, #146, .F. );
#146 = EDGE_CURVE( '', #147, #147, #149, .F. );
#147 = VERTEX_POINT( '', #148 );
#148 = CARTESIAN_POINT( '', ( -0.007938, -0.003969, 0.003969 ) );
#149 = CIRCLE( '', #150, 0.002540 );
#150 = AXIS2_PLACEMENT_3D( '', #151, #152, #153 );
#151 = CARTESIAN_POINT( '', ( -0.007938, -0.003969, 0.003969 ) );
#152 = DIRECTION( '', ( 1.224647E-16, -1.000000, 0.000000 ) );
#153 = DIRECTION( '', ( 1.000000, 1.224647E-16, 0.000000 ) );
#154 = CYLINDRICAL_SURFACE( '', #155, 0.002540 );
#155 = AXIS2_PLACEMENT_3D( '', #156, #157, #158 );
#156 = CARTESIAN_POINT( '', ( -0.007838, -0.003969, 0.003969 ) );
#157 = DIRECTION( '', ( 1.224647E-16, -1.000000, -0.000000 ) );
#158 = DIRECTION( '', ( -1.000000, -1.224647E-16, 0.000000 ) );
/* END STYLED_ITEM 4 */
/* BEGIN STYLED_ITEM 5 */
/* ID_5 = 159 */
#159 = STYLED_ITEM( '', ( #160 ), #166 );
#160 = PRESENTATION_STYLE_ASSIGNMENT( ( #161 ) );
#161 = SURFACE_STYLE_USAGE( .BOTH., #162 );
#162 = SURFACE_SIDE_STYLE( '', ( #163 ) );
#163 = SURFACE_STYLE_FILL_AREA( #164 );
#164 = FILL_AREA_STYLE( '', ( #165 ) );
#165 = FILL_AREA_STYLE_COLOUR( '', #9 );
#166 = ADVANCED_FACE( '', ( #167, #178 ), #189, .T. );
#167 = FACE_OUTER_BOUND( '', #168, .T. );
#168 = EDGE_LOOP( '', ( #169 ) );
#169 = ORIENTED_EDGE( '', *, *, #170, .T. );
#170 = EDGE_CURVE( '', #171, #171, #173, .F. );
#171 = VERTEX_POINT( '', #172 );
#172 = CARTESIAN_POINT( '', ( 0.007938, 0.003969, 0.001429 ) );
#173 = CIRCLE( '', #174, 0.002540 );
#174 = AXIS2_PLACEMENT_3D( '', #175, #176, #177 );
#175 = CARTESIAN_POINT( '', ( 0.007938, 0.003969, 0.003969 ) );
#176 = DIRECTION( '', ( 0.000000, -1.000000, 0.000000 ) );
#177 = DIRECTION( '', ( 0.000000, 0.000000, -1.000000 ) );
#178 = FACE_OUTER_BOUND( '', #179, .T. );
#179 = EDGE_LOOP( '', ( #180 ) );
#180 = ORIENTED_EDGE( '', *, *, #181, .T. );
#181 = EDGE_CURVE( '', #182, #182, #184, .T. );
#182 = VERTEX_POINT( '', #183 );
#183 = CARTESIAN_POINT( '', ( -0.007938, 0.003969, 0.001429 ) );
#184 = CIRCLE( '', #185, 0.002540 );
#185 = AXIS2_PLACEMENT_3D( '', #186, #187, #188 );
#186 = CARTESIAN_POINT( '', ( -0.007938, 0.003969, 0.003969 ) );
#187 = DIRECTION( '', ( 0.000000, -1.000000, 0.000000 ) );
#188 = DIRECTION( '', ( 0.000000, 0.000000, -1.000000 ) );
#189 = CYLINDRICAL_SURFACE( '', #190, 0.002540 );
#190 = AXIS2_PLACEMENT_3D( '', #191, #192, #193 );
#191 = CARTESIAN_POINT( '', ( -0.007938, 0.003869, 0.003969 ) );
#192 = DIRECTION( '', ( -0.000000, 1.000000, -0.000000 ) );
#193 = DIRECTION( '', ( 0.000000, 0.000000, -1.000000 ) );
/* END STYLED_ITEM 5 */
/* BEGIN STYLED_ITEM 6 */
/* ID_6 = 194 */
#194 = STYLED_ITEM( '', ( #195 ), #201 );
#195 = PRESENTATION_STYLE_ASSIGNMENT( ( #196 ) );
#196 = SURFACE_STYLE_USAGE( .BOTH., #197 );
#197 = SURFACE_SIDE_STYLE( '', ( #198 ) );
#198 = SURFACE_STYLE_FILL_AREA( #199 );
#199 = FILL_AREA_STYLE( '', ( #200 ) );
#200 = FILL_AREA_STYLE_COLOUR( '', #9 );
#201 = ADVANCED_FACE( '', ( #202, #205 ), #221, .F. );
#202 = FACE_BOUND( '', #203, .T. );
#203 = EDGE_LOOP( '', ( #204 ) );
#204 = ORIENTED_EDGE( '', *, *, #181, .F. );
#205 = FACE_OUTER_BOUND( '', #206, .T. );
#206 = EDGE_LOOP( '', ( #207, #208, #214, #215 ) );
#207 = ORIENTED_EDGE( '', *, *, #119, .T. );
#208 = ORIENTED_EDGE( '', *, *, #209, .F. );
#209 = EDGE_CURVE( '', #103, #111, #210, .T. );
#210 = LINE( '', #211, #212 );
#211 = CARTESIAN_POINT( '', ( -0.003910, -0.003969, 0.007938 ) );
#212 = VECTOR( '', #213, 1.000000 );
#213 = DIRECTION( '', ( -1.000000, -1.224647E-16, 0.000000 ) );
#214 = ORIENTED_EDGE( '', *, *, #102, .T. );
#215 = ORIENTED_EDGE( '', *, *, #216, .T. );
#216 = EDGE_CURVE( '', #92, #94, #217, .T. );
#217 = LINE( '', #218, #219 );
#218 = CARTESIAN_POINT( '', ( -0.003910, 0.003969, 0.007938 ) );
#219 = VECTOR( '', #220, 1.000000 );
#220 = DIRECTION( '', ( -1.000000, -1.224647E-16, 0.000000 ) );
#221 = PLANE( '', #222 );
#222 = AXIS2_PLACEMENT_3D( '', #223, #224, #225 );
#223 = CARTESIAN_POINT( '', ( 0.000000, -3.469447E-18, 0.007938 ) );
#224 = DIRECTION( '', ( 0.000000, 0.000000, 1.000000 ) );
#225 = DIRECTION( '', ( 1.000000, 0.000000, 0.000000 ) );
/* END STYLED_ITEM 6 */
/* BEGIN STYLED_ITEM 7 */
/* ID_7 = 226 */
#226 = STYLED_ITEM( '', ( #227 ), #233 );
#227 = PRESENTATION_STYLE_ASSIGNMENT( ( #228 ) );
#228 = SURFACE_STYLE_USAGE( .BOTH., #229 );
#229 = SURFACE_SIDE_STYLE( '', ( #230 ) );
#230 = SURFACE_STYLE_FILL_AREA( #231 );
#231 = FILL_AREA_STYLE( '', ( #232 ) );
#232 = FILL_AREA_STYLE_COLOUR( '', #9 );
#233 = ADVANCED_FACE( '', ( #234, #237 ), #248, .F. );
#234 = FACE_BOUND( '', #235, .T. );
#235 = EDGE_LOOP( '', ( #236 ) );
#236 = ORIENTED_EDGE( '', *, *, #32, .T. );
#237 = FACE_OUTER_BOUND( '', #238, .T. );
#238 = EDGE_LOOP( '', ( #239, #240, #241, #247 ) );
#239 = ORIENTED_EDGE( '', *, *, #216, .F. );
#240 = ORIENTED_EDGE( '', *, *, #91, .T. );
#241 = ORIENTED_EDGE( '', *, *, #242, .T. );
#242 = EDGE_CURVE( '', #94, #12, #243, .T. );
#243 = LINE( '', #244, #245 );
#244 = CARTESIAN_POINT( '', ( -0.007938, 0.003969, 0.000000 ) );
#245 = VECTOR( '', #246, 1.000000 );
#246 = DIRECTION( '', ( 0.000000, 0.000000, -1.000000 ) );
#247 = ORIENTED_EDGE( '', *, *, #21, .F. );
#248 = PLANE( '', #249 );
#249 = AXIS2_PLACEMENT_3D( '', #250, #251, #252 );
#250 = CARTESIAN_POINT( '', ( 0.000000, 0.000000, 0.007938 ) );
#251 = DIRECTION( '', ( 0.000000, 0.000000, 1.000000 ) );
#252 = DIRECTION( '', ( 1.000000, 0.000000, 0.000000 ) );
/* END STYLED_ITEM 7 */
/* BEGIN STYLED_ITEM 8 */
/* ID_8 = 253 */
#253 = STYLED_ITEM( '', ( #254 ), #260 );
#254 = PRESENTATION_STYLE_ASSIGNMENT( ( #255 ) );
#255 = SURFACE_STYLE_USAGE( .BOTH., #256 );
#256 = SURFACE_SIDE_STYLE( '', ( #257 ) );
#257 = SURFACE_STYLE_FILL_AREA( #258 );
#258 = FILL_AREA_STYLE( '', ( #259 ) );
#259 = FILL_AREA_STYLE_COLOUR( '', #9 );
#260 = ADVANCED_FACE( '', ( #261, #264 ), #275, .F. );
#261 = FACE_BOUND( '', #262, .T. );
#262 = EDGE_LOOP( '', ( #263 ) );
#263 = ORIENTED_EDGE( '', *, *, #56, .F. );
#264 = FACE_OUTER_BOUND( '', #265, .T. );
#265 = EDGE_LOOP( '', ( #266, #267, #268, #274 ) );
#266 = ORIENTED_EDGE( '', *, *, #242, .F. );
#267 = ORIENTED_EDGE( '', *, *, #119, .T. );
#268 = ORIENTED_EDGE( '', *, *, #269, .F. );
#269 = EDGE_CURVE( '', #55, #111, #270, .T. );
#270 = LINE( '', #271, #272 );
#271 = CARTESIAN_POINT( '', ( -0.007938, -0.003969, 0.012700 ) );
#272 = VECTOR( '', #273, 1.000000 );
#273 = DIRECTION( '', ( 0.000000, 0.000000, 1.000000 ) );
#274 = ORIENTED_EDGE( '', *, *, #146, .T. );
#275 = PLANE( '', #276 );
#276 = AXIS2_PLACEMENT_3D( '', #277, #278, #279 );
#277 = CARTESIAN_POINT( '', ( -0.007938, -0.003969, 0.012700 ) );
#278 = DIRECTION( '', ( -1.000000, -1.224647E-16, 0.000000 ) );
#279 = DIRECTION( '', ( 1.224647E-16, -1.000000, 0.000000 ) );
/* END STYLED_ITEM 8 */
/* BEGIN STYLED_ITEM 9 */
/* ID_9 = 280 */
#280 = STYLED_ITEM( '', ( #281 ), #287 );
#281 = PRESENTATION_STYLE_ASSIGNMENT( ( #282 ) );
#282 = SURFACE_STYLE_USAGE( .BOTH., #283 );
#283 = SURFACE_SIDE_STYLE( '', ( #284 ) );
#284 = SURFACE_STYLE_FILL_AREA( #285 );
#285 = FILL_AREA_STYLE( '', ( #286 ) );
#286 = FILL_AREA_STYLE_COLOUR( '', #9 );
#287 = ADVANCED_FACE( '', ( #288 ), #294, .T. );
#288 = FACE_OUTER_BOUND( '', #289, .T. );
#289 = EDGE_LOOP( '', ( #290, #291, #292, #293 ) );
#290 = ORIENTED_EDGE( '', *, *, #269, .T. );
#291 = ORIENTED_EDGE( '', *, *, #110, .T. );
#292 = ORIENTED_EDGE( '', *, *, #209, .T. );
#293 = ORIENTED_EDGE( '', *, *, #120, .F. );
#294 = PLANE( '', #295 );
#295 = AXIS2_PLACEMENT_3D( '', #296, #297, #298 );
#296 = CARTESIAN_POINT( '', ( -0.003910, -0.003969, 0.012700 ) );
#297 = DIRECTION( '', ( 1.224647E-16, -1.000000, 0.000000 ) );
#298 = DIRECTION( '', ( 1.000000, 1.224647E-16, 0.000000 ) );
/* END STYLED_ITEM 9 */
/* BEGIN COMPLEX_ENTITY 1 */
/* ID_10 = 299 */
#299 =  ( GEOMETRIC_REPRESENTATION_CONTEXT( 3 )GLOBAL_UNCERTAINTY_ASSIGNED_CONTEXT( ( #300 ) )GLOBAL_UNIT_ASSIGNED_CONTEXT( ( #301, #305, #307 ) )REPRESENTATION_CONTEXT( 'NONE', 'WORKSPACE' ) );
#300 = UNCERTAINTY_MEASURE_WITH_UNIT( LENGTH_MEASURE( 1.000000E-17 ), #301, '', '' );
#301 =  ( CONVERSION_BASED_UNIT( 'METRE', #302 )LENGTH_UNIT(  )NAMED_UNIT( #304 ) );
#302 = LENGTH_MEASURE_WITH_UNIT( LENGTH_MEASURE( 1.000000 ), #303 );
#303 =  ( LENGTH_UNIT(  )NAMED_UNIT( #304 )SI_UNIT( $, .METRE. ) );
#304 = DIMENSIONAL_EXPONENTS( 1.000000, 0.000000, 0.000000, 0.000000, 0.000000, 0.000000, 0.000000 );
#305 =  ( NAMED_UNIT( #306 )PLANE_ANGLE_UNIT(  )SI_UNIT( $, .RADIAN. ) );
#306 = DIMENSIONAL_EXPONENTS( 0.000000, 0.000000, 0.000000, 0.000000, 0.000000, 0.000000, 0.000000 );
#307 =  ( NAMED_UNIT( #306 )SI_UNIT( $, .STERADIAN. )SOLID_ANGLE_UNIT(  ) );
/* END COMPLEX_ENTITY 1 */
/* SHAPE_DEFINITION_REPRESENTATION Section - 1 subtrees */
/* BEGIN SHAPE_DEFINITION_REPRESENTATION 1 */
#308 = SHAPE_DEFINITION_REPRESENTATION( #309, #313 );
#309 = PRODUCT_DEFINITION_SHAPE( 'NONE', 'NONE', #310 );
#310 = PRODUCT_DEFINITION( 'NONE', 'NONE', #311, #312 );
#311 = PRODUCT_DEFINITION_FORMATION_WITH_SPECIFIED_SOURCE( ' ', 'NONE', #4, .NOT_KNOWN. );
#312 = PRODUCT_DEFINITION_CONTEXT( '', #6, 'design' );
#313 = ADVANCED_BREP_SHAPE_REPRESENTATION( 'Part 1', ( #314, #316 ), #299 );
#314 = MANIFOLD_SOLID_BREP( 'Part 1', #315 );
#315 = CLOSED_SHELL( '', ( #201, #139, #52, #233, #260, #287, #17, #166, #87 ) );
#316 = AXIS2_PLACEMENT_3D( '', #317, #318, #319 );
#317 = CARTESIAN_POINT( '', ( 0.000000, 0.000000, 0.000000 ) );
#318 = DIRECTION( '', ( 0.000000, 0.000000, 1.000000 ) );
#319 = DIRECTION( '', ( 1.000000, 0.000000, 0.000000 ) );
/* END SHAPE_DEFINITION_REPRESENTATION 1 */
ENDSEC;
END-ISO-10303-21;