ISO-10303-21;
HEADER;
FILE_DESCRIPTION( ( '' ), ' ' );
FILE_NAME( '/vol/tmp/translate-8579754438183730235/5ae5839f3947920fcf80d878.step', '2018-04-29T08:34:40', ( '' ), ( '' ), ' ', ' ', ' ' );
FILE_SCHEMA( ( 'AUTOMOTIVE_DESIGN { 1 0 10303 214 1 1 1 1 }' ) );
ENDSEC;
<step>1 1 29.0 c 203.0 d 703.0 e 1.0 r 1.0 d 703.0 e 1.0 r 1.0 d 703.0 e 1.0 r 1.0 d 703.0 e 1.0 r 1.0 d 703.0 e 1.0 r 1.0 d 703.0 e 1.0 r 1.0 d 703.0 e 1.0 r 1.0 d 703.0 e 1.0 r 1.0 d 703.0 e 1.0 r 1.0 d 703.0 e 1.0 r 1.0 d 703.0 e 1.0 r 1.0 d 703.0 e 1.0 r 1.0 d 703.0 e 1.0 r 1.0 d 703.0 e 1.0 r 1.0 d 703.0 e 1.0 r 1.0 d 703.0 e 1.0 r 1.0 d 703.0 e 1.0 r 1.0 d 703.0 e 1.0 r 1.0 d 703.0 e 1.0 r 1.0 d 703.0 e 1.0 r 1.0 d 703.0 e 1.0 r 1.0 d 703.0 e 1.0 r 1.0 d 703.0 e 1.0 r 1.0 d 703.0 e 1.0 r 1.0 d 703.0 e 1.0 r 1.0 d 703.0 e 1.0 r 1.0 d 703.0 e 1.0 r 1.0 d 703.0 e 1.0 r 1.0 d 703.0 e 1.0 r 1.0 d 703.0 e 1.0 r 1.0 d 703.0 e 1.0 r 1.0 d 703.0 e 1.0 r 1.0 d 703.0 e 1.0 r 1.0 d 703.0 e 1.0 r 1.0 d 703.0 e 1.0 r 1.0 d 703.0 e 1.0 r 1.0 d 703.0 e 1.0 r 1.0 d 703.0 e 1.0 r 1.0 d 703.0 e 1.0 r 1.0 d 703.0 e 1.0 r 1.0 d 703.0 e 1.0 r 1.0 d 703.0 e 1.0 r 1.0 d 703.0 e 1.0 r 1.0 d 703.0 e 1.0 r 1.0 d 703.0 e 1.0 r 1.0 d 703.0 e 1.0 r 1.0 d 703.0 e 1.0 r 1.0 d 703.0 e 1.0 r 1.0 d 703.0 e 1.0 r 1.0 d 703.0 e 1.0 r 1.0 d 703.0 e 1.0 r 1.0 d 703.0 e 1.0 r 1.0 d 703.0 e 1.0 r 1.0 d 703.0 e 1.0 r 1.0 d 703.0 e 1.0 r 1.0 d 703.0 e 1.0 r 1.0 d 703.0 e 1.0 r 1.0 d 703.0 e 1.0 r 1.0 d 703.0 e 1.0 r 1.0 d 703.0 e 1.0 r 1.0 d 703.0 e 1.0 r 1.0 d 703.0 e 1.0 r 1.0 d 703.0 e 1.0 r 1.0 d 703.0 e 1.0 r 1.0 d 703.0 e 1.0 r 1.0 d 703.0 e 1.0 r 1.0 d 703.0 e 1.0 r 1.0 d 703.0 e 1.0 r 1.0 d 703.0 e 1.0 r 1.0 d 703.0 e 1.0 r 1.0 d 703.0 e 1.0 r 1.0 d 703.0 e 1.0 r 1.0 d 703.0 e 1.0 r 1.0 d 703.0 e 1.0 r 1.0 d 703.0 e 1.0 r 1.0 d 703.0 e 1.0 r 1.0 d 703.0 e 1.0 r 1.0 d 703.0 e 1.0 r 1.0 d 703.0 e 1.0 r 1.0 d 703.0 e 1.0 r 1.0 d 703.0 e 1.0 r 1.0 d 703.0 e 1.0 r 1.0 d 703.0 e 1.0 r 1.0 d 703.0 e 1.0 r 1.0 d 703.0 e 1.0 r 1.0 d 703.0 e 1.0 r 1.0 d 703.0 e 1.0 r 1.0 d 703.0 e 1.0 r 1.0 d 703.0 e 1.0 r 1.0 d 703.0 e 1.0 r 1.0 d 703.0 e 1.0 r 1.0 d 703.0 e 1.0 r 1.0 d 703.0 e 1.0 r 1.0 d 703.0 e 1.0 r 1.0 d 703.0 e 1.0 r 1.0 d 703.0 e 1.0 r 1.0 d 703.0 e 1.0 r 1.0 d 703.0 e 1.0 r 1.0 d 703.0 e 1.0 r 1.0 d 703.0 e 1.0 r 1.0 d 703.0 e 1.0 r 1.0 d 703.0 e 1.0 r 1.0 d 703.0 e 1.0 r 1.0 d 703.0 e 1.0 r 1.0 d 703.0 e 1.0 r 1.0 d 703.0 e 1.0 r 1.0 d 703.0 e 1.0 r 1.0 d 703.0 e 1.0 r 1.0 d 703.0 e 1.0 r 1.0 d 703.0 e 1.0 r 1.0 d 703.0 e 1.0 r 1.0 d 703.0 e 1.0 r 1.0 d 703.0 e 1.0 r 1.0 d 703.0 e 1.0 r 1.0 d 703.0 e 1.0 r 1.0 d 703.0 e 1.0 r 1.0 d 703.0 e 1.0 r 1.0 d 703.0 e 1.0 r 1.0 d 703.0 e 1.0 r 1.0 d 703.0 e 1.0 r 1.0 d 703.0 e 1.0 r 1.0 d 703.0 e 1.0 r 1.0 d 703.0 e 1.0 r 1.0 d 703.0 e 1.0 r 1.0 d 703.0 e 1.0 r 1.0 d 703.0 e 1.0 r 1.0 d 703.0 e 1.0 r 1.0 d 703.0 e 1.0 r 1.0 d 703.0 e 1.0 r 1.0 d 703.0 e 1.0 r 1.0 d 703.0 e 1.0 r 1.0 d 703.0 e 1.0 r 1.0 d 703.0 e 1.0 r 1.0 d 703.0 e 1.0 r 1.0 d 703.0 e 1.0 r 1.0 d 703.0 e 1.0 r 1.0 d 703.0 e 1.0 r 1.0 d 703.0 e 1.0 r 1.0 d 703.0 e 1.0 r 1.0 d 703.0 e 1.0 r 1.0 d 703.0 e 1.0 r 1.0 d 703.0 e 1.0 r 1.0 d 703.0 e 1.0 r 1.0 d 703.0 e 1.0 r 1.0 d 703.0 e 1.0 r 1.0 d 703.0 e 1.0 r 1.0 d 703.0 e 1.0 r 1.0 d 703.0 e 1.0 r 1.0 d 703.0 e 1.0 r 1.0 d 703.0 e 1.0 r 1.0 d 703.0 e 1.0 r 1.0 d 703.0 e 1.0 r 1.0 d 703.0 e 1.0 r 1.0 d 703.0 e 1.0 r 1.0 d 703.0 e 1.0 r 1.0 d 703.0 e 1.0 r 1.0 d 703.0 e 1.0 r 1.0 d 703.0 e 1.0 r 1.0 d 703.0 e 1.0 r 1.0 d 703.0 e 1.0 r 1.0 d 703.0 e 1.0 r 1.0 d 703.0 e 1.0 r 1.0 d 703.0 e 1.0 r 1.0 d 703.0 e 1.0 r 1.0 d 703.0 e 1.0 r 1.0 d 703.0 e 1.0 r 1.0 d 703.0 e 1.0 r 1.0 d 703.0 e 1.0 r 1.0 d 703.0 e 1.0 r 1.0 d 703.0 e 1.0 r 1.0 d 703.0 e 1.0 r 1.0 d 703.0 e 1.0 r 1.0 d 703.0 e 1.0 r 1.0 d 703.0 e 1.0 r 1.0 d 703.0 e 1.0 r 1.0 d 703.0 e 1.0 r 1.0 d 703.0 e 1.0 r 1.0 d 703.0 e 1.0 r 1.0 d 703.0 e 1.0 r 1.0 d 703.0 e 1.0 r 1.0 d 703.0 e 1.0 r 1.0 d 703.0 e 1.0 r 1.0 d 703.0 e 1.0 r 1.0 d 703.0 e 1.0 r 1.0 d 703.0 e 1.0 r 1.0 d 703.0 e 1.0 r 1.0 d 703.0 e 1.0 r 1.0 d 703.0 e 1.0 r 1.0 d 703.0 e 1.0 r 1.0 d 703.0 e 1.0 r 1.0 d 703.0 e 1.0 r 1.0 d 703.0 e 1.0 r 1.0 d 703.0 e 1.0 r 1.0 d 703.0 e 1.0 r 1.0 d 703.0 e 1.0 r 1.0 d 703.0 e 1.0 r 1.0 d 703.0 e 1.0 r 1.0 d 703.0 e 1.0 r 1.0 d 703.0 e 1.0 r 1.0 d 703.0 e 1.0 r 1.0 d 703.0 e 1.0 r 1.0 d 703.0 e 1.0 r 1.0 d 703.0 e 1.0 r 1.0 d 703.0 e 1.0 r 1.0 d 703.0 e 1.0 r 1.0 d 703.0 e 1.0 r 1.0 d 703.0 e 1.0 r 1.0 d 703.0 e 1.0 r 1.0 d 703.0 e 1.0 r 1.0 d 703.0 e 1.0 r 1.0 d 703.0 e 1.0 r 1.0 d 703.0 e 1.0 r 1.0 d 703.0 e 1.0 r 1.0 d 703.0 e 1.0 r 1.0 d 703.0 e 1.0 r 1.0 d 703.0 e 1.0 r 1.0 d 703.0 e 1.0 r 1.0 d 703.0 e 1.0 r 1.0 d 703.0 e 1.0 r 1.0 d 703.0 e 1.0 r 1.0 d 703.0 e 1.0 r 1.0 d 703.0 e 1.0 r 1.0 d 703.0 e 1.0 r 1.0 d 703.0 e 1.0 r 1.0 d 703.0 e 1.0 r 1.0 d 703.0 e 1.0 r 1.0 d 703.0 e 1.0 r 1.0 d 703.0 e 1.0 r 1.0 d 703.0 e 1.0 r 1.0 d 703.0 e 1.0 r 1.0 d 703.0 e 1.0 r 1.0 d 703.0 e 1.0 r 1.0 d 703.0 e 1.0 r 1.0 d 703.0 e 1.0 r 1.0 d 703.0 e 1.0 r 1.0 d 703.0 e 1.0 r 1.0 d 703.0 e 1.0 r 1.0 d 703.0 e 1.0 r 1.0 d 703.0 e 1.0 r 1.0 d 703.0 e 1.0 r 1.0 d 703.0 e 1.0 r 1.0 d 703.0 e 1.0 r 1.0 d 703.0 e 1.0 r 1.0 d 703.0 e 1.0 r 1.0 d 703.0 e 1.0 r 1.0 d 703.0 e 1.0 r 1.0 d 703.0 e 1.0 r 1.0 d 703.0 e 1.0 r 1.0 d 703.0 e 1.0 r 1.0 d 703.0 e 1.0 r 1.0 d 703.0 e 1.0 r 1.0 d 703.0 e 1.0 r 1.0 d 703.0 e 1.0 r 1.0 d 703.0 e 1.0 r 1.0 d 703.0 e 1.0 r 1.0 d 703.0 e 1.0 r 1.0 d 703.0 e 1.0 r 1.0 d 703.0 e 1.0 r 1.0 d 703.0 e 1.0 r 1.0 d 703.0 e 1.0 r 1.0 d 703.0 e 1.0 r 1.0 d 703.0 e 1.0 r 1.0 d 703.0 e 1.0 r 1.0 d 703.0 e 1.0 r 1.0 d 703.0 e 1.0 r 1.0 d 703.0 e 1.0 r 1.0 d 703.0 e 1.0 r 1.0 d 703.0 e 1.0 r 1.0 d 703.0 e 1.0 r 1.0 d 703.0 e 1.0 r 1.0 d 703.0 e 1.0 r 1.0 d 703.0 e 1.0 r 1.0 d 703.0 e 1.0 r 1.0 d 703.0 e 1.0 r 1.0 d 703.0 e 1.0 r 1.0 d 703.0 e 1.0 r 1.0 d 703.0 e 1.0 r 1.0 d 703.0 e 1.0 r 1.0 d 703.0 e 1.0 r 1.0 d 703.0 e 1.0 r 1.0 d 703.0 e 1.0 r 1.0 d 703.0 e 1.0 r 1.0 d 703.0 e 1.0 r 1.0 d 703.0 e 1.0 r 1.0 d 703.0 e 1.0 r 1.0 d 703.0 e 1.0 r 1.0 d 703.0 e 1.0 r 1.0 d 703.0 e 1.0 r 1.0 d 703.0 e 1.0 r 1.0 d 703.0 e 1.0 r 1.0 d 703.0 e 1.0 r 1.0 d 703.0 e 1.0 r 1.0 d 703.0 e 1.0 r 1.0 d 703.0 e 1.0 r 1.0 d 703.0 e 1.0 r 1.0 d 703.0 e 1.0 r 1.0 d 703.0 e 1.0 r 1.0 d 703.0 e 1.0 r 1.0 d 703.0 e 1.0 r 1.0 d 703.0 e 1.0 r 1.0 d 703.0 e 1.0 r 1.0 d 703.0 e 1.0 r 1.0 d 703.0 e 1.0 r 1.0 d 703.0 e 1.0 r 1.0 d 703.0 e 1.0 r 1.0 d 703.0 e 1.0 r 1.0 d 703.0 e 1.0 r 1.0 d 703.0 e 1.0 r 1.0 d 703.0 e 1.0 r 1.0 d 703.0 e 1.0 r 1.0 d 703.0 e 1.0 r 1.0 d 703.0 e 1.0 r 1.0 d 703.0 e 1.0 r 1.0 d 703.0 e 1.0 r 1.0 d 703.0 e 1.0 r 1.0 d 703.0 e 1.0 r 1.0 d 703.0 e 1.0 r 1.0 d 703.0 e 1.0 r 1.0 d 703.0 e 1.0 r 1.0 d 703.0 e 1.0 r 1.0 d 703.0 e 1.0 r 1.0 d 703.0 e 1.0 r 1.0 d 703.0 e 1.0 r 1.0 d 703.0 e 1.0 r 1.0 d 703.0 e 1.0 r 1.0 d 703.0 e 1.0 r 1.0 d 703.0 e 1.0 r 1.0 d 703.0 e 1.0 r 1.0 d 703.0 e 1.0 r 1.0 d 703.0 e 1.0 r 1.0 d 703.0 e 1.0 r 1.0 d 703.0 e 1.0 r 1.0 d 703.0 e 1.0 r 1.0 d 703.0 e 1.0 r 1.0 d 703.0 e 1.0 r 1.0 d 703.0 e 1.0 r 1.0 d 703.0 e 1.0 r 1.0 d 703.0 e 1.0 r 1.0 d 703.0 e 1.0 r 1.0 d 703.0 e 1.0 r 1.0 d 703.0 e 1.0 r 1.0 d 703.0 e 1.0 r 1.0 d 703.0 e 1.0 r 1.0 d 703.0 e 1.0 r 1.0 d 703.0 e 1.0 r 1.0 d 703.0 e 1.0 r 1.0 d 703.0 e 1.0 r 1.0 d 703.0 e 1.0 r 1.0 d 703.0 e 1.0 r 1.0 d 703.0 e 1.0 r 1.0 d 703.0 e 1.0 r 1.0 d 703.0 e 1.0 r 1.0 d 703.0 e 1.0 r 1.0 d 703.0 e 1.0 r 1.0 d 703.0 e 1.0 r 1.0 d 703.0 e 1.0 r 1.0 d 703.0 e 1.0 r 1.0 d 703.0 e 1.0 r 1.0 d 703.0 e 1.0 r 1.0 d 703.0 e 1.0 r 1.0 d 703.0 e 1.0 r 1.0 d 703.0 e 1.0 r 1.0 d 703.0 e 1.0 r 1.0 d 703.0 e 1.0 r 1.0 d 703.0 e 1.0 r 1.0 d 703.0 e 1.0 r 1.0 d 703.0 e 1.0 r 1.0 d 703.0 e 1.0 r 1.0 d 703.0 e 1.0 r 1.0 d 703.0 e 1.0 r 1.0 d 703.0 e 1.0 r 1.0 d 703.0 e 1.0 r 1.0 d 703.0 e 1.0 r 1.0 d 703.0 e 1.0 r 1.0 d 703.0 e 1.0 r 1.0 d 703.0 e 1.0 r 1.0 d 703.0 e 1.0 r 1.0 d 703.0 e 1.0 r 1.0 d 703.0 e 1.0 r 1.0 d 703.0 e 1.0 r 1.0 d 703.0 e 1.0 r 1.0 d 703.0 e 1.0 r 1.0 d 703.0 e 1.0 r 1.0 d 703.0 e 1.0 r 1.0 d 703.0 e 1.0 r 1.0 d 703.0 e 1.0 r 1.0 d 703.0 e 1.0 r 1.0 d 703.0 e 1.0 r 1.0 d 703.0 e 1.0 r 1.0 d 703.0 e 1.0 r 1.0 d 703.0 e 1.0 r 1.0 d 703.0 e 1.0 r 1.0 d 703.0 e 1.0 r 1.0 d 703.0 e 1.0 r 1.0 d 703.0 e 1.0 r 1.0 d 703.0 e 1.0 r 1.0 d 703.0 e 1.0 r 1.0 d 703.0 e 1.0 r 1.0 d 703.0 e 1.0 r 1.0 d 703.0 e 1.0 r 1.0 d 703.0 e 1.0 r 1.0 d 703.0 e 1.0 r 1.0 d 703.0 e 1.0 r 1.0 d 703.0 e 1.0 r 1.0 d 703.0 e 1.0 r 1.0 d 703.0 e 1.0 r 1.0 d 703.0 e 1.0 r 1.0 d 703.0 e 1.0 r 1.0 d 703.0 e 1.0 r 1.0 d 703.0 e 1.0 r 1.0 d 703.0 e 1.0 r 1.0 d 703.0 e 1.0 r 1.0 d 703.0 e 1.0 r 1.0 d 703.0 e 1.0 r 1.0 d 703.0 e 1.0 r 1.0 d 703.0 e 1.0 r 1.0 d 703.0 e 1.0 r 1.0 d 703.0 e 1.0 r 1.0 d 703.0 e 1.0 r 1.0 d 703.0 e 1.0 r 1.0 d 703.0 e 1.0 r 1.0 d 703.0 e 1.0 r 1.0 d 703.0 e 1.0 r 1.0 d 703.0 e 1.0 r 1.0 d 703.0 e 1.0 r 1.0 d 703.0 e 1.0 r 1.0 d 703.0 e 1.0 r 1.0 d 703.0 e 1.0 r 1.0 d 703.0 e 1.0 r 1.0 d 703.0 e 1.0 r 1.0 d 703.0 e 1.0 r 1.0 d 703.0 e 1.0 r 1.0 d 703.0 e 1.0 r 1.0 d 703.0 e 1.0 r 1.0 d 703.0 e 1.0 r 1.0 d 703.0 e 1.0 r 1.0 d 703.0 e 1.0 r 1.0 d 703.0 e 1.0 r 1.0 d 703.0 e 1.0 r 1.0 d 703.0 e 1.0 r 1.0 d 703.0 e 1.0 r 1.0 d 703.0 e 1.0 r 1.0 d 703.0 e 1.0 r 1.0 d 703.0 e 1.0 r 1.0 d 703.0 e 1.0 r 1.0 d 703.0 e 1.0 r 1.0 d 703.0 e 1.0 r 1.0 d 703.0 e 1.0 r 1.0 d 703.0 e 1.0 r 1.0 d 703.0 e 1.0 r 1.0 d 703.0 e 1.0 r 1.0 d 703.0 e 1.0 r 1.0 d 703.0 e 1.0 r 1.0 d 703.0 e 1.0 r 1.0 d 703.0 e 1.0 r 1.0 d 703.0 e 1.0 r 1.0 d 703.0 e 1.0 r 1.0 d 703.0 e 1.0 r 1.0 d 703.0 e 1.0 r 1.0 d 703.0 e 1.0 r 1.0 d 703.0 e 1.0 r 1.0 d 703.0 e 1.0 r 1.0 d 703.0 e 1.0 r 1.0 d 703.0 e 1.0 r 1.0 d 703.0 e 1.0 r 1.0 d 703.0 e 1.0 r 1.0 d 703.0 e 1.0 r 1.0 d 703.0 e 1.0 r 1.0 d 703.0 e 1.0 r 1.0 d 703.0 e 1.0 r 1.0 d 703.0 e 1.0 r 1.0 d 703.0 e 1.0 r 1.0 d 703.0 e 1.0 r 1.0 d 703.0 e 1.0 r 1.0 d 703.0 e 1.0 r 1.0 d 703.0 e 1.0 r 1.0 d 703.0 e 1.0 r 1.0 d 703.0 e 1.0 r 1.0 d 703.0 e 1.0 r 1.0 d 703.0 e 1.0 r 1.0 d 703.0 e 1.0 r 1.0 d 703.0 e 1.0 r 1.0 d 703.0 e 1.0 r 1.0 d 703.0 e 1.0 r 1.0 d 703.0 e 1.0 r 1.0 d 703.0 e 1.0 r 1.0 d 703.0 e 1.0 r 1.0 d 703.0 e 1.0 r 1.0 d 703.0 e 1.0 r 1.0 d 703.0 e 1.0 r 1.0 d 703.0 e 1.0 r 1.0 d 703.0 e 1.0 r 1.0 d 703.0 e 1.0 r 1.0 d 703.0 e 1.0 r 1.0 d 703.0 e 1.0 r 1.0 d 703.0 e 1.0 r 1.0 d 703.0 e 1.0 r 1.0 d 703.0 e 1.0 r 1.0 d 703.0 e 1.0 r 1.0 d 703.0 e 1.0 r 1.0 d 703.0 e 1.0 r 1.0 d 703.0 e 1.0 r 1.0 d 703.0 e 1.0 r 1.0 d 703.0 e 1.0 r 1.0 d 703.0 e 1.0 r 1.0 d 703.0 e 1.0 r 1.0 d 703.0 e 1.0 r 1.0 d 703.0 e 1.0 r 1.0 d 703.0 e 1.0 r 1.0 d 703.0 e 1.0 r 1.0 d 703.0 e 1.0 r 1.0 d 703.0 e 1.0 r 1.0 d 703.0 e 1.0 r 1.0 d 703.0 e 1.0 r 1.0 d 703.0 e 1.0 r 1.0 d 703.0 e 1.0 r 1.0 d 703.0 e 1.0 r 1.0 d 703.0 e 1.0 r 1.0 d 703.0 e 1.0 r 1.0 d 703.0 e 1.0 r 1.0 d 703.0 e 1.0 r 1.0 d 703.0 e 1.0 r 1.0 d 703.0 e 1.0 r 1.0 d 703.0 e 1.0 r 1.0 d 703.0 e 1.0 r 1.0 d 703.0 e 1.0 r 1.0 d 703.0 e 1.0 r 1.0 d 703.0 e 1.0 r 1.0 d 703.0 e 1.0 r 1.0 d 703.0 e 1.0 r 1.0 d 703.0 e 1.0 r 1.0 d 703.0 e 1.0 r 1.0 d 703.0 e 1.0 r 1.0 d 703.0 e 1.0 r 1.0 d 703.0 e 1.0 r 1.0 d 703.0 e 1.0 r 1.0 d 703.0 e 1.0 r 1.0 d 703.0 e 1.0 r 1.0 d 703.0 e 1.0 r 1.0 d 703.0 e 1.0 r 1.0 d 703.0 e 1.0 r 1.0 d 703.0 e 1.0 r 1.0 d 703.0 e 1.0 r 1.0 d 703.0 e 1.0 r 1.0 d 703.0 e 1.0 r 1.0 d 703.0 e 1.0 r 1.0 d 703.0 e 1.0 r 1.0 d 703.0 e 1.0 r 1.0 d 703.0 e 1.0 r 1.0 d 703.0 e 1.0 r 1.0 d 703.0 e 1.0 r 1.0 d 703.0 e 1.0 r 1.0 d 703.0 e 1.0 r 1.0 d 703.0 e 1.0 r 1.0 d 703.0 e 1.0 r 1.0 d 703.0 e 1.0 r 1.0 d 703.0 e 1.0 r 1.0 d 703.0 e 1.0 r 1.0 d 703.0 e 1.0 r 1.0 d 703.0 e 1.0 r 1.0 d 703.0 e 1.0 r 1.0 d 703.0 e 1.0 r 1.0 d 703.0 e 1.0 r 1.0 d 703.0 e 1.0 r 1.0 d 703.0 e 1.0 r 1.0 d 703.0 e 1.0 r 1.0 d 703.0 e 1.0 r 1.0 d 703.0 e 1.0 r 1.0 d 703.0 e 1.0 r 1.0 d 703.0 e 1.0 r 1.0 d 703.0 e 1.0 r 1.0 d 703.0 e 1.0 r 1.0 d 703.0 e 1.0 r 1.0 d 703.0 e 1.0 r 1.0 d 703.0 e 1.0 r 1.0 d 703.0 e 1.0 r 1.0 d 703.0 e 1.0 r 1.0 d 703.0 e 1.0 r 1.0 d 703.0 e 1.0 r 1.0 d 703.0 e 1.0 r 1.0 d 703.0 e 1.0 r 1.0 d 703.0 e 1.0 r 1.0 d 703.0 e 1.0 r 1.0 d 703.0 e 1.0 r 1.0 d 703.0 e 1.0 r 1.0 d 703.0 e 1.0 r 1.0 d 703.0 e 1.0 r 1.0 d 703.0 e 1.0 r 1.0 d 703.0 e 1.0 r 1.0 d 703.0 e 1.0 r 1.0 d 703.0 e 1.0 r 1.0 d 703.0 e 1.0 r 1.0 d 703.0 e 1.0 r 1.0 d 703.0 e 1.0 r 1.0 d 703.0 e 1.0 r 1.0 d 703.0 e 1.0 r 1.0 d 703.0 e 1.0 r 1.0 d 703.0 e 1.0 r 1.0 d 703.0 e 1.0 r 1.0 d 703.0 e 1.0 r 1.0 d 703.0 e 1.0 r 1.0 d 703.0 e 1.0 r 1.0 d 703.0 e 1.0 r 1.0 d 703.0 e 1.0 r 1.0 d 703.0 e 1.0 r 1.0 d 703.0 e 1.0 r 1.0 d 703.0 e 1.0 r 1.0 d 703.0 e 1.0 r 1.0 d 703.0 e 1.0 r 1.0 d 703.0 e 1.0 r 1.0 d 703.0 e 1.0 r 1.0 d 703.0 e 1.0 r 1.0 d 703.0 e 1.0 r 1.0 d 703.0 e 1.0 r 1.0 d 703.0 e 1.0 r 1.0 d 703.0 e 1.0 r 1.0 d 703.0 e 1.0 r 1.0 d 703.0 e 1.0 r 1.0 d 703.0 e 1.0 r 1.0 d 703.0 e 1.0 r 1.0 d 703.0 e 1.0 r 1.0 d 703.0 e 1.0 r 1.0 d 703.0 e 1.0 r 1.0 d 703.0 e 1.0 r 1.0 d 703.0 e 1.0 r 1.0 d 703.0 e 1.0 r 1.0 d 703.0 e 1.0 r 1.0 d 703.0 e 1.0 r 1.0 d 703.0 e 1.0 r 1.0 d 703.0 e 1.0 r 1.0 d 703.0 e 1.0 r 1.0 d 703.0 e 1.0 r 1.0 d 703.0 e 1.0 r 1.0 d 703.0 e 1.0 r 1.0 d 703.0 e 1.0 r 1.0 d 703.0 e 1.0 r 1.0 d 703.0 e 1.0 r 1.0 d 703.0 e 1.0 r 1.0 d 703.0 e 1.0 r 1.0 d 703.0 e 1.0 r 1.0 d 703.0 e 1.0 r 1.0 d 703.0 e 1.0 r 1.0 d 703.0 e 1.0 r 1.0 d 703.0 e 1.0 r 1.0 d 703.0 e 1.0 r 1.0 d 703.0 e 1.0 r 1.0 d 703.0 e 1.0 r 1.0 d 703.0 e 1.0 r 1.0 d 703.0 e 1.0 r 1.0 d 703.0 e 1.0 r 1.0 d 703.0 e 1.0 r 1.0 d 703.0 e 1.0 r 1.0 d 703.0 e 1.0 r 1.0 d 703.0 e 1.0 r 1.0 d 703.0 e 1.0 r 1.0 d 703.0 e 1.0 r 1.0 d 703.0 e 1.0 r 1.0 d 703.0 e 1.0 r 1.0 d 703.0 e 1.0 r 1.0 d 703.0 e 1.0 r 1.0 d 703.0 e 1.0 r 1.0 d 703.0 e 1.0 r 1.0 d 703.0 e 1.0 r 1.0 d 703.0 e 1.0 r 1.0 d 703.0 e 1.0 r 1.0 d 703.0 e 1.0 r 1.0 d 703.0 e 1.0 r 1.0 d 703.0 e 1.0 r 1.0 d 703.0 e 1.0 r 1.0 d 703.0 e 1.0 r 1.0 d 703.0 e 1.0 r 1.0 d 703.0 e 1.0 r 1.0 d 703.0 e 1.0 r 1.0 d 703.0 e 1.0 r 1.0 d 703.0 e 1.0 r 1.0 d 703.0 e 1.0 r 1.0 d 703.0 e 1.0 r 1.0 d 703.0 e 1.0 r 1.0 d 703.0 e 1.0 r 1.0 d 703.0 e 1.0 r 1.0 d 703.0 e 1.0 r 1.0 d 703.0 e 1.0 r 1.0 d 703.0 e 1.0 r 1.0 d 703.0 e 1.0 r 1.0 d 703.0 e 1.0 r 1.0 d 703.0 e 1.0 r 1.0 d 703.0 e 1.0 r 1.0 d 703.0 e 1.0 r 1.0 d 703.0 e 1.0 r 1.0 d 703.0 e 1.0 r 1.0 d 703.0 e 1.0 r 1.0 d 703.0 e 1.0 r 1.0 d 703.0 e 1.0 r 1.0 d 703.0 e 1.0 r 1.0 d 703.0 e 1.0 r 1.0 d 703.0 e 1.0 r 1.0 d 703.0 e 1.0 r 1.0 d 703.0 e 1.0 r 1.0 d 703.0 e 1.0 r 1.0 d 703.0 e 1.0 r 1.0 d 703.0 e 1.0 r 1.0 d 703.0 e 1.0 r 1.0 d 703.0 e 1.0 r 1.0 d 703.0 e 1.0 r 1.0 d 703.0 e 1.0 r 1.0 d 703.0 e 1.0 r 1.0 d 703.0 e 1.0 r 1.0 d 703.0 e 1.0 r 1.0 d 703.0 e 1.0 r 1.0 d 703.0 e 1.0 r 1.0 d 703.0 e 1.0 r 1.0 d 703.0 e 1.0 r 1.0 d 703.0 e 1.0 r 1.0 d 703.0 e 1.0 r 1.0 d 703.0 e 1.0 r 1.0 d 703.0 e 1.0 r 1.0 d 703.0 e 1.0 r 1.0 d 703.0 e 1.0 r 1.0 d 703.0 e 1.0 r 1.0 d 703.0 e 1.0 r 1.0 d 703.0 e 1.0 r 1.0 d 703.0 e 1.0 r 1.0 d 703.0 e 1.0 r 1.0 d 703.0 e 1.0 r 1.0 d 703.0 e 1.0 r 1.0 d 703.0 e 1.0 r 1.0 d 703.0 e 1.0 r 1.0 d 703.0 e 1.0 r 1.0 d 703.0 e 1.0 r 1.0 d 703.0 e 1.0 r 1.0 d 703.0 e 1.0 r 1.0 d 703.0 e 1.0 r 1.0 d 703.0 e 1.0 r 1.0 d 703.0 e 1.0 r 1.0 d 703.0 e 1.0 r 1.0 d 703.0 e 1.0 r 1.0 d 703.0 e 1.0 r 1.0 d 703.0 e 1.0 r 1.0 d 703.0 e 1.0 r 1.0 d 703.0 e 1.0 r 1.0 d 703.0 e 1.0 r 1.0 d 703.0 e 1.0 r 1.0 d 703.0 e 1.0 r 1.0 d 703.0 e 1.0 r 1.0 d 703.0 e 1.0 r 1.0 d 703.0 e 1.0 r 1.0 d 703.0 e 1.0 r 1.0 d 703.0 e 1.0 r 1.0 d 703.0 e 1.0 r 1.0 d 703.0 e 1.0 r 1.0 d 703.0 e 1.0 r 1.0 d 703.0 e 1.0 r 1.0 d 703.0 e 1.0 r 1.0 d 703.0 e 1.0 r 1.0 d 703.0 e 1.0 r 1.0 d 703.0 e 1.0 r 1.0 d 703.0 e 1.0 r 1.0 d 703.0 e 1.0 r 1.0 d 703.0 e 1.0 r 1.0 d 703.0 e 1.0 r 1.0 d 703.0 e 1.0 r 1.0 d 703.0 e 1.0 r 1.0 d 703.0 e 1.0 r 1.0 d 703.0 e 1.0 r 1.0 d 703.0 e 1.0 r 1.0 d 703.0 e 1.0 r 1.0 d 703.0 e 1.0 r 1.0 d 703.0 e 1.0 r 1.0 d 703.0 e 1.0 r 1.0 d 703.0 e 1.0 r 1.0 d 703.0 e 1.0 r 1.0 d 703.0 e 1.0 r 1.0 d 703.0 e 1.0 r 1.0 d 703.0 e 1.0 r 1.0 d 703.0 e 1.0 r 1.0 d 703.0 e 1.0 r 1.0 d 703.0 e 1.0 r 1.0 d 703.0 e 1.0 r 1.0 d 703.0 e 1.0 r 1.0 d 703.0 e 1.0 r 1.0 d 703.0 e 1.0 r 1.0 d 703.0 e 1.0 r 1.0 d 703.0 e 1.0 r 1.0 d 703.0 e 1.0 r 1.0 d 703.0 e 1.0 r 1.0 d 703.0 e 1.0 r 1.0 d 703.0 e 1.0 r 1.0 d 703.0 e 1.0 r 1.0 d 703.0 e 1.0 r 1.0 d 703.0 e 1.0 r 1.0 d 703.0 e 1.0 r 1.0 d 703.0 e 1.0 r 1.0 d 703.0 e 1.0 r 1.0 d 703.0 e 1.0 r 1.0 d 703.0 e 1.0 r 1.0 d 703.0 e 1.0 r 1.0 d 703.0 e 1.0 r 1.0 d 703.0 e 1.0 r 1.0 d 703.0 e 1.0 r 1.0 d 703.0 e 1.0 r 1.0 d 703.0 e 1.0 r 1.0 d 703.0 e 1.0 r 1.0 d 703.0 e 1.0 r 1.0 d 703.0 e 1.0 r 1.0 d 703.0 e 1.0 r 1.0 d 703.0 e 1.0 r 1.0 d 703.0 e 1.0 r 1.0 d 703.0 e 1.0 r 1.0 d 703.0 e 1.0 r 1.0 d 703.0 e 1.0 r 1.0 d 703.0 e 1.0 r 1.0 d 703.0 e 1.0 r 1.0 d 703.0 e 1.0 r 1.0 d 703.0 e 1.0 r 1.0 d 703.0 e 1.0 r 1.0 d 703.0 e 1.0 r 1.0 d 703.0 e 1.0 r 1.0 d 703.0 e 1.0 r 1.0 d 703.0 e 1.0 r 1.0 d 703.0 e 1.0 r 1.0 d 703.0 e 1.0 r 1.0 d 703.0 e 1.0 r 1.0 d 703.0 e