ISO-10303-21;
HEADER;
FILE_DESCRIPTION( ( '' ), ' ' );
FILE_NAME( '/vol/tmp/translate-8579754438183730235/5ae5839f3947920fcf80d878.step', '2018-04-29T08:34:40', ( '' ), ( '' ), ' ', ' ', ' ' );
FILE_SCHEMA( ( 'AUTOMOTIVE_DESIGN { 1 0 10303 214 1 1 1 1 }' ) );
ENDSEC;
DATA;
/* PRODUCT_CATEGORY_RELATIONSHIP Section - 1 root entities */
#1 = PRODUCT_CATEGORY_RELATIONSHIP( 'NONE', 'NONE', #2, #3 );
#2 = PRODUCT_CATEGORY( 'part', 'NONE' );
#3 = PRODUCT_RELATED_PRODUCT_CATEGORY( 'detail', ' ', ( #4 ) );
#4 = PRODUCT( 'Part 1', 'Part 1', 'PART-Part 1-DESC', ( #5 ) );
#5 = PRODUCT_CONTEXT( '', #6, 'mechanical' );
#6 = APPLICATION_CONTEXT( 'core data for automotive mechanical design processes' );
#7 = APPLICATION_PROTOCOL_DEFINITION( 'international standard', 'automotive_design', 2001, #6 );
/* MECHANICAL_DESIGN_GEOMETRIC_PRESENTATION_REPRESENTATION Section - 12 STYLED_ITEM, 1 COMPLEX_ENTITY */
#8 = MECHANICAL_DESIGN_GEOMETRIC_PRESENTATION_REPRESENTATION( ' ', ( #ID_1, #ID_2, #ID_3, #ID_4, #ID_5, #ID_6, #ID_7, #ID_8, #ID_9, #ID_10, #ID_11, #ID_12 ), #ID_13 );
#9=COLOUR_RGB( , 0.5, 0.5, 0.5 );
/* BEGIN STYLED_ITEM 1 */
/* ID_1 = 10 */
#10 = STYLED_ITEM( '', ( #11 ), #17 );
#11 = PRESENTATION_STYLE_ASSIGNMENT( ( #12 ) );
#12 = SURFACE_STYLE_USAGE( .BOTH., #13 );
#13 = SURFACE_SIDE_STYLE( '', ( #14 ) );
#14 = SURFACE_STYLE_FILL_AREA( #15 );
#15 = FILL_AREA_STYLE( '', ( #16 ) );
#16 = FILL_AREA_STYLE_COLOUR( '', #9 );
#17 = ADVANCED_FACE( '', ( #18, #29 ), #40, .F. );
#18 = FACE_OUTER_BOUND( '', #19, .T. );
#19 = EDGE_LOOP( '', ( #20 ) );
#20 = ORIENTED_EDGE( '', *, *, #21, .T. );
#21 = EDGE_CURVE( '', #22, #22, #24, .T. );
#22 = VERTEX_POINT( '', #23 );
#23 = CARTESIAN_POINT( '', ( 0.000000, -0.006350, -0.007938 ) );
#24 = CIRCLE( '', #25, 0.003175 );
#25 = AXIS2_PLACEMENT_3D( '', #26, #27, #28 );
#26 = CARTESIAN_POINT( '', ( 0.000000, -0.006350, -0.005063 ) );
#27 = DIRECTION( '', ( 0.000000, -1.000000, 0.000000 ) );
#28 = DIRECTION( '', ( 0.000000, 0.000000, -1.000000 ) );
#29 = FACE_OUTER_BOUND( '', #30, .T. );
#30 = EDGE_LOOP( '', ( #31 ) );
#31 = ORIENTED_EDGE( '', *, *, #32, .T. );
#32 = EDGE_CURVE( '', #33, #33, #35, .F. );
#33 = VERTEX_POINT( '', #34 );
#34 = CARTESIAN_POINT( '', ( 0.000000, -0.057150, -0.007938 ) );
#35 = CIRCLE( '', #36, 0.003175 );
#36 = AXIS2_PLACEMENT_3D( '', #37, #38, #39 );
#37 = CARTESIAN_POINT( '', ( 0.000000, -0.057150, -0.005063 ) );
#38 = DIRECTION( '', ( 0.000000, -1.000000, 0.000000 ) );
#39 = DIRECTION( '', ( 0.000000, 0.000000, -1.000000 ) );
#40 = CYLINDRICAL_SURFACE( '', #41, 0.003175 );
#41 = AXIS2_PLACEMENT_3D( '', #42, #43, #44 );
#42 = CARTESIAN_POINT( '', ( 0.000000, -0.063500, -0.005063 ) );
#43 = DIRECTION( '', ( -0.000000, -1.000000, -0.000000 ) );
#44 = DIRECTION( '', ( 0.000000, 0.000000, 1.000000 ) );
/* END STYLED_ITEM 1 */
/* BEGIN STYLED_ITEM 2 */
/* ID_2 = 45 */
#45 = STYLED_ITEM( '', ( #46 ), #52 );
#46 = PRESENTATION_STYLE_ASSIGNMENT( ( #47 ) );
#47 = SURFACE_STYLE_USAGE( .BOTH., #48 );
#48 = SURFACE_SIDE_STYLE( '', ( #49 ) );
#49 = SURFACE_STYLE_FILL_AREA( #50 );
#50 = FILL_AREA_STYLE( '', ( #51 ) );
#51 = FILL_AREA_STYLE_COLOUR( '', #9 );
#52 = ADVANCED_FACE( '', ( #53, #64 ), #75, .F. );
#53 = FACE_OUTER_BOUND( '', #54, .T. );
#54 = EDGE_LOOP( '', ( #55 ) );
#55 = ORIENTED_EDGE( '', *, *, #56, .T. );
#56 = EDGE_CURVE( '', #57, #57, #59, .T. );
#57 = VERTEX_POINT( '', #58 );
#58 = CARTESIAN_POINT( '', ( 0.000000, -0.006350, 0.012700 ) );
#59 = CIRCLE( '', #60, 0.003175 );
#60 = AXIS2_PLACEMENT_3D( '', #61, #62, #63 );
#61 = CARTESIAN_POINT( '', ( 0.000000, -0.006350, 0.009525 ) );
#62 = DIRECTION( '', ( 0.000000, -1.000000, 0.000000 ) );
#63 = DIRECTION( '', ( 0.000000, 0.000000, 1.000000 ) );
#64 = FACE_OUTER_BOUND( '', #65, .T. );
#65 = EDGE_LOOP( '', ( #66 ) );
#66 = ORIENTED_EDGE( '', *, *, #67, .T. );
#67 = EDGE_CURVE( '', #68, #68, #70, .F. );
#68 = VERTEX_POINT( '', #69 );
#69 = CARTESIAN_POINT( '', ( 0.000000, -0.057150, 0.012700 ) );
#70 = CIRCLE( '', #71, 0.003175 );
#71 = AXIS2_PLACEMENT_3D( '', #72, #73, #74 );
#72 = CARTESIAN_POINT( '', ( 0.000000, -0.057150, 0.009525 ) );
#73 = DIRECTION( '', ( 0.000000, -1.000000, 0.000000 ) );
#74 = DIRECTION( '', ( 0.000000, 0.000000, 1.000000 ) );
#75 = CYLINDRICAL_SURFACE( '', #76, 0.003175 );
#76 = AXIS2_PLACEMENT_3D( '', #77, #78, #79 );
#77 = CARTESIAN_POINT( '', ( 0.000000, -0.063500, 0.009525 ) );
#78 = DIRECTION( '', ( -0.000000, -1.000000, -0.000000 ) );
#79 = DIRECTION( '', ( 0.000000, 0.000000, 1.000000 ) );
/* END STYLED_ITEM 2 */
/* BEGIN STYLED_ITEM 3 */
/* ID_3 = 80 */
#80 = STYLED_ITEM( '', ( #81 ), #87 );
#81 = PRESENTATION_STYLE_ASSIGNMENT( ( #82 ) );
#82 = SURFACE_STYLE_USAGE( .BOTH., #83 );
#83 = SURFACE_SIDE_STYLE( '', ( #84 ) );
#84 = SURFACE_STYLE_FILL_AREA( #85 );
#85 = FILL_AREA_STYLE( '', ( #86 ) );
#86 = FILL_AREA_STYLE_COLOUR( '', #9 );
#87 = ADVANCED_FACE( '', ( #88, #99 ), #110, .F. );
#88 = FACE_OUTER_BOUND( '', #89, .T. );
#89 = EDGE_LOOP( '', ( #90 ) );
#90 = ORIENTED_EDGE( '', *, *, #91, .T. );
#91 = EDGE_CURVE( '', #92, #92, #94, .T. );
#92 = VERTEX_POINT( '', #93 );
#93 = CARTESIAN_POINT( '', ( 0.000000, -0.006350, -0.015875 ) );
#94 = CIRCLE( '', #95, 0.004763 );
#95 = AXIS2_PLACEMENT_3D( '', #96, #97, #98 );
#96 = CARTESIAN_POINT( '', ( 0.000000, -0.006350, -0.011113 ) );
#97 = DIRECTION( '', ( 0.000000, -1.000000, 0.000000 ) );
#98 = DIRECTION( '', ( 0.000000, 0.000000, -1.000000 ) );
#99 = FACE_OUTER_BOUND( '', #100, .T. );
#100 = EDGE_LOOP( '', ( #101 ) );
#101 = ORIENTED_EDGE( '', *, *, #102, .T. );
#102 = EDGE_CURVE( '', #103, #103, #105, .F. );
#103 = VERTEX_POINT( '', #104 );
#104 = CARTESIAN_POINT( '', ( 0.000000, -0.057150, -0.015875 ) );
#105 = CIRCLE( '', #106, 0.004763 );
#106 = AXIS2_PLACEMENT_3D( '', #107, #108, #109 );
#107 = CARTESIAN_POINT( '', ( 0.000000, -0.057150, -0.011113 ) );
#108 = DIRECTION( '', ( 0.000000, -1.000000, 0.000000 ) );
#109 = DIRECTION( '', ( 0.000000, 0.000000, -1.000000 ) );
#110 = CYLINDRICAL_SURFACE( '', #111, 0.004763 );
#111 = AXIS2_PLACEMENT_3D( '', #112, #113, #114 );
#112 = CARTESIAN_POINT( '', ( 0.000000, -0.063500, -0.011113 ) );
#113 = DIRECTION( '', ( -0.000000, -1.000000, -0.000000 ) );
#114 = DIRECTION( '', ( 0.000000, 0.000000, 1.000000 ) );
/* END STYLED_ITEM 3 */
/* BEGIN STYLED_ITEM 4 */
/* ID_4 = 115 */
#115 = STYLED_ITEM( '', ( #116 ), #122 );
#116 = PRESENTATION_STYLE_ASSIGNMENT( ( #117 ) );
#117 = SURFACE_STYLE_USAGE( .BOTH., #118 );
#118 = SURFACE_SIDE_STYLE( '', ( #119 ) );
#119 = SURFACE_STYLE_FILL_AREA( #120 );
#120 = FILL_AREA_STYLE( '', ( #121 ) );
#121 = FILL_AREA_STYLE_COLOUR( '', #9 );
#122 = ADVANCED_FACE( '', ( #123, #134 ), #145, .F. );
#123 = FACE_OUTER_BOUND( '', #124, .T. );
#124 = EDGE_LOOP( '', ( #125 ) );
#125 = ORIENTED_EDGE( '', *, *, #126, .T. );
#126 = EDGE_CURVE( '', #127, #127, #129, .T. );
#127 = VERTEX_POINT( '', #128 );
#128 = CARTESIAN_POINT( '', ( 0.000000, -0.006350, -0.006985 ) );
#129 = CIRCLE( '', #130, 0.002667 );
#130 = AXIS2_PLACEMENT_3D( '', #131, #132, #133 );
#131 = CARTESIAN_POINT( '', ( 0.000000, -0.006350, -0.004320 ) );
#132 = DIRECTION( '', ( 0.000000, -1.000000, 0.000000 ) );
#133 = DIRECTION( '', ( 0.000000, 0.000000, -1.000000 ) );
#134 = FACE_OUTER_BOUND( '', #135, .T. );
#135 = EDGE_LOOP( '', ( #136 ) );
#136 = ORIENTED_EDGE( '', *, *, #137, .T. );
#137 = EDGE_CURVE( '', #138, #138, #140, .F. );
#138 = VERTEX_POINT( '', #139 );
#139 = CARTESIAN_POINT( '', ( 0.000000, -0.057150, -0.006985 ) );
#140 = CIRCLE( '', #141, 0.002667 );
#141 = AXIS2_PLACEMENT_3D( '', #142, #143, #144 );
#142 = CARTESIAN_POINT( '', ( 0.000000, -0.057150, -0.004320 ) );
#143 = DIRECTION( '', ( 0.000000, -1.000000, 0.000000 ) );
#144 = DIRECTION( '', ( 0.000000, 0.000000, -1.000000 ) );
#145 = CYLINDRICAL_SURFACE( '', #146, 0.002667 );
#146 = AXIS2_PLACEMENT_3D( '', #147, #148, #149 );
#147 = CARTESIAN_POINT( '', ( 0.000000, -0.063500, -0.004320 ) );
#148 = DIRECTION( '', ( -0.000000, -1.000000, -0.000000 ) );
#149 = DIRECTION( '', ( 0.000000, 0.000000, 1.000000 ) );
/* END STYLED_ITEM 4 */
/* BEGIN STYLED_ITEM 5 */
/* ID_5 = 150 */
#150 = STYLED_ITEM( '', ( #151 ), #157 );
#151 = PRESENTATION_STYLE_ASSIGNMENT( ( #152 ) );
#152 = SURFACE_STYLE_USAGE( .BOTH., #153 );
#153 = SURFACE_SIDE_STYLE( '', ( #154 ) );
#154 = SURFACE_STYLE_FILL_AREA( #155 );
#155 = FILL_AREA_STYLE( '', ( #156 ) );
#156 = FILL_AREA_STYLE_COLOUR( '', #9 );
#157 = ADVANCED_FACE( '', ( #158, #169 ), #180, .F. );
#158 = FACE_OUTER_BOUND( '', #159, .T. );
#159 = EDGE_LOOP( '', ( #160 ) );
#160 = ORIENTED_EDGE( '', *, *, #161, .T. );
#161 = EDGE_CURVE( '', #162, #162, #164, .T. );
#162 = VERTEX_POINT( '', #163 );
#163 = CARTESIAN_POINT( '', ( 0.000000, -0.006350, 0.015875 ) );
#164 = CIRCLE( '', #165, 0.004763 );
#165 = AXIS2_PLACEMENT_3D( '', #166, #167, #168 );
#166 = CARTESIAN_POINT( '', ( 0.000000, -0.006350, 0.011113 ) );
#167 = DIRECTION( '', ( 0.000000, -1.000000, 0.000000 ) );
#168 = DIRECTION( '', ( 0.000000, 0.000000, 1.000000 ) );
#169 = FACE_OUTER_BOUND( '', #170, .T. );
#170 = EDGE_LOOP( '', ( #171 ) );
#171 = ORIENTED_EDGE( '', *, *, #172, .T. );
#172 = EDGE_CURVE( '', #173, #173, #175, .F. );
#173 = VERTEX_POINT( '', #174 );
#174 = CARTESIAN_POINT( '', ( 0.000000, -0.057150, 0.015875 ) );
#175 = CIRCLE( '', #176, 0.004763 );
#176 = AXIS2_PLACEMENT_3D( '', #177, #178, #179 );
#177 = CARTESIAN_POINT( '', ( 0.000000, -0.057150, 0.011113 ) );
#178 = DIRECTION( '', ( 0.000000, -1.000000, 0.000000 ) );
#179 = DIRECTION( '', ( 0.000000, 0.000000, 1.000000 ) );
#180 = CYLINDRICAL_SURFACE( '', #181, 0.004763 );
#181 = AXIS2_PLACEMENT_3D( '', #182, #183, #184 );
#182 = CARTESIAN_POINT( '', ( 0.000000, -0.063500, 0.011113 ) );
#183 = DIRECTION( '', ( -0.000000, -1.000000, -0.000000 ) );
#184 = DIRECTION( '', ( 0.000000, 0.000000, 1.000000 ) );
/* END STYLED_ITEM 5 */
/* BEGIN STYLED_ITEM 6 */
/* ID_6 = 185 */
#185 = STYLED_ITEM( '', ( #186 ), #192 );
#186 = PRESENTATION_STYLE_ASSIGNMENT( ( #187 ) );
#187 = SURFACE_STYLE_USAGE( .BOTH., #188 );
#188 = SURFACE_SIDE_STYLE( '', ( #189 ) );
#189 = SURFACE_STYLE_FILL_AREA( #190 );
#190 = FILL_AREA_STYLE( '', ( #191 ) );
#191 = FILL_AREA_STYLE_COLOUR( '', #9 );
#192 = ADVANCED_FACE( '', ( #193, #196, #207, #210, #221, #224, #227, #238, #241, #252 ), #255, .F. );
#193 = FACE_BOUND( '', #194, .T. );
#194 = EDGE_LOOP( '', ( #195 ) );
#195 = ORIENTED_EDGE( '', *, *, #126, .F. );
#196 = FACE_BOUND( '', #197, .T. );
#197 = EDGE_LOOP( '', ( #198 ) );
#198 = ORIENTED_EDGE( '', *, *, #199, .F. );
#199 = EDGE_CURVE( '', #200, #200, #202, .T. );
#200 = VERTEX_POINT( '', #201 );
#201 = CARTESIAN_POINT( '', ( 0.000000, -0.006350, 0.007938 ) );
#202 = CIRCLE( '', #203, 0.003175 );
#203 = AXIS2_PLACEMENT_3D( '', #204, #205, #206 );
#204 = CARTESIAN_POINT( '', ( 0.000000, -0.006350, 0.005063 ) );
#205 = DIRECTION( '', ( 0.000000, -1.000000, 0.000000 ) );
#206 = DIRECTION( '', ( 0.000000, 0.000000, 1.000000 ) );
#207 = FACE_BOUND( '', #208, .T. );
#208 = EDGE_LOOP( '', ( #209 ) );
#209 = ORIENTED_EDGE( '', *, *, #56, .F. );
#210 = FACE_BOUND( '', #211, .T. );
#211 = EDGE_LOOP( '', ( #212 ) );
#212 = ORIENTED_EDGE( '', *, *, #213, .F. );
#213 = EDGE_CURVE( '', #214, #214, #216, .T. );
#214 = VERTEX_POINT( '', #215 );
#215 = CARTESIAN_POINT( '', ( 0.000000, -0.006350, 0.003175 ) );
#216 = CIRCLE( '', #217, 0.002540 );
#217 = AXIS2_PLACEMENT_3D( '', #218, #219, #220 );
#218 = CARTESIAN_POINT( '', ( 0.000000, -0.006350, 0.000635 ) );
#219 = DIRECTION( '', ( 0.000000, -1.000000, 0.000000 ) );
#220 = DIRECTION( '', ( 0.000000, 0.000000, 1.000000 ) );
#221 = FACE_BOUND( '', #222, .T. );
#222 = EDGE_LOOP( '', ( #223 ) );
#223 = ORIENTED_EDGE( '', *, *, #91, .F. );
#224 = FACE_BOUND( '', #225, .T. );
#225 = EDGE_LOOP( '', ( #226 ) );
#226 = ORIENTED_EDGE( '', *, *, #21, .F. );
#227 = FACE_BOUND( '', #228, .T. );
#228 = EDGE_LOOP( '', ( #229 ) );
#229 = ORIENTED_EDGE( '', *, *, #230, .F. );
#230 = EDGE_CURVE( '', #231, #231, #233, .T. );
#231 = VERTEX_POINT( '', #232 );
#232 = CARTESIAN_POINT( '', ( 0.000000, -0.006350, -0.003175 ) );
#233 = CIRCLE( '', #234, 0.002540 );
#234 = AXIS2_PLACEMENT_3D( '', #235, #236, #237 );
#235 = CARTESIAN_POINT( '', ( 0.000000, -0.006350, -0.005715 ) );
#236 = DIRECTION( '', ( 0.000000, -1.000000, 0.000000 ) );
#237 = DIRECTION( '', ( 0.000000, 0.000000, 1.000000 ) );
#238 = FACE_BOUND( '', #239, .T. );
#239 = EDGE_LOOP( '', ( #240 ) );
#240 = ORIENTED_EDGE( '', *, *, #161, .F. );
#241 = FACE_BOUND( '', #242, .T. );
#242 = EDGE_LOOP( '', ( #243 ) );
#243 = ORIENTED_EDGE( '', *, *, #244, .F. );
#244 = EDGE_CURVE( '', #245, #245, #247, .T. );
#245 = VERTEX_POINT( '', #246 );
#246 = CARTESIAN_POINT( '', ( 0.000000, -0.006350, 0.000635 ) );
#247 = CIRCLE( '', #248, 0.002540 );
#248 = AXIS2_PLACEMENT_3D( '', #249, #250, #251 );
#249 = CARTESIAN_POINT( '', ( 0.000000, -0.006350, 0.003175 ) );
#250 = DIRECTION( '', ( 0.000000, -1.000000, 0.000000 ) );
#251 = DIRECTION( '', ( 0.000000, 0.000000, -1.000000 ) );
#252 = FACE_OUTER_BOUND( '', #253, .T. );
#253 = EDGE_LOOP( '', ( #254 ) );
#254 = ORIENTED_EDGE( '', *, *, #126, .F. );
#255 = PLANE( '', #256 );
#256 = AXIS2_PLACEMENT_3D( '', #257, #258, #259 );
#257 = CARTESIAN_POINT( '', ( 0.000000, -0.006350, 0.005952 ) );
#258 = DIRECTION( '', ( 0.000000, -1.000000, 0.000000 ) );
#259 = DIRECTION( '', ( 0.000000, 0.000000, -1.000000 ) );
/* END STYLED_ITEM 6 */
/* BEGIN STYLED_ITEM 7 */
/* ID_7 = 260 */
#260 = STYLED_ITEM( '', ( #261 ), #267 );
#261 = PRESENTATION_STYLE_ASSIGNMENT( ( #262 ) );
#262 = SURFACE_STYLE_USAGE( .BOTH., #263 );
#263 = SURFACE_SIDE_STYLE( '', ( #264 ) );
#264 = SURFACE_STYLE_FILL_AREA( #265 );
#265 = FILL_AREA_STYLE( '', ( #266 ) );
#266 = FILL_AREA_STYLE_COLOUR( '', #9 );
#267 = ADVANCED_FACE( '', ( #268, #279 ), #290, .F. );
#268 = FACE_OUTER_BOUND( '', #269, .T. );
#269 = EDGE_LOOP( '', ( #270 ) );
#270 = ORIENTED_EDGE( '', *, *, #271, .T. );
#271 = EDGE_CURVE( '', #272, #272, #274, .T. );
#272 = VERTEX_POINT( '', #273 );
#273 = CARTESIAN_POINT( '', ( 0.000000, 0.000000, -0.003175 ) );
#274 = CIRCLE( '', #275, 0.002540 );
#275 = AXIS2_PLACEMENT_3D( '', #276, #277, #278 );
#276 = CARTESIAN_POINT( '', ( 0.000000, 0.000000, -0.005715 ) );
#277 = DIRECTION( '', ( 0.000000, -1.000000, 0.000000 ) );
#278 = DIRECTION( '', ( 0.000000, 0.000000, 1.000000 ) );
#279 = FACE_OUTER_BOUND( '', #280, .T. );
#280 = EDGE_LOOP( '', ( #281 ) );
#281 = ORIENTED_EDGE( '', *, *, #282, .T. );
#282 = EDGE_CURVE( '', #283, #283, #285, .F. );
#283 = VERTEX_POINT( '', #284 );
#284 = CARTESIAN_POINT( '', ( 0.000000, -0.057150, -0.003175 ) );
#285 = CIRCLE( '', #286, 0.002540 );
#286 = AXIS2_PLACEMENT_3D( '', #287, #288, #289 );
#287 = CARTESIAN_POINT( '', ( 0.000000, -0.057150, -0.005715 ) );
#288 = DIRECTION( '', ( 0.000000, -1.000000, 0.000000 ) );
#289 = DIRECTION( '', ( 0.000000, 0.000000, 1.000000 ) );
#290 = CYLINDRICAL_SURFACE( '', #291, 0.002540 );
#291 = AXIS2_PLACEMENT_3D( '', #292, #293, #294 );
#292 = CARTESIAN_POINT( '', ( 0.000000, -0.063500, -0.005715 ) );
#293 = DIRECTION( '', ( -0.000000, -1.000000, -0.000000 ) );
#294 = DIRECTION( '', ( 0.000000, 0.000000, 1.000000 ) );
/* END STYLED_ITEM 7 */
/* BEGIN STYLED_ITEM 8 */
/* ID_8 = 295 */
#295 = STYLED_ITEM( '', ( #296 ), #302 );
#296 = PRESENTATION_STYLE_ASSIGNMENT( ( #297 ) );
#297 = SURFACE_STYLE_USAGE( .BOTH., #298 );
#298 = SURFACE_SIDE_STYLE( '', ( #299 ) );
#299 = SURFACE_STYLE_FILL_AREA( #300 );
#300 = FILL_AREA_STYLE( '', ( #301 ) );
#301 = FILL_AREA_STYLE_COLOUR( '', #9 );
#302 = ADVANCED_FACE( '', ( #303, #306, #317, #320, #331, #334, #337, #348, #351, #362 ), #365, .T. );
#303 = FACE_BOUND( '', #304, .T. );
#304 = EDGE_LOOP( '', ( #305 ) );
#305 = ORIENTED_EDGE( '', *, *, #271, .F. );
#306 = FACE_BOUND( '', #307, .T. );
#307 = EDGE_LOOP( '', ( #308 ) );
#308 = ORIENTED_EDGE( '', *, *, #309, .F. );
#309 = EDGE_CURVE( '', #310, #310, #312, .T. );
#310 = VERTEX_POINT( '', #311 );
#311 = CARTESIAN_POINT( '', ( 0.000000, 0.000000, 0.007938 ) );
#312 = CIRCLE( '', #313, 0.003175 );
#313 = AXIS2_PLACEMENT_3D( '', #314, #315, #316 );
#314 = CARTESIAN_POINT( '', ( 0.000000, 0.000000, 0.005063 ) );
#315 = DIRECTION( '', ( 0.000000, -1.000000, 0.000000 ) );
#316 = DIRECTION( '', ( 0.000000, 0.000000, 1.000000 ) );
#317 = FACE_BOUND( '', #318, .T. );
#318 = EDGE_LOOP( '', ( #319 ) );
#319 = ORIENTED_EDGE( '', *, *, #102, .F. );
#320 = FACE_BOUND( '', #321, .T. );
#321 = EDGE_LOOP( '', ( #322 ) );
#322 = ORIENTED_EDGE( '', *, *, #323, .F. );
#323 = EDGE_CURVE( '', #324, #324, #326, .T. );
#324 = VERTEX_POINT( '', #325 );
#325 = CARTESIAN_POINT( '', ( 0.000000, 0.000000, 0.003175 ) );
#326 = CIRCLE( '', #327, 0.002540 );
#327 = AXIS2_PLACEMENT_3D( '', #328, #329, #330 );
#328 = CARTESIAN_POINT( '', ( 0.000000, 0.000000, 0.000635 ) );
#329 = DIRECTION( '', ( 0.000000, -1.000000, 0.000000 ) );
#330 = DIRECTION( '', ( 0.000000, 0.000000, 1.000000 ) );
#331 = FACE_BOUND( '', #332, .T. );
#332 = EDGE_LOOP( '', ( #333 ) );
#333 = ORIENTED_EDGE( '', *, *, #244, .T. );
#334 = FACE_BOUND( '', #335, .T. );
#335 = EDGE_LOOP( '', ( #336 ) );
#336 = ORIENTED_EDGE( '', *, *, #282, .F. );
#337 = FACE_BOUND( '', #338, .T. );
#338 = EDGE_LOOP( '', ( #339 ) );
#339 = ORIENTED_EDGE( '', *, *, #340, .T. );
#340 = EDGE_CURVE( '', #341, #341, #343, .F. );
#341 = VERTEX_POINT( '', #342 );
#342 = CARTESIAN_POINT( '', ( 0.000000, -0.057150, 0.003175 ) );
#343 = CIRCLE( '', #344, 0.002540 );
#344 = AXIS2_PLACEMENT_3D( '', #345, #346, #347 );
#345 = CARTESIAN_POINT( '', ( 0.000000, -0.057150, 0.000635 ) );
#346 = DIRECTION( '', ( 0.000000, -1.000000, 0.000000 ) );
#347 = DIRECTION( '', ( 0.000000, 0.000000, 1.000000 ) );
#348 = FACE_BOUND( '', #349, .T. );
#349 = EDGE_LOOP( '', ( #350 ) );
#350 = ORIENTED_EDGE( '', *, *, #172, .F. );
#351 = FACE_BOUND( '', #352, .T. );
#352 = EDGE_LOOP( '', ( #353 ) );
#353 = ORIENTED_EDGE( '', *, *, #354, .T. );
#354 = EDGE_CURVE( '', #355, #355, #357, .T. );
#355 = VERTEX_POINT( '', #356 );
#356 = CARTESIAN_POINT( '', ( 0.000000, -0.057150, 0.015875 ) );
#357 = CIRCLE( '', #358, 0.004763 );
#358 = AXIS2_PLACEMENT_3D( '', #359, #360, #361 );
#359 = CARTESIAN_POINT( '', ( 0.000000, -0.057150, 0.011113 ) );
#360 = DIRECTION( '', ( 0.000000, -1.000000, 0.000000 ) );
#361 = DIRECTION( '', ( 0.000000, 0.000000, 1.000000 ) );
#362 = FACE_OUTER_BOUND( '', #363, .T. );
#363 = EDGE_LOOP( '', ( #364 ) );
#364 = ORIENTED_EDGE( '', *, *, #32, .F. );
#365 = PLANE( '', #366 );
#366 = AXIS2_PLACEMENT_3D( '', #367, #368, #369 );
#367 = CARTESIAN_POINT( '', ( 0.000000, -0.057150, 0.005952 ) );
#368 = DIRECTION( '', ( 0.000000, -1.000000, 0.000000 ) );
#369 = DIRECTION( '', ( 0.000000, 0.000000, -1.000000 ) );
/* END STYLED_ITEM 8 */
/* BEGIN STYLED_ITEM 9 */
/* ID_9 = 370 */
#370 = STYLED_ITEM( '', ( #371 ), #377 );
#371 = PRESENTATION_STYLE_ASSIGNMENT( ( #372 ) );
#372 = SURFACE_STYLE_USAGE( .BOTH., #373 );
#373 = SURFACE_SIDE_STYLE( '', ( #374 ) );
#374 = SURFACE_STYLE_FILL_AREA( #375 );
#375 = FILL_AREA_STYLE( '', ( #376 ) );
#376 = FILL_AREA_STYLE_COLOUR( '', #9 );
#377 = ADVANCED_FACE( '', ( #378, #381 ), #384, .F. );
#378 = FACE_OUTER_BOUND( '', #379, .T. );
#379 = EDGE_LOOP( '', ( #380 ) );
#380 = ORIENTED_EDGE( '', *, *, #213, .T. );
#381 = FACE_OUTER_BOUND( '', #382, .T. );
#382 = EDGE_LOOP( '', ( #383 ) );
#383 = ORIENTED_EDGE( '', *, *, #309, .T. );
#384 = CYLINDRICAL_SURFACE( '', #385, 0.002540 );
#385 = AXIS2_PLACEMENT_3D( '', #386, #387, #388 );
#386 = CARTESIAN_POINT( '', ( 0.000000, -0.006350, 0.000635 ) );
#387 = DIRECTION( '', ( -0.000000, 1.000000, -0.000000 ) );
#388 = DIRECTION( '', ( 0.000000, 0.000000, -1.000000 ) );
/* END STYLED_ITEM 9 */
/* BEGIN STYLED_ITEM 10 */
/* ID_10 = 389 */
#389 = STYLED_ITEM( '', ( #390 ), #396 );
#390 = PRESENTATION_STYLE_ASSIGNMENT( ( #391 ) );
#391 = SURFACE_STYLE_USAGE( .BOTH., #392 );
#392 = SURFACE_SIDE_STYLE( '', ( #393 ) );
#393 = SURFACE_STYLE_FILL_AREA( #394 );
#394 = FILL_AREA_STYLE( '', ( #395 ) );
#395 = FILL_AREA_STYLE_COLOUR( '', #9 );
#396 = ADVANCED_FACE( '', ( #397, #400 ), #403, .F. );
#397 = FACE_OUTER_BOUND( '', #398, .T. );
#398 = EDGE_LOOP( '', ( #399 ) );
#399 = ORIENTED_EDGE( '', *, *, #213, .F. );
#400 = FACE_OUTER_BOUND( '', #401, .T. );
#401 = EDGE_LOOP( '', ( #402 ) );
#402 = ORIENTED_EDGE( '', *, *, #323, .T. );
#403 = CYLINDRICAL_SURFACE( '', #404, 0.002540 );
#404 = AXIS2_PLACEMENT_3D( '', #405, #406, #407 );
#405 = CARTESIAN_POINT( '', ( 0.000000, -0.006350, 0.000635 ) );
#406 = DIRECTION( '', ( -0.000000, 1.000000, -0.000000 ) );
#407 = DIRECTION( '', ( 0.000000, 0.000000, -1.000000 ) );
/* END STYLED_ITEM 10 */
/* BEGIN STYLED_ITEM 11 */
/* ID_11 = 408 */
#408 = STYLED_ITEM( '', ( #409 ), #415 );
#409 = PRESENTATION_STYLE_ASSIGNMENT( ( #410 ) );
#410 = SURFACE_STYLE_USAGE( .BOTH., #411 );
#411 = SURFACE_SIDE_STYLE( '', ( #412 ) );
#412 = SURFACE_STYLE_FILL_AREA( #413 );
#413 = FILL_AREA_STYLE( '', ( #414 ) );
#414 = FILL_AREA_STYLE_COLOUR( '', #9 );
#415 = ADVANCED_FACE( '', ( #416, #419 ), #422, .F. );
#416 = FACE_OUTER_BOUND( '', #417, .T. );
#417 = EDGE_LOOP( '', ( #418 ) );
#418 = ORIENTED_EDGE( '', *, *, #320, .F. );
#419 = FACE_OUTER_BOUND( '', #420, .T. );
#420 = EDGE_LOOP( '', ( #421 ) );
#421 = ORIENTED_EDGE( '', *, *, #354, .F. );
#422 = CYLINDRICAL_SURFACE( '', #423, 0.004763 );
#423 = AXIS2_PLACEMENT_3D( '', #424, #425, #426 );
#424 = CARTESIAN_POINT( '', ( 0.000000, -0.063500, 0.011113 ) );
#425 = DIRECTION( '', ( -0.000000, -1.000000, -0.000000 ) );
#426 = DIRECTION( '', ( 0.000000, 0.000000, 1.000000 ) );
/* END STYLED_ITEM 11 */
/* BEGIN STYLED_ITEM 12 */
/* ID_12 = 427 */
#427 = STYLED_ITEM( '', ( #428 ), #434 );
#428 = PRESENTATION_STYLE_ASSIGNMENT( ( #429 ) );
#429 = SURFACE_STYLE_USAGE( .BOTH., #430 );
#430 = SURFACE_SIDE_STYLE( '', ( #431 ) );
#431 = SURFACE_STYLE_FILL_AREA( #432 );
#432 = FILL_AREA_STYLE( '', ( #433 ) );
#433 = FILL_AREA_STYLE_COLOUR( '', #9 );
#434 = ADVANCED_FACE( '', ( #435, #438 ), #441, .F. );
#435 = FACE_OUTER_BOUND( '', #436, .T. );
#436 = EDGE_LOOP( '', ( #437 ) );
#437 = ORIENTED_EDGE( '', *, *, #21, .F. );
#438 = FACE_OUTER_BOUND( '', #439, .T. );
#439 = EDGE_LOOP( '', ( #440 ) );
#440 = ORIENTED_EDGE( '', *, *, #199, .T. );
#441 = CYLINDRICAL_SURFACE( '', #442, 0.003175 );
#442 = AXIS2_PLACEMENT_3D( '', #443, #444, #445 );
#443 = CARTESIAN_POINT( '', ( 0.000000, -0.006350, 0.005063 ) );
#444 = DIRECTION( '', ( -0.000000, -1.000000, -0.000000 ) );
#445 = DIRECTION( '', ( 0.000000, 0.000000, 1.000000 ) );
/* END STYLED_ITEM 12 */
/* BEGIN COMPLEX_ENTITY 1 */
/* ID_13 = 446 */
#446 =  ( GEOMETRIC_REPRESENTATION_CONTEXT( 3 )GLOBAL_UNCERTAINTY_ASSIGNED_CONTEXT( ( #447 ) )GLOBAL_UNIT_ASSIGNED_CONTEXT( ( #448, #452, #454 ) )REPRESENTATION_CONTEXT( 'NONE', 'WORKSPACE' ) );
#447 = UNCERTAINTY_MEASURE_WITH_UNIT( LENGTH_MEASURE( 1.000000E-17 ), #448, '', '' );
#448 =  ( CONVERSION_BASED_UNIT( 'METRE', #449 )LENGTH_UNIT(  )NAMED_UNIT( #451 ) );
#449 = LENGTH_MEASURE_WITH_UNIT( LENGTH_MEASURE( 1.000000 ), #450 );
#450 =  ( LENGTH_UNIT(  )NAMED_UNIT( #451 )SI_UNIT( $, .METRE. ) );
#451 = DIMENSIONAL_EXPONENTS( 1.000000, 0.000000, 0.000000, 0.000000, 0.000000, 0.000000, 0.000000 );
#452 =  ( NAMED_UNIT( #453 )PLANE_ANGLE_UNIT(  )SI_UNIT( $, .RADIAN. ) );
#453 = DIMENSIONAL_EXPONENTS( 0.000000, 0.000000, 0.000000, 0.000000, 0.000000, 0.000000, 0.000000 );
#454 =  ( NAMED_UNIT( #453 )SI_UNIT( $, .STERADIAN. )SOLID_ANGLE_UNIT(  ) );
/* END COMPLEX_ENTITY 1 */
/* SHAPE_DEFINITION_REPRESENTATION Section - 1 subtrees */
/* BEGIN SHAPE_DEFINITION_REPRESENTATION 1 */
#455 = SHAPE_DEFINITION_REPRESENTATION( #456, #460 );
#456 = PRODUCT_DEFINITION_SHAPE( 'NONE', 'NONE', #457 );
#457 = PRODUCT_DEFINITION( 'NONE', 'NONE', #458, #459 );
#458 = PRODUCT_DEFINITION_FORMATION_WITH_SPECIFIED_SOURCE( ' ', 'NONE', #4, .NOT_KNOWN. );
#459 = PRODUCT_DEFINITION_CONTEXT( '', #6, 'design' );
#460 = ADVANCED_BREP_SHAPE_REPRESENTATION( 'Part 1', ( #461, #463 ), #446 );
#461 = MANIFOLD_SOLID_BREP( 'Part 1', #462 );
#462 = CLOSED_SHELL( '', ( #17, #396, #377, #434, #192, #302, #415, #122, #52, #87, #157, #267 ) );
#463 = AXIS2_PLACEMENT_3D( '', #464, #465, #466 );
#464 = CARTESIAN_POINT( '', ( 0.000000, 0.000000, 0.000000 ) );
#465 = DIRECTION( '', ( 0.000000, 0.000000, 1.000000 ) );
#466 = DIRECTION( '', ( 1.000000, 0.000000, 0.000000 ) );
/* END SHAPE_DEFINITION_REPRESENTATION 1 */
ENDSEC;
END-ISO-10303-21;